<?xml version="1.0" encoding="UTF-8" standalone="no"?><!DOCTYPE svg PUBLIC "-//W3C//DTD SVG 1.1//EN" "http://www.w3.org/Graphics/SVG/1.1/DTD/svg11.dtd"><svg width="100%" height="100%" viewBox="0 0 417 413" version="1.1" xmlns="http://www.w3.org/2000/svg" xmlns:xlink="http://www.w3.org/1999/xlink" xml:space="preserve" xmlns:serif="http://www.serif.com/" style="fill-rule:evenodd;clip-rule:evenodd;stroke-linejoin:round;stroke-miterlimit:2;"><g><clipPath id="_clip1"><rect x="0" y="0" width="416.667" height="409.071"/></clipPath><g clip-path="url(#_clip1)"><g><path d="M369.296,225.863c5.529,5.258 12.683,7.833 19.837,7.733c7.155,-0.104 14.242,-2.85 19.634,-8.275l0.404,-0.408c5.087,-5.355 7.562,-12.205 7.462,-19.021c-0.104,-6.817 -2.779,-13.629 -8.037,-18.821c-59.884,-59.879 -120.746,-119.117 -181.071,-178.629c-0.171,-0.238 -0.338,-0.438 -0.542,-0.642c-5.529,-5.258 -12.75,-7.833 -19.904,-7.733c-7.154,0.104 -14.275,2.883 -19.667,8.308l-0.883,0.917c-59.475,59.237 -119.154,118.408 -178.525,177.816c-5.225,5.188 -7.904,11.967 -8.004,18.784c-0.1,6.816 2.375,13.666 7.496,19.021l0.508,0.512c5.354,5.321 12.408,8.067 19.529,8.171c7.121,0.1 14.309,-2.475 19.838,-7.733l160.283,-160.113l161.642,160.113Zm-6.779,175.545c5.491,5.221 12.646,7.763 19.766,7.663c7.155,-0.1 14.242,-2.85 19.634,-8.275l0.408,-0.404c5.083,-5.325 7.558,-12.209 7.492,-19.025c-0.1,-6.813 -2.779,-13.63 -8.038,-18.817c-58.625,-58.629 -116.271,-119.188 -174.187,-178.596c-0.167,-0.237 -0.371,-0.475 -0.575,-0.712c-5.525,-5.259 -12.75,-7.834 -19.905,-7.734c-7.154,0.104 -14.275,2.884 -19.666,8.309c-57.475,59.308 -114.746,118.916 -172.154,178.358l-0.442,0.408c-5.221,5.188 -7.867,11.971 -7.967,18.784c-0.1,6.816 2.375,13.666 7.459,19.025l0.508,0.508c5.358,5.321 12.446,8.071 19.533,8.171c7.121,0.1 14.309,-2.475 19.838,-7.729l153.4,-159.984l154.896,160.05Z" style="fill:#fff;fill-rule:nonzero;"/></g></g></g></svg>