<?xml version="1.0" encoding="UTF-8" standalone="no"?><!DOCTYPE svg PUBLIC "-//W3C//DTD SVG 1.1//EN" "http://www.w3.org/Graphics/SVG/1.1/DTD/svg11.dtd"><svg width="100px" height="99px" version="1.1" xmlns="http://www.w3.org/2000/svg" xmlns:xlink="http://www.w3.org/1999/xlink" xml:space="preserve" xmlns:serif="http://www.serif.com/" style="fill-rule:evenodd;clip-rule:evenodd;stroke-linejoin:round;stroke-miterlimit:2;"><clipPath id="_clip1"><rect id="double-arrow-bottom-icon.svg" x="0" y="-0" width="100" height="98.177"/></clipPath><g clip-path="url(#_clip1)"><g><path d="M88.631,54.207c1.327,1.262 3.044,1.88 4.761,1.856c1.717,-0.025 3.418,-0.684 4.712,-1.986l0.097,-0.098c1.221,-1.285 1.815,-2.929 1.791,-4.565c-0.025,-1.636 -0.667,-3.271 -1.929,-4.517c-14.372,-14.371 -28.979,-28.588 -43.457,-42.871c-0.041,-0.057 -0.081,-0.105 -0.13,-0.154c-1.327,-1.262 -3.06,-1.88 -4.777,-1.856c-1.717,0.025 -3.426,0.692 -4.72,1.994l-0.212,0.22c-14.274,14.217 -28.597,28.418 -42.846,42.676c-1.254,1.245 -1.897,2.872 -1.921,4.508c-0.024,1.636 0.57,3.28 1.799,4.565l0.122,0.123c1.285,1.277 2.978,1.936 4.687,1.961c1.709,0.024 3.434,-0.594 4.761,-1.856l38.468,-38.427l38.794,38.427Zm-1.627,42.131c1.318,1.253 3.035,1.863 4.744,1.839c1.717,-0.024 3.418,-0.684 4.712,-1.986l0.098,-0.097c1.22,-1.278 1.814,-2.93 1.798,-4.566c-0.024,-1.635 -0.667,-3.271 -1.929,-4.516c-14.07,-14.071 -27.905,-28.605 -41.805,-42.863c-0.04,-0.057 -0.089,-0.114 -0.138,-0.171c-1.326,-1.262 -3.06,-1.88 -4.777,-1.856c-1.717,0.025 -3.426,0.692 -4.72,1.994c-13.794,14.234 -27.539,28.54 -41.317,42.806l-0.106,0.098c-1.253,1.245 -1.888,2.873 -1.912,4.508c-0.024,1.636 0.57,3.28 1.79,4.566l0.122,0.122c1.286,1.277 2.987,1.937 4.688,1.961c1.709,0.024 3.434,-0.594 4.761,-1.855l36.816,-38.396l37.175,38.412Z" style="fill-rule:nonzero;"/></g></g></svg>