<?xml version="1.0" encoding="UTF-8" standalone="no"?><!DOCTYPE svg PUBLIC "-//W3C//DTD SVG 1.1//EN" "http://www.w3.org/Graphics/SVG/1.1/DTD/svg11.dtd"><svg width="100%" height="100%" viewBox="0 0 417 417" version="1.1" xmlns="http://www.w3.org/2000/svg" xmlns:xlink="http://www.w3.org/1999/xlink" xml:space="preserve" xmlns:serif="http://www.serif.com/" style="fill-rule:evenodd;clip-rule:evenodd;stroke-linejoin:round;stroke-miterlimit:2;"><path id="path4524" d="M102.888,313.779c74.404,74.4 168.275,110.284 245.658,101.617c13.966,-1.958 23.912,-7.383 30.125,-13.596l21.471,-21.471c5.483,-5.25 9.645,-12.083 11.762,-19.983l3.279,-12.2c6.159,-22.975 -7.412,-46.446 -30.387,-52.604l-68.654,-18.363c-15.796,-4.233 -31.809,0.796 -42.284,11.85l-20.591,20.596c-31.655,-7.738 -64.413,-26.021 -92.309,-53.917c-27.896,-27.896 -46.179,-60.654 -53.916,-92.308l20.595,-20.592c11.055,-10.475 16.084,-26.487 11.85,-42.283l-18.362,-68.654c-6.158,-22.975 -29.629,-36.546 -52.604,-30.388l-12.2,3.279c-7.9,2.117 -14.734,6.28 -19.984,11.763l-21.47,21.471c-6.213,6.212 -11.638,16.158 -13.596,30.125c-8.667,77.383 27.216,171.254 101.616,245.658Z" style="fill-rule:nonzero;"/></svg>