<?xml version="1.0" encoding="UTF-8" standalone="no"?><!DOCTYPE svg PUBLIC "-//W3C//DTD SVG 1.1//EN" "http://www.w3.org/Graphics/SVG/1.1/DTD/svg11.dtd"><svg width="100%" height="100%" viewBox="0 0 100 100" version="1.1" xmlns="http://www.w3.org/2000/svg" xmlns:xlink="http://www.w3.org/1999/xlink" xml:space="preserve" xmlns:serif="http://www.serif.com/" style="fill-rule:evenodd;clip-rule:evenodd;stroke-linejoin:round;stroke-miterlimit:2;"><path id="path3877" d="M50,-0c-27.614,-0 -50,22.386 -50,50c0,27.614 22.386,50 50,50c27.614,0 50,-22.386 50,-50c0,-27.614 -22.386,-50 -50,-50Zm0,17.578c14.82,0 26.823,12.003 26.823,26.823c-0,7.41 -2.956,14.154 -7.813,19.01l-19.01,18.881l-18.88,-18.881c-4.856,-4.856 -7.943,-11.6 -7.943,-19.01c0,-14.82 12.003,-26.823 26.823,-26.823Zm0.13,14.714c-6.689,-0 -12.24,5.42 -12.24,12.109c0,6.689 5.551,12.109 12.24,12.109c6.689,0 11.979,-5.42 11.979,-12.109c0,-6.689 -5.29,-12.109 -11.979,-12.109Z" style="fill:#ca8a04;fill-rule:nonzero;"/></svg>