<?xml version="1.0" encoding="UTF-8" standalone="no"?><!DOCTYPE svg PUBLIC "-//W3C//DTD SVG 1.1//EN" "http://www.w3.org/Graphics/SVG/1.1/DTD/svg11.dtd"><svg width="16327px" height="10191px" version="1.1" xmlns="http://www.w3.org/2000/svg" xmlns:xlink="http://www.w3.org/1999/xlink" xml:space="preserve" xmlns:serif="http://www.serif.com/" style="fill-rule:evenodd;clip-rule:evenodd;stroke-linejoin:round;stroke-miterlimit:2;"><rect id="Artboard1" x="0" y="0" width="16326.5" height="10191" style="fill:none;"/><clipPath id="_clip1"><rect x="0" y="0" width="16326.5" height="10191"/></clipPath><g clip-path="url(#_clip1)"><path d="M15972.4,10191l-15611,0c-195.625,0 -354.254,-158.596 -354.254,-354.237l-0,-9482.5c-0,-195.625 158.629,-354.217 354.254,-354.217l15611,-0c195.488,-0 354.167,158.592 354.167,354.217l0,9482.5c0,195.641 -158.679,354.237 -354.167,354.237Z" style="fill:#fff;fill-rule:nonzero;"/><g><g><path d="M4768.73,2311.32l-0,13.854l7162.46,0c21.7,0.017 42.446,7.517 61.733,21.525c57.954,41.875 100.559,143.525 100.4,262.413l0,4325.54c0.017,79.234 -18.712,150.9 -48.575,202.204c-14.912,25.675 -32.571,46.213 -51.825,60.225c-19.287,14.009 -40.033,21.509 -61.733,21.53l-7162.46,-0c-21.717,-0.021 -42.446,-7.521 -61.734,-21.53c-57.954,-41.875 -100.558,-143.525 -100.4,-262.429l0,-4325.54c-0.016,-79.234 18.713,-150.884 48.575,-202.188c14.913,-25.675 32.571,-46.212 51.825,-60.225c19.288,-14.008 40.017,-21.508 61.734,-21.525l-0,-13.854c-24.984,-0.021 -48.713,8.75 -69.896,24.183c-63.404,46.442 -105.954,151.525 -106.113,273.609l0,4325.54c0.038,81.421 19.134,155.209 50.471,209.167c15.675,26.979 34.446,49.025 55.642,64.458c21.183,15.434 44.912,24.204 69.896,24.184l7162.46,-0c24.983,0.02 48.712,-8.75 69.896,-24.184c63.404,-46.437 105.954,-151.546 106.091,-273.625l0,-4325.54c-0.016,-81.405 -19.112,-155.188 -50.45,-209.146c-15.675,-26.979 -34.445,-49.029 -55.641,-64.463c-21.184,-15.433 -44.913,-24.204 -69.896,-24.183l-7162.46,-0Z" style="fill:#2c2a6e;fill-rule:nonzero;"/><path d="M6392.06,3985.71c-25.729,40.45 -23.938,101.059 5.521,181.804c-0,-25.658 0.85,-49.583 2.746,-71.612c1.804,-22.05 2.758,-42.192 2.758,-60.608c-0,-3.63 -3.696,-20.142 -11.025,-49.584Zm-203.833,2550.81c11.02,7.396 20.137,7.396 27.533,-0c7.325,-7.308 11.025,-14.633 11.025,-22.029l-0,-143.246c-0,-11.025 -5.521,-16.529 -16.529,-16.529c-7.396,-0 -16.529,5.504 -27.534,16.529c-3.716,29.425 -5.52,56.979 -5.52,82.637c-0,25.73 3.608,53.284 11.025,82.638Zm-561.963,-677.654c33.054,18.437 69.721,33.075 110.188,44.079c40.383,11.025 73.42,16.529 99.17,16.529c22.03,0 33.055,-14.637 33.055,-44.062c-25.746,-18.35 -47.78,-27.555 -66.113,-27.555c-29.446,0 -57.846,0.938 -85.4,2.763c-27.55,1.875 -57.846,4.633 -90.9,8.246Zm-93.667,-1448.94c11.025,-11.025 18.355,-20.154 22.05,-27.55l176.284,-297.5c3.629,-3.612 4.587,-7.329 2.762,-11.025c-1.891,-3.612 -0.937,-9.117 2.759,-16.529c-33.055,18.421 -53.296,31.25 -60.605,38.579c-7.395,7.396 -16.529,20.225 -27.554,38.558l-121.196,258.938l0,5.504c3.609,3.717 5.5,7.396 5.5,11.025Zm462.796,528.908c3.613,-44.083 5.504,-88.162 5.504,-132.225l0,-132.237c3.613,-47.692 -9.2,-75.242 -38.558,-82.638c-29.446,0 -51.492,16.525 -66.112,49.58c-18.438,29.445 -34.946,58.804 -49.6,88.145c-14.705,29.425 -31.25,58.8 -49.567,88.142c-40.467,73.542 -78.071,147.917 -112.95,223.142c-34.946,75.312 -74.375,147.883 -118.438,217.621c-29.462,47.762 -49.6,99.15 -60.625,154.254c-7.379,55.087 16.546,88.141 71.634,99.166c40.379,7.396 80.746,10.155 121.212,8.263c40.367,-1.804 80.729,-6.354 121.2,-13.767c22.029,-3.608 44.063,-11.025 66.109,-22.05c22.033,-11.021 36.666,-27.55 44.083,-49.579c40.362,-88.146 60.587,-174.396 60.587,-258.925c3.63,-40.383 4.567,-79.879 2.763,-118.454c-1.892,-38.579 -2.763,-77.988 -2.763,-118.438l5.521,0Zm-666.629,247.9c44.063,-40.383 64.2,-84.429 60.588,-132.208c-29.425,33.042 -45.955,55.071 -49.563,66.096c-3.717,11.025 -7.417,33.054 -11.025,66.112Zm699.688,-2038.46c55.104,7.417 108.279,10.158 159.775,8.267c51.387,-1.809 102.775,-6.371 154.25,-13.767c40.383,-7.329 78.004,-7.329 112.954,0c34.841,7.396 72.462,16.525 112.95,27.55c14.616,40.45 22.012,81.771 22.012,123.958c0,42.259 -1.875,85.4 -5.504,129.463c-7.392,44.079 -12.896,87.292 -16.508,129.479c-3.717,42.258 -9.238,85.383 -16.546,129.463c-3.717,22.029 -5.504,44.079 -5.504,66.108l-0,60.608c3.612,66.113 1.787,132.221 -5.5,198.334c-7.417,66.112 -12.938,130.416 -16.546,192.829l-0,121.2c-0,66.112 -0.938,133.175 -2.763,201.091c-1.875,68.004 0.871,136.875 8.284,206.6c7.308,80.834 11.025,159.771 11.025,236.909l-0,396.666c-0,14.704 1.787,31.25 5.5,49.584c14.637,55.087 47.691,88.141 99.166,99.166l33.059,11.025c33.054,11.025 51.387,33.038 55.083,66.109c0,22.033 1.825,45.02 5.504,68.854c3.613,23.941 3.613,46.841 0,68.875c-7.396,62.5 -7.396,123.108 0,181.821c11.025,73.508 -11.004,132.204 -66.091,176.283c-33.059,25.75 -55.105,55.108 -66.13,88.146c-11.025,33.071 -18.404,68.021 -22.033,104.704c-7.392,69.792 -12.896,138.662 -16.508,206.579c-3.717,68.004 -5.521,138.679 -5.521,212.117c-3.717,36.754 -8.263,73.508 -13.783,110.175c-5.505,36.771 -17.484,75.329 -35.8,115.696c-11.025,-0 -22.05,1.908 -33.071,5.52c-11.009,3.713 -23.925,3.713 -38.546,0c-47.775,0 -95.554,1.892 -143.246,5.5c-47.775,3.7 -95.554,9.205 -143.246,16.53c-29.462,3.612 -58.8,-3.609 -88.141,-22.03c-29.463,-18.333 -47.78,-42.187 -55.105,-71.616c-18.42,-62.413 -29.445,-124.825 -33.07,-187.325c-3.684,-29.359 -5.505,-56.909 -5.505,-82.638l0,-143.25c0,-44.062 -1.875,-71.612 -5.504,-82.637c-7.396,-44.079 -18.421,-88.142 -33.058,-132.221c-18.417,-91.771 -73.504,-137.746 -165.275,-137.746c-40.45,-3.608 -81.771,-4.546 -123.958,-2.742c-42.259,1.892 -83.596,2.742 -123.959,2.742l-209.358,0c-62.5,3.7 -122.154,4.654 -179.046,2.779c-56.996,-1.821 -116.65,-0.866 -179.062,2.742c-25.746,-0 -49.584,1.896 -71.613,5.504c-22.05,3.7 -45.975,7.413 -71.633,11.025c-7.396,3.7 -25.729,5.504 -55.088,5.504c-36.754,0 -55.104,-16.529 -55.104,-49.583c0,-69.721 -2.742,-137.742 -8.262,-203.838c-5.505,-66.129 -4.638,-134.045 2.758,-203.837c3.612,-29.375 11.875,-55.104 24.792,-77.15c12.812,-22.033 24.791,-44.063 35.816,-66.096c18.334,-47.708 39.429,-92.725 63.35,-135c23.854,-42.187 48.629,-85.383 74.375,-129.462l137.725,-280.971l44.084,-88.142l374.65,-666.633l121.2,-214.879c55.087,-91.755 104.67,-185.417 148.733,-280.971c29.375,-58.7 57.862,-117.5 85.396,-176.284c27.554,-58.716 55.975,-117.504 85.4,-176.304c11.025,-25.658 23.854,-49.583 38.579,-71.633c14.633,-22.029 25.658,-47.692 33.054,-77.133c11.008,-14.621 33.054,-38.559 66.113,-71.617Z" style="fill:#1e2023;fill-rule:nonzero;"/><path d="M8975.9,4619.25c22.05,0 33.075,-12.813 33.075,-38.558c-3.7,-29.359 -6.458,-58.717 -8.266,-88.142c-1.892,-29.358 -10.171,-58.717 -24.809,-88.146c-14.704,7.396 -22.029,16.529 -22.029,27.538l0,33.054c-3.7,62.5 3.629,113.887 22.029,154.254Zm-253.421,-1013.72c-11.02,-29.358 -19.287,-46.821 -24.791,-52.325c-5.504,-5.521 -17.484,-13.783 -35.813,-24.808c-25.729,-18.333 -42.258,-29.342 -49.587,-33.037c-7.392,-3.63 -22.046,-5.526 -44.059,-5.526c14.634,29.446 33.038,51.48 55.084,66.113c22.033,14.721 44.083,31.25 66.112,49.583l33.054,0Zm-0.191,2797.08c-33.054,22.033 -60.588,49.583 -82.638,82.637c-7.412,7.396 -14.704,14.725 -22.029,22.034c-7.417,7.412 -7.417,18.42 0,33.054c14.617,18.437 34.842,9.221 60.608,-27.55c14.634,-18.317 30.292,-33.909 46.821,-46.825c16.509,-12.813 24.792,-33.904 24.792,-63.35l-27.554,-0Zm-1209.18,-841.388c-3.695,3.696 -9.2,5.504 -16.525,5.504l33.071,181.805c3.613,7.412 6.354,13.766 8.246,19.27c1.825,5.521 6.371,11.979 13.771,19.305c11.021,14.708 23.85,14.708 38.575,-0.001l-77.138,-225.883Zm1099.18,-859.325c-0,-62.412 -5.5,-124.825 -16.525,-187.325c-11.025,-62.412 -22.034,-124.825 -33.038,-187.308c-14.741,-62.413 -33.075,-123.021 -55.104,-181.825c-22.05,-58.696 -51.479,-119.304 -88.146,-181.804c-44.096,-73.421 -97.375,-115.696 -159.791,-126.721c-36.75,-3.609 -72.55,-3.609 -107.43,-0c-34.945,3.716 -67.045,20.246 -96.404,49.587c-7.412,7.413 -12.916,11.021 -16.529,11.021c-117.587,84.533 -192.829,192.829 -225.883,325.054l-49.588,170.796c-3.696,14.708 -6.458,27.554 -8.262,38.563c-1.892,11.025 -2.759,22.029 -2.759,33.054c3.625,29.446 -1.875,51.475 -16.529,66.112c-18.421,22.029 -30.296,45.971 -35.816,71.629c-5.505,25.73 -10.138,53.284 -13.767,82.642c-3.7,84.529 -8.263,167.167 -13.767,247.917c-5.521,80.833 -4.654,163.471 2.759,247.916c3.612,44.063 4.55,89.096 2.745,134.98c-1.875,45.958 0.867,92.779 8.263,140.47c11.025,128.63 34.862,242.413 71.617,341.58c7.325,18.437 11.891,34.966 13.783,49.6c1.804,14.704 6.371,29.445 13.767,44.083c11.025,47.775 24.791,94.6 41.32,140.467c16.525,45.97 37.621,89.095 63.367,129.462c36.667,58.8 99.167,99.183 187.325,121.217c40.367,11.021 78.942,9.216 115.696,-5.488c62.412,-29.375 116.546,-66.996 162.517,-112.95c45.887,-45.887 79.895,-101.929 101.912,-168.041c7.325,-22.046 14.65,-44.079 22.046,-66.125c7.329,-22.017 14.637,-42.171 22.033,-60.592c7.325,-29.358 13.767,-55.954 19.288,-79.879c5.504,-23.838 8.262,-50.45 8.262,-79.896l22.05,-132.221c7.309,-33.058 14.634,-66.979 22.029,-101.912c7.313,-34.88 12.83,-68.871 16.513,-101.925c7.325,-73.438 14.654,-148.767 22.046,-225.888c7.329,-77.133 7.329,-154.254 -0,-231.387c-3.696,-14.634 -5.5,-28.421 -5.5,-41.321l-0,-35.813c-0,-22.05 0.85,-44.933 2.758,-68.875c1.788,-23.833 2.742,-46.82 2.742,-68.854Zm-1162.46,-738.262c-18.437,51.491 -35.816,102.883 -52.346,154.271c-16.525,51.474 -34.008,102.866 -52.325,154.254c-7.412,18.42 -11.025,37.708 -11.025,57.845c0,20.225 -1.891,39.517 -5.504,57.85l0,13.784c0,5.504 5.504,10.154 16.529,13.766c18.317,-55.104 34.863,-109.237 49.567,-162.533c14.633,-53.196 31.163,-105.541 49.6,-156.996c7.308,-22.05 12.813,-43.145 16.529,-63.37c3.609,-20.138 7.309,-41.317 11.025,-63.351c0,-14.633 -1.912,-25.658 -5.521,-33.075l-16.529,27.555Zm-391.162,1151.46c-7.329,-62.413 -9.134,-122.067 -5.521,-179.046c3.608,-56.908 7.325,-114.754 11.021,-173.558c7.312,-77.117 17.4,-154.254 30.296,-231.388c12.833,-77.137 24.791,-154.254 35.816,-231.391c3.629,-47.692 14.638,-97.271 33.054,-148.75c25.663,-88.159 55.959,-174.409 90.905,-258.938c34.862,-84.446 78.004,-165.279 129.462,-242.417c22.05,-33.054 42.188,-66.108 60.625,-99.166c18.317,-33.054 42.171,-64.217 71.617,-93.663c69.721,-69.721 146.854,-141.354 231.387,-214.862l88.159,-44.079c55.087,-18.334 111.025,-31.146 168.037,-38.559c56.896,-7.325 114.742,-14.633 173.542,-22.029c55.087,0 99.166,7.396 132.225,22.029c51.387,18.421 100.971,37.709 148.733,57.85c47.688,20.225 93.679,46.821 137.742,79.875c58.712,44.079 114.758,90.055 168.037,137.746c53.196,47.775 96.409,104.671 129.479,170.779c14.617,29.446 30.296,55.104 46.825,77.138c16.525,22.029 32.1,47.775 46.821,77.133c29.375,58.783 51.388,118.438 66.129,179.046c14.617,60.608 29.338,122.154 44.063,184.567c29.358,143.246 51.387,284.671 66.112,424.216c11.021,106.584 21.092,212.121 30.292,316.809c9.133,104.671 13.771,210.291 13.771,316.771c-0,62.5 -7.379,121.212 -22.017,176.283l-55.104,330.554c-29.442,165.296 -73.504,326.963 -132.221,484.829c-3.7,14.738 -7.412,27.55 -11.025,38.575c-3.696,11.025 -9.2,23.942 -16.529,38.575c-14.721,47.779 -30.292,95.559 -46.821,143.246c-16.529,47.779 -37.708,97.346 -63.366,148.733c-7.4,11.025 -13.771,22.05 -19.275,33.059c-5.5,11.025 -11.98,20.225 -19.288,27.55l-176.3,187.308c-18.421,18.438 -31.25,29.462 -38.558,33.075c-40.454,40.45 -84.55,67.05 -132.242,79.879c-47.775,12.9 -97.342,22.984 -148.733,30.292l-192.829,16.529c-77.134,7.329 -154.271,-3.608 -231.405,-33.054c-106.562,-36.667 -200.225,-91.754 -280.975,-165.263l-115.691,-99.183c-51.479,-40.379 -93.667,-84.463 -126.721,-132.221c-33.038,-47.691 -62.5,-99.167 -88.142,-154.254c-40.45,-91.771 -73.525,-184.567 -99.166,-278.229c-25.73,-93.663 -49.584,-190.071 -71.634,-289.254c-18.421,-95.45 -31.25,-190.05 -38.558,-283.734c-7.396,-93.646 -14.704,-188.158 -22.029,-283.712c-3.7,-18.333 -4.654,-37.625 -2.763,-57.85c1.804,-20.154 2.763,-39.425 2.763,-57.846Z" style="fill:#e44633;fill-rule:nonzero;"/><path d="M11273.3,3985.71c-25.729,40.45 -23.925,101.059 5.521,181.804c0,-25.658 0.867,-49.583 2.742,-71.612c1.825,-22.05 2.762,-42.192 2.762,-60.608c0,-3.63 -3.7,-20.142 -11.025,-49.584Zm-203.837,2550.81c11.025,7.396 20.137,7.396 27.533,-0c7.329,-7.308 11.025,-14.633 11.025,-22.029l0,-143.246c0,-11.025 -5.504,-16.529 -16.529,-16.529c-7.392,-0 -16.508,5.504 -27.533,16.529c-3.717,29.425 -5.521,56.979 -5.521,82.637c-0,25.73 3.612,53.284 11.025,82.638Zm-561.963,-677.654c33.054,18.437 69.742,33.075 110.192,44.079c40.383,11.025 73.421,16.529 99.183,16.529c22.013,0 33.038,-14.637 33.038,-44.062c-25.729,-18.35 -47.775,-27.555 -66.109,-27.555c-29.445,0 -57.85,0.938 -85.4,2.763c-27.533,1.875 -57.85,4.633 -90.904,8.246Zm-93.646,-1448.94c11.009,-11.025 18.334,-20.154 22.034,-27.55l176.283,-297.5c3.629,-3.612 4.583,-7.329 2.779,-11.025c-1.912,-3.612 -0.954,-9.117 2.742,-16.529c-33.054,18.421 -53.3,31.25 -60.592,38.579c-7.412,7.396 -16.546,20.225 -27.55,38.558l-121.216,258.938l-0,5.504c3.612,3.717 5.52,7.396 5.52,11.025Zm462.78,528.908c3.612,-44.083 5.504,-88.162 5.504,-132.225l-0,-132.237c3.608,-47.692 -9.204,-75.242 -38.542,-82.638c-29.462,0 -51.496,16.525 -66.129,49.58c-18.438,29.445 -34.95,58.804 -49.6,88.145c-14.708,29.425 -31.233,58.8 -49.567,88.142c-40.471,73.542 -78.075,147.917 -112.95,223.142c-34.95,75.312 -74.375,147.883 -118.441,217.621c-29.442,47.762 -49.6,99.15 -60.605,154.254c-7.395,55.087 16.525,88.141 71.63,99.166c40.366,7.396 80.729,10.155 121.2,8.263c40.362,-1.804 80.729,-6.354 121.216,-13.767c22.013,-3.608 44.059,-11.025 66.092,-22.05c22.05,-11.021 36.667,-27.55 44.079,-49.579c40.367,-88.146 60.592,-174.396 60.592,-258.925c3.629,-40.383 4.566,-79.879 2.775,-118.454c-1.909,-38.579 -2.775,-77.988 -2.775,-118.438l5.521,0Zm-666.634,247.9c44.063,-40.383 64.221,-84.429 60.609,-132.208c-29.446,33.042 -45.971,55.071 -49.584,66.096c-3.716,11.025 -7.412,33.054 -11.025,66.112Zm699.688,-2038.46c55.104,7.417 108.283,10.158 159.775,8.267c51.387,-1.809 102.779,-6.371 154.254,-13.767c40.379,-7.329 78.004,-7.329 112.95,0c34.862,7.396 72.483,16.525 112.95,27.55c14.637,40.45 22.017,81.771 22.017,123.958c-0,42.259 -1.875,85.4 -5.505,129.463c-7.395,44.079 -12.9,87.292 -16.512,129.479c-3.713,42.258 -9.233,85.383 -16.525,129.463c-3.717,22.029 -5.521,44.079 -5.521,66.108l0,60.608c3.613,66.113 1.804,132.221 -5.504,198.334c-7.413,66.112 -12.917,130.416 -16.529,192.829l-0,121.2c-0,66.112 -0.954,133.175 -2.775,201.091c-1.875,68.004 0.866,136.875 8.279,206.6c7.308,80.834 11.025,159.771 11.025,236.909l-0,396.666c-0,14.704 1.787,31.25 5.504,49.584c14.633,55.087 47.692,88.141 99.167,99.166l33.054,11.025c33.054,11.025 51.392,33.038 55.087,66.109c0,22.033 1.821,45.02 5.521,68.854c3.613,23.941 3.613,46.841 0,68.875c-7.412,62.5 -7.412,123.108 0,181.821c11.009,73.508 -11.025,132.204 -66.112,176.283c-33.054,25.75 -55.104,55.108 -66.125,88.146c-11.009,33.071 -18.404,68.021 -22.034,104.704c-7.395,69.792 -12.9,138.662 -16.512,206.579c-3.713,68.004 -5.521,138.679 -5.521,212.117c-3.712,36.754 -8.262,73.508 -13.783,110.175c-5.504,36.771 -17.467,75.329 -35.796,115.696c-11.025,-0 -22.05,1.908 -33.058,5.52c-11.025,3.713 -23.925,3.713 -38.559,0c-47.779,0 -95.554,1.892 -143.246,5.5c-47.779,3.7 -95.554,9.205 -143.245,16.53c-29.446,3.612 -58.805,-3.609 -88.146,-22.03c-29.442,-18.333 -47.775,-42.187 -55.1,-71.616c-18.421,-62.413 -29.429,-124.825 -33.059,-187.325c-3.695,-29.359 -5.52,-56.909 -5.52,-82.638l-0,-143.25c-0,-44.062 -1.875,-71.612 -5.505,-82.637c-7.395,-44.079 -18.42,-88.142 -33.037,-132.221c-18.438,-91.771 -73.525,-137.746 -165.296,-137.746c-40.45,-3.608 -81.771,-4.546 -123.958,-2.742c-42.254,1.892 -83.592,2.742 -123.959,2.742l-209.354,0c-62.483,3.7 -122.154,4.654 -179.046,2.779c-56.979,-1.821 -116.65,-0.866 -179.062,2.742c-25.729,-0 -49.583,1.896 -71.633,5.504c-22.013,3.7 -45.955,7.413 -71.617,11.025c-7.392,3.7 -25.729,5.504 -55.1,5.504c-36.754,0 -55.071,-16.529 -55.071,-49.583c0,-69.721 -2.779,-137.742 -8.283,-203.838c-5.5,-66.129 -4.65,-134.045 2.762,-203.837c3.609,-29.375 11.892,-55.104 24.792,-77.15c12.829,-22.033 24.808,-44.063 35.8,-66.096c18.35,-47.708 39.442,-92.725 63.367,-135c23.854,-42.187 48.645,-85.383 74.375,-129.462l137.741,-280.971l44.079,-88.142l374.638,-666.633l121.196,-214.879c55.087,-91.755 104.687,-185.417 148.75,-280.971c29.358,-58.7 57.866,-117.5 85.4,-176.284c27.537,-58.716 55.954,-117.504 85.4,-176.304c11.008,-25.658 23.854,-49.583 38.558,-71.633c14.638,-22.029 25.658,-47.692 33.075,-77.133c10.988,-14.621 33.038,-38.559 66.092,-71.617Z" style="fill:#1e2023;fill-rule:nonzero;"/><path d="M8204.35,9728.75l-92.988,0c-42.55,0 -77.046,-34.496 -77.046,-77.046l0,-263.004l170.034,0l68.316,250.571c10.313,37.746 -11.946,76.683 -49.687,86.979c-6.059,1.667 -12.342,2.5 -18.629,2.5Z" style="fill:#ae0c17;fill-rule:nonzero;"/><path d="M7773.1,7173.79c-0,-0 -189.325,658.558 -197.571,946.683c-8.229,288.104 -41.163,749.096 -16.459,864.337c24.688,115.263 98.771,345.746 98.771,345.746c0,0 156.421,-189.32 214.042,-82.308c-0,0 -8.229,-222.275 -49.392,-288.125c0,0 16.459,-345.746 16.459,-469.217c-0,-123.491 205.8,-691.495 222.275,-699.725c16.458,-8.245 65.85,156.409 24.687,518.613c-41.162,362.225 -74.079,996.25 -74.079,1062.1c-0,65.854 98.783,197.571 164.617,156.408c65.866,-41.146 107.033,-395.312 107.033,-395.312c-0,-0 57.621,-740.888 90.537,-823.196c32.95,-82.308 205.817,-1028.99 74.096,-1103.09c-131.7,-74.079 -675.016,-32.912 -675.016,-32.912Z" style="fill:#b47808;fill-rule:nonzero;"/><path d="M7913.02,9314.12c-8.229,32.912 -41.162,189.321 -41.162,238.729c-0,49.375 32.933,139.933 -107.029,172.867c-136.305,32.117 -116.371,-53.021 -138.125,-103.075l-1.805,-3.942c-24.691,-49.391 32.917,-304.579 41.163,-304.579c4.825,0 43.767,-65.367 75.067,-119.271c23.925,-42 77.379,-56.65 119.375,-32.708c5.954,3.383 11.495,7.462 16.495,12.15c26.25,25.433 41.025,60.471 40.884,97.012c0.262,14.43 -1.388,28.805 -4.863,42.817Z" style="fill:#ae0c17;fill-rule:nonzero;"/><path d="M7712.85,9732.75c-79.221,0 -67.692,-67.671 -86.13,-110.121c23.646,-61.404 81.005,-193.35 121.667,-308.521c18.646,-52.833 51.404,-69.291 84.946,-69.291c31.042,-0 62.762,14.079 84.567,26.475c0.016,0.904 0.016,1.808 0.037,2.712c0,13.504 -1.65,26.979 -4.9,40.104c-8.229,32.913 -41.162,189.321 -41.162,238.729c-0,15.817 3.37,35.855 3.37,56.875c-0.02,44.605 -15.262,93.613 -110.4,115.992c-20.695,4.879 -37.812,7.046 -51.995,7.046Z" style="fill:#251d18;fill-rule:nonzero;"/><path d="M8151.77,5552.08c95.471,0 172.867,77.396 172.867,172.867c-0,95.467 -77.396,172.879 -172.867,172.879c-95.466,0 -172.879,-77.412 -172.879,-172.879c0,-95.471 77.413,-172.867 172.879,-172.867Z" style="fill:#f9bebf;fill-rule:nonzero;"/><path d="M8011.81,5757.92l-24.704,271.65l296.354,49.391c-0,0 -32.938,-238.716 -8.229,-288.125c24.704,-49.375 -263.421,-32.916 -263.421,-32.916Z" style="fill:#f9bebf;fill-rule:nonzero;"/><path d="M8242.31,5971.92c-0,-0 -246.942,-24.688 -263.417,-0c-10.75,20.291 -16.408,42.896 -16.479,65.866c0,0 -98.767,41.146 -115.225,24.688c-16.475,-16.459 -32.933,-65.85 -82.325,-49.392c-49.392,16.458 -148.179,312.829 -148.179,312.829c-0,0 24.692,-90.558 65.854,255.171c41.163,345.75 32.933,559.775 41.163,584.483c8.229,24.688 -41.163,172.863 255.191,172.863c296.354,-0 510.379,-16.458 510.379,-74.096c0,-57.625 -49.391,-304.583 0,-485.679c49.392,-181.113 123.475,-428.054 123.475,-428.054l-98.77,-321.059c-0,0 -98.784,-24.687 -123.488,16.475c-24.687,41.163 -90.554,32.917 -90.554,32.917c-0,0 -8.229,-98.767 -57.625,-107.012Z" style="fill:#1e2023;fill-rule:nonzero;"/><path d="M7773.1,6029.54l-205.8,-90.538c-0,0 -386.909,-296.354 -370.434,-559.796c0,0 -131.716,-123.471 -139.946,8.25c-8.229,131.717 32.934,428.054 131.717,526.859c98.788,98.766 436.288,411.595 485.679,419.808c49.392,8.246 98.784,-304.583 98.784,-304.583Z" style="fill:#1e2023;fill-rule:nonzero;"/><path d="M7073.35,5403.92c-0,-0 -156.392,-428.059 -16.459,-411.6c139.946,16.458 107.013,197.57 107.013,197.57l-0,214.03l-90.554,-0Z" style="fill:#f9bebf;fill-rule:nonzero;"/><path d="M8481.02,6046.04l205.817,-90.555c-0,0.001 386.892,-296.354 370.433,-559.774c0,-0 131.721,-123.492 139.929,8.229c8.25,131.716 -32.916,428.07 -131.7,526.858c-98.783,98.767 -436.283,411.596 -485.675,419.825c-49.395,8.229 -98.804,-304.583 -98.804,-304.583Z" style="fill:#1e2023;fill-rule:nonzero;"/><path d="M9180.73,5420.42c-0,-0 156.425,-428.075 16.458,-411.617c-139.929,16.475 -107.013,197.571 -107.013,197.571l0,214.046l90.555,-0Z" style="fill:#f9bebf;fill-rule:nonzero;"/><path d="M8283.48,5519.17l24.687,-16.459c0,0 -156.392,-90.554 -222.258,-41.162c-65.85,49.375 -82.325,90.537 -98.784,107.012c-16.458,16.459 -57.625,107.017 -32.916,139.934c24.687,32.933 16.458,39.671 32.916,69.233c16.459,29.567 -28.75,148.438 96.755,183.662c125.516,35.23 224.287,-112.95 240.762,-145.883c16.458,-32.917 74.079,-255.192 -41.162,-296.337Z" style="fill:#5b4546;fill-rule:nonzero;"/><path d="M4219.35,9740.08l7880.92,0l0,-22.483l-7880.92,-0" style="fill:#2c2a6e;fill-rule:nonzero;"/><path d="M11588.8,8835c-40.712,29.617 -229.046,176.317 -288.075,394.583c-59.096,218.421 29.634,439.913 49.863,485.988c40.691,-29.617 229.046,-176.317 288.071,-394.583c59.1,-218.4 -29.634,-439.913 -49.859,-485.988Zm-244.708,904.633l-4.063,-8.316c-1.233,-2.517 -122.483,-256.021 -54.879,-505.934c67.625,-249.95 300.125,-407.745 302.467,-409.308l7.675,-5.138l4.062,8.317c1.234,2.534 122.484,256.025 54.88,505.971c-67.625,249.913 -300.121,407.708 -302.467,409.271l-7.675,5.137Z" style="fill:#2c2a6e;fill-rule:nonzero;"/><path d="M11031.4,9323.08c67.588,249.913 299.15,404.688 299.15,404.688c0,-0 121.979,-250.417 54.359,-500.313c-67.588,-249.916 -299.167,-404.687 -299.167,-404.687c-0,-0 -121.963,250.396 -54.342,500.312Z" style="fill:#e44633;fill-rule:nonzero;"/><path d="M10676.2,9082.42c6.075,49.966 42.708,285.887 204.721,443.579c161.996,157.725 398.804,187.983 448.908,192.725c-6.079,-49.967 -42.708,-285.85 -204.725,-443.559c-162.117,-157.85 -398.8,-188.004 -448.904,-192.745Zm671.508,653.683l-9.254,-0.504c-2.792,-0.142 -283.262,-17.429 -468.8,-198.038c-185.521,-180.591 -210.346,-460.487 -210.554,-463.316l-0.767,-9.204l9.238,0.504c2.812,0.158 283.262,17.433 468.8,198.058c185.525,180.604 210.35,460.483 210.591,463.296l0.746,9.204Z" style="fill:#2c2a6e;fill-rule:nonzero;"/><path d="M11547.1,9269.38c-185.521,180.575 -208.175,458.179 -208.175,458.179c-0,0 278.108,-15.192 463.629,-195.766c185.504,-180.588 208.158,-458.192 208.158,-458.192c0,-0 -278.108,15.171 -463.612,195.779Z" style="fill:#e44633;fill-rule:nonzero;"/><path d="M11335,8539.58c66.821,0 120.988,54.167 120.988,120.971c-0,66.825 -54.167,120.992 -120.988,120.992c-66.825,-0 -120.975,-54.167 -120.975,-120.992c0,-66.804 54.15,-120.971 120.975,-120.971Z" style="fill:#e44633;fill-rule:nonzero;"/><path d="M5542.15,6514.88l-24.912,0c-0.017,13.438 -10.904,24.321 -24.359,24.337c-13.437,-0.016 -24.32,-10.9 -24.358,-24.337c0.038,-13.475 10.921,-24.358 24.358,-24.375c13.455,0.017 24.342,10.9 24.359,24.375l24.912,0c-0.016,-27.242 -22.046,-49.292 -49.271,-49.292c-27.204,0 -49.254,22.05 -49.254,49.292c0,27.204 22.05,49.233 49.254,49.25c27.225,-0.017 49.255,-22.046 49.271,-49.25Z" style="fill:#abbadf;fill-rule:nonzero;"/><path d="M11625.3,4656.08l-24.896,0c-0.033,13.459 -10.92,24.342 -24.375,24.359c-13.437,-0.017 -24.32,-10.9 -24.358,-24.359c0.038,-13.454 10.904,-24.337 24.358,-24.358c13.475,0.021 24.342,10.904 24.375,24.358l24.896,0c0,-27.22 -22.046,-49.271 -49.271,-49.271c-27.204,0.021 -49.254,22.05 -49.27,49.271c0.016,27.204 22.05,49.254 49.27,49.271c27.225,0 49.271,-22.066 49.271,-49.271Z" style="fill:#abbadf;fill-rule:nonzero;"/><path d="M9783.31,4107.21l-24.913,0c-0.016,13.454 -10.92,24.342 -24.375,24.375c-13.437,-0.033 -24.325,-10.921 -24.341,-24.375c0.016,-13.437 10.904,-24.337 24.341,-24.354c13.455,0.017 24.359,10.917 24.375,24.354l24.913,0c-0.017,-27.204 -22.067,-49.254 -49.288,-49.271c-27.204,0.017 -49.254,22.067 -49.254,49.271c0,27.225 22.05,49.271 49.254,49.271c27.221,0 49.271,-22.046 49.288,-49.271Z" style="fill:#abbadf;fill-rule:nonzero;"/><path d="M7059.48,3310.88l-24.913,0c-0.017,13.433 -10.9,24.337 -24.337,24.354c-13.475,-0.016 -24.359,-10.921 -24.375,-24.354c0.016,-13.458 10.9,-24.342 24.375,-24.375c13.437,0.033 24.32,10.917 24.337,24.375l24.913,0c-0,-27.225 -22.046,-49.275 -49.25,-49.275c-27.225,-0 -49.271,22.05 -49.288,49.275c0.017,27.204 22.046,49.25 49.288,49.267c27.204,-0.017 49.25,-22.063 49.25,-49.267Z" style="fill:#abbadf;fill-rule:nonzero;"/><path d="M7118.65,6821.67l0,114.012c0,6.875 5.575,12.446 12.467,12.446c6.875,0 12.45,-5.571 12.45,-12.446l-0,-114.012c-0,-6.875 -5.575,-12.446 -12.45,-12.446c-6.892,-0 -12.467,5.571 -12.467,12.446Z" style="fill:#abbadf;fill-rule:nonzero;"/><path d="M7188.1,6866.25l-114.025,0c-6.875,0 -12.45,5.571 -12.45,12.463c-0,6.879 5.575,12.45 12.45,12.45l114.025,-0c6.875,-0 12.45,-5.571 12.45,-12.45c-0,-6.892 -5.575,-12.463 -12.45,-12.463Z" style="fill:#abbadf;fill-rule:nonzero;"/><path d="M8981.94,2882l-0,113.996c-0,6.891 5.587,12.462 12.462,12.462c6.875,0 12.45,-5.571 12.45,-12.462l0,-113.996c0,-6.892 -5.575,-12.462 -12.45,-12.462c-6.875,-0 -12.462,5.57 -12.462,12.462Z" style="fill:#abbadf;fill-rule:nonzero;"/><path d="M9051.4,2926.54l-113.996,-0c-6.891,-0 -12.462,5.587 -12.462,12.462c-0,6.875 5.571,12.45 12.462,12.45l113.996,0c6.875,0 12.446,-5.575 12.446,-12.45c0,-6.875 -5.571,-12.462 -12.446,-12.462Z" style="fill:#abbadf;fill-rule:nonzero;"/><path d="M4781.1,4050.21l-0,114.013c-0,6.875 5.575,12.446 12.45,12.446c6.891,-0 12.462,-5.571 12.462,-12.446l0,-114.013c0,-6.891 -5.571,-12.466 -12.462,-12.466c-6.875,-0 -12.45,5.575 -12.45,12.466Z" style="fill:#abbadf;fill-rule:nonzero;"/><path d="M4850.6,4094.79l-114.013,-0c-6.875,-0 -12.446,5.571 -12.446,12.446c0,6.875 5.571,12.466 12.446,12.466l114.013,0c6.875,0 12.445,-5.592 12.445,-12.467c0,-6.875 -5.57,-12.445 -12.445,-12.445Z" style="fill:#abbadf;fill-rule:nonzero;"/><path d="M10470.1,6641.08l-0,113.992c-0,6.892 5.571,12.467 12.467,12.467c6.875,-0 12.445,-5.575 12.445,-12.467l0,-113.992c0,-6.879 -5.57,-12.45 -12.445,-12.45c-6.896,0 -12.467,5.571 -12.467,12.45Z" style="fill:#abbadf;fill-rule:nonzero;"/><path d="M10539.5,6685.62l-114.012,0c-6.875,0 -12.446,5.575 -12.446,12.45c-0,6.875 5.571,12.463 12.446,12.463l114.012,-0c6.875,-0 12.446,-5.588 12.446,-12.463c0,-6.875 -5.571,-12.45 -12.446,-12.45Z" style="fill:#abbadf;fill-rule:nonzero;"/><path d="M9953.85,3315.58c-0,8.475 -6.859,15.35 -15.33,15.35c-8.487,0 -15.345,-6.875 -15.345,-15.329c-0.017,-8.492 6.858,-15.367 15.329,-15.367c8.471,0 15.329,6.875 15.346,15.346Z" style="fill:#fff;fill-rule:nonzero;"/></g></g></g></svg>