<?xml version="1.0" encoding="UTF-8" standalone="no"?><!DOCTYPE svg PUBLIC "-//W3C//DTD SVG 1.1//EN" "http://www.w3.org/Graphics/SVG/1.1/DTD/svg11.dtd"><svg width="100%" height="100%" viewBox="0 0 405 325" version="1.1" xmlns="http://www.w3.org/2000/svg" xmlns:xlink="http://www.w3.org/1999/xlink" xml:space="preserve" xmlns:serif="http://www.serif.com/" style="fill-rule:evenodd;clip-rule:evenodd;stroke-linecap:round;stroke-linejoin:round;stroke-miterlimit:1.5;"><g id="bussinesscard"><g id="vizitka"><path d="M388.021,42.696l-0,237.4c-0,16.379 -13.296,29.675 -29.675,29.675l-315.65,-0c-16.379,-0 -29.675,-13.296 -29.675,-29.675l-0,-237.4c-0,-16.379 13.296,-29.675 29.675,-29.675l315.65,-0c16.379,-0 29.675,13.296 29.675,29.675Z" style="fill:none;stroke:#fff;stroke-width:26.04px;"/></g><g><path d="M56.35,113.733l50.267,0" style="fill:none;stroke:#fff;stroke-width:26.04px;"/><path d="M156.879,113.733l50.263,0" style="fill:none;stroke:#fff;stroke-width:26.04px;"/><path d="M56.35,149.696l150.792,-0" style="fill:none;stroke:#fff;stroke-width:26.04px;"/><path d="M56.35,191.45l40.983,0" style="fill:none;stroke:#fff;stroke-width:26.04px;"/><path d="M140.121,191.45l67.021,0" style="fill:none;stroke:#fff;stroke-width:26.04px;"/></g><g><g><path d="M267.154,243.458l67.021,0" style="fill:none;stroke:#fff;stroke-width:26.04px;"/><path d="M267.154,243.458l0,-32.558" style="fill:none;stroke:#fff;stroke-width:26.04px;"/></g><g><path d="M339.242,178.338l-67.021,-0" style="fill:none;stroke:#fff;stroke-width:26.04px;"/><path d="M339.242,178.338l-0,32.562" style="fill:none;stroke:#fff;stroke-width:26.04px;"/></g></g><circle cx="305.733" cy="89.217" r="9.504" style="fill:none;stroke:#fff;stroke-width:26.04px;"/></g></svg>