<?xml version="1.0" encoding="UTF-8" standalone="no"?><!DOCTYPE svg PUBLIC "-//W3C//DTD SVG 1.1//EN" "http://www.w3.org/Graphics/SVG/1.1/DTD/svg11.dtd"><svg width="100%" height="100%" viewBox="0 0 97 78" version="1.1" xmlns="http://www.w3.org/2000/svg" xmlns:xlink="http://www.w3.org/1999/xlink" xml:space="preserve" xmlns:serif="http://www.serif.com/" style="fill-rule:evenodd;clip-rule:evenodd;stroke-linecap:round;stroke-linejoin:round;stroke-miterlimit:1.5;"><g id="bussinesscard"><g id="vizitka"><path d="M93.125,10.247l0,56.976c0,3.931 -3.191,7.122 -7.122,7.122l-75.756,-0c-3.931,-0 -7.122,-3.191 -7.122,-7.122l0,-56.976c0,-3.931 3.191,-7.122 7.122,-7.122l75.756,0c3.931,0 7.122,3.191 7.122,7.122Z" style="fill:none;stroke:#231f20;stroke-width:6.25px;"/></g><g><path d="M13.524,27.296l12.064,-0" style="fill:none;stroke:#000;stroke-width:6.25px;"/><path d="M37.651,27.296l12.063,-0" style="fill:none;stroke:#000;stroke-width:6.25px;"/><path d="M13.524,35.927l36.19,-0" style="fill:none;stroke:#000;stroke-width:6.25px;"/><path d="M13.524,45.948l9.836,0" style="fill:none;stroke:#000;stroke-width:6.25px;"/><path d="M33.629,45.948l16.085,0" style="fill:none;stroke:#000;stroke-width:6.25px;"/></g><g><g><path d="M64.117,58.43l16.085,0" style="fill:none;stroke:#000;stroke-width:6.25px;"/><path d="M64.117,58.43l-0,-7.814" style="fill:none;stroke:#000;stroke-width:6.25px;"/></g><g><path d="M81.418,42.801l-16.085,0" style="fill:none;stroke:#000;stroke-width:6.25px;"/><path d="M81.418,42.801l0,7.815" style="fill:none;stroke:#000;stroke-width:6.25px;"/></g></g><circle cx="73.376" cy="21.412" r="2.281" style="fill:none;stroke:#000;stroke-width:6.25px;"/></g></svg>