<?xml version="1.0" encoding="UTF-8" standalone="no"?><!DOCTYPE svg PUBLIC "-//W3C//DTD SVG 1.1//EN" "http://www.w3.org/Graphics/SVG/1.1/DTD/svg11.dtd"><svg width="100%" height="100%" viewBox="0 0 405 421" version="1.1" xmlns="http://www.w3.org/2000/svg" xmlns:xlink="http://www.w3.org/1999/xlink" xml:space="preserve" xmlns:serif="http://www.serif.com/" style="fill-rule:evenodd;clip-rule:evenodd;stroke-linecap:round;stroke-linejoin:round;stroke-miterlimit:1.5;"><g id="createlogo"><path d="M208.829,404.642c-108.071,-0 -195.808,-87.742 -195.808,-195.813c-0,-108.071 87.737,-195.808 195.808,-195.808" style="fill:none;stroke:#fff;stroke-width:26.04px;"/><path d="M343.2,190.867c4.108,11.225 6.354,23.346 6.354,35.983c0,57.808 -46.933,104.742 -104.741,104.742c-12.638,-0 -24.759,-2.246 -35.984,-6.359" style="fill:none;stroke:#fff;stroke-width:26.04px;"/><g id="pen"><path d="M378.038,45.017c17.262,17.262 11.57,50.987 -12.705,75.262l-146.608,146.613c-24.275,24.275 -103.121,40.558 -103.121,40.558c0,0 16.283,-78.846 40.558,-103.121l146.609,-146.612c24.275,-24.275 58,-29.967 75.266,-12.7Z" style="fill:none;stroke:#fff;stroke-width:26.04px;"/><path d="M297.588,62.904l62.562,62.563" style="fill:none;stroke:#fff;stroke-width:26.04px;"/></g></g></svg>