<?xml version="1.0" encoding="UTF-8" standalone="no"?><!DOCTYPE svg PUBLIC "-//W3C//DTD SVG 1.1//EN" "http://www.w3.org/Graphics/SVG/1.1/DTD/svg11.dtd"><svg width="100%" height="100%" viewBox="0 0 97 101" version="1.1" xmlns="http://www.w3.org/2000/svg" xmlns:xlink="http://www.w3.org/1999/xlink" xml:space="preserve" xmlns:serif="http://www.serif.com/" style="fill-rule:evenodd;clip-rule:evenodd;stroke-linecap:round;stroke-linejoin:round;stroke-miterlimit:1.5;"><g id="createlogo"><path d="M50.119,97.114c-25.937,-0 -46.994,-21.058 -46.994,-46.995c0,-25.937 21.057,-46.994 46.994,-46.994" style="fill:none;stroke:#000;stroke-width:6.25px;"/><path d="M82.368,45.808c0.986,2.694 1.525,5.603 1.525,8.636c-0,13.874 -11.264,25.138 -25.138,25.138c-3.033,-0 -5.942,-0.539 -8.636,-1.526" style="fill:none;stroke:#000;stroke-width:6.25px;"/><g id="pen"><path d="M90.729,10.804c4.143,4.143 2.777,12.237 -3.049,18.063l-35.186,35.187c-5.826,5.826 -24.749,9.734 -24.749,9.734c-0,-0 3.908,-18.923 9.734,-24.749l35.186,-35.187c5.826,-5.826 13.92,-7.192 18.064,-3.048Z" style="fill:none;stroke:#000;stroke-width:6.25px;"/><path d="M71.421,15.097l15.015,15.015" style="fill:none;stroke:#000;stroke-width:6.25px;"/></g></g></svg>