<?xml version="1.0" encoding="UTF-8" standalone="no"?><!DOCTYPE svg PUBLIC "-//W3C//DTD SVG 1.1//EN" "http://www.w3.org/Graphics/SVG/1.1/DTD/svg11.dtd"><svg width="100%" height="100%" viewBox="0 0 5909 5117" version="1.1" xmlns="http://www.w3.org/2000/svg" xmlns:xlink="http://www.w3.org/1999/xlink" xml:space="preserve" xmlns:serif="http://www.serif.com/" style="fill-rule:evenodd;clip-rule:evenodd;stroke-linejoin:round;stroke-miterlimit:2;"><g id="logo"><g><g><path d="M4105.17,1815.96l-741.954,741.95c-0,-0 -100.325,-100.325 -196.13,-196.13c-94.604,-94.604 -94.604,-247.987 0.001,-342.591c311.324,-311.321 938.083,-938.084 938.083,-938.084c-0,0 626.758,626.763 938.079,938.084c94.604,94.604 94.604,247.987 0,342.591c-95.8,95.805 -196.129,196.13 -196.129,196.13l-741.95,-741.95Z" style="fill:#fff;"/><path d="M2838.97,3733.52l-741.95,-741.95c0,-0 -100.329,100.325 -196.129,196.129c-94.608,94.604 -94.608,247.987 -0,342.592c311.321,311.32 938.079,938.083 938.079,938.083c0,-0 626.758,-626.763 938.083,-938.083c94.605,-94.605 94.605,-247.988 0,-342.592c-95.804,-95.804 -196.129,-196.129 -196.129,-196.129l-741.954,741.95Z" style="fill:#fff;"/></g></g><path d="M459.446,602.513l1233.41,-0l-1233.41,-0Z" style="fill:#454545;"/><g><g><g><path d="M2367.58,5113.08l-4.433,-0.57l-678.546,-405.196l-0,-4103.93l-1235.35,0l-449.246,-603.387l3542.53,-0c180.471,2.037 339.821,9.55 478.038,22.546c2.654,0.25 5.3,0.5 7.937,0.754l-434.275,581.638c-25.446,-0.684 -51.416,-1.201 -77.908,-1.551c-28.442,-0.379 -57.488,-0.57 -87.129,-0.57l-1061.62,-0l0,4510.27Z" style="fill:#4c4c4c;"/><path d="M2367.58,5113.08l-4.433,-0.57l-678.546,-405.196l-0,-4103.93l-1235.35,0l-449.246,-603.387l3542.53,-0c180.471,2.037 339.821,9.55 478.038,22.546c2.654,0.25 5.3,0.5 7.937,0.754l-434.275,581.638c-25.446,-0.684 -51.416,-1.201 -77.908,-1.551c-28.442,-0.379 -57.488,-0.57 -87.129,-0.57l-1061.62,-0l0,4510.27Z" style="fill:#4c4c4c;"/></g><g><path d="M4028.5,23.867c124.5,11.962 231.65,28.421 321.459,49.375c292.975,67.433 542.933,189.504 749.87,366.216c269.725,227.871 471.434,519.1 605.134,873.692c31.716,84.125 59.675,171.1 83.87,260.921c77.784,288.766 116.676,606.954 116.676,954.567c-0.001,388.308 -45.342,732.433 -136.025,1032.38c-14.655,48.467 -29.976,95.587 -45.963,141.354c-82.958,237.463 -183.896,438.558 -302.813,603.288c-141.837,196.475 -297.045,351.1 -465.62,463.87c-155.221,103.842 -340.013,184.513 -554.375,242.025c-18.442,4.946 -37.105,9.725 -55.984,14.33c-238.333,58.129 -512.125,87.195 -821.375,87.195l-1155.78,0l0,-603.387l1079.05,-0c45.838,-0 90.334,-0.579 133.484,-1.742c274.241,-7.375 494.237,-38.183 659.987,-92.429c191.825,-62.779 344.708,-151.137 458.642,-265.071c160.437,-160.437 285.416,-376.1 374.933,-646.983c17.975,-54.392 34.146,-111.104 48.513,-170.138c57.179,-234.962 85.77,-506.679 85.77,-815.158c0,-534.792 -87.779,-945.771 -263.329,-1232.93c-175.55,-287.158 -388.887,-479.571 -640.008,-577.225c-155.55,-59.829 -392.35,-94 -710.392,-102.517l434.275,-581.637Z" style="fill:url(#_Linear1);"/><path d="M4440.46,772.046c-43.929,-24.596 -89.15,-45.938 -135.671,-64.025c-155.549,-59.829 -392.349,-94 -710.391,-102.517l434.275,-581.637c124.5,11.962 231.65,28.421 321.458,49.375c176.954,40.729 338.213,101.387 483.779,181.983l-393.45,516.821Z" style="fill:url(#_Linear2);"/></g><path d="M1678.33,0.567l0,-0.567l1761.33,0c35.021,0 69.313,0.188 102.875,0.567l-1864.2,-0Z" style="fill:#00ffac;"/></g></g></g><defs><linearGradient id="_Linear1" x1="0" y1="0" x2="1" y2="0" gradientUnits="userSpaceOnUse" gradientTransform="matrix(-2359.51,3812.82,-3812.82,-2359.51,4727.08,1403.63)"><stop offset="0" style="stop-color:#ffa900;stop-opacity:1"/><stop offset="0.65" style="stop-color:#ea9b00;stop-opacity:1"/><stop offset="1" style="stop-color:#6b4700;stop-opacity:1"/></linearGradient><linearGradient id="_Linear2" x1="0" y1="0" x2="1" y2="0" gradientUnits="userSpaceOnUse" gradientTransform="matrix(-539.208,-317.022,317.022,-539.208,4395.42,502.013)"><stop offset="0" style="stop-color:#ffa900;stop-opacity:1"/><stop offset="1" style="stop-color:#875a00;stop-opacity:1"/></linearGradient></defs></svg>