<?xml version="1.0" encoding="UTF-8" standalone="no"?><!DOCTYPE svg PUBLIC "-//W3C//DTD SVG 1.1//EN" "http://www.w3.org/Graphics/SVG/1.1/DTD/svg11.dtd"><svg width="1418px" height="1228px" version="1.1" xmlns="http://www.w3.org/2000/svg" xmlns:xlink="http://www.w3.org/1999/xlink" xml:space="preserve" xmlns:serif="http://www.serif.com/" style="fill-rule:evenodd;clip-rule:evenodd;stroke-linejoin:round;stroke-miterlimit:2;"><g id="logo"><g><g><path d="M985.241,435.831l-178.069,178.068c0,0 -24.078,-24.078 -47.071,-47.071c-22.705,-22.705 -22.705,-59.517 0,-82.222c74.718,-74.717 225.14,-225.14 225.14,-225.14c-0,0 150.422,150.423 225.139,225.14c22.705,22.705 22.705,59.517 0,82.222c-22.992,22.993 -47.071,47.071 -47.071,47.071l-178.068,-178.068Z" style="fill:#4c4c4c;"/><path d="M681.354,896.044l-178.068,-178.068c-0,-0 -24.079,24.078 -47.071,47.071c-22.706,22.705 -22.706,59.517 -0,82.222c74.717,74.717 225.139,225.14 225.139,225.14c0,-0 150.422,-150.423 225.14,-225.14c22.705,-22.705 22.705,-59.517 -0,-82.222c-22.993,-22.993 -47.071,-47.071 -47.071,-47.071l-178.069,178.068Z" style="fill:#4c4c4c;"/></g></g><path d="M110.267,144.603l296.018,0l-296.018,0Z" style="fill:#454545;"/><g><g><g><path d="M568.218,1227.14l-1.064,-0.137l-162.851,-97.247l0,-984.943l-296.484,-0l-107.819,-144.813l850.207,-0c43.313,0.489 81.557,2.292 114.729,5.411c0.637,0.06 1.272,0.12 1.905,0.181l-104.226,139.593c-6.107,-0.164 -12.34,-0.288 -18.698,-0.372c-6.826,-0.091 -13.797,-0.137 -20.911,-0.137l-254.788,0l0,1082.46Z" style="fill:#4c4c4c;"/><path d="M568.218,1227.14l-1.064,-0.137l-162.851,-97.247l0,-984.943l-296.484,-0l-107.819,-144.813l850.207,-0c43.313,0.489 81.557,2.292 114.729,5.411c0.637,0.06 1.272,0.12 1.905,0.181l-104.226,139.593c-6.107,-0.164 -12.34,-0.288 -18.698,-0.372c-6.826,-0.091 -13.797,-0.137 -20.911,-0.137l-254.788,0l0,1082.46Z" style="fill:#4c4c4c;"/></g><g><path d="M966.841,5.728c29.88,2.871 55.596,6.821 77.15,11.85c70.314,16.184 130.304,45.481 179.969,87.892c64.734,54.689 113.144,124.584 145.232,209.686c7.612,20.19 14.322,41.064 20.129,62.621c18.668,69.304 28.002,145.669 28.002,229.096c-0,93.194 -10.882,175.784 -32.646,247.772c-3.517,11.632 -7.194,22.941 -11.031,33.925c-19.91,56.991 -44.135,105.254 -72.675,144.789c-34.041,47.154 -71.291,84.264 -111.749,111.329c-37.253,24.922 -81.603,44.283 -133.05,58.086c-4.426,1.187 -8.905,2.334 -13.436,3.439c-57.2,13.951 -122.91,20.927 -197.13,20.927l-277.388,-0l0,-144.813l258.973,0c11.001,0 21.68,-0.139 32.036,-0.418c65.818,-1.77 118.617,-9.164 158.397,-22.183c46.038,-15.067 82.73,-36.273 110.074,-63.617c38.505,-38.505 68.5,-90.264 89.984,-155.276c4.314,-13.054 8.195,-26.665 11.643,-40.833c13.723,-56.391 20.585,-121.603 20.585,-195.638c-0,-128.35 -21.067,-226.985 -63.199,-295.903c-42.132,-68.918 -93.333,-115.097 -153.602,-138.534c-37.332,-14.359 -94.164,-22.56 -170.494,-24.604l104.226,-139.593Z" style="fill:url(#_Linear1);"/><path d="M1065.71,185.291c-10.543,-5.903 -21.396,-11.025 -32.561,-15.366c-37.332,-14.359 -94.164,-22.56 -170.494,-24.604l104.226,-139.593c29.88,2.871 55.596,6.821 77.15,11.85c42.469,9.775 81.171,24.333 116.107,43.676l-94.428,124.037Z" style="fill:url(#_Linear2);"/></g><path d="M402.798,0.136l0,-0.136l422.719,0c8.405,0 16.635,0.045 24.69,0.136l-447.409,0Z" style="fill:#00ffac;"/></g></g></g><defs><linearGradient id="_Linear1" x1="0" y1="0" x2="1" y2="0" gradientUnits="userSpaceOnUse" gradientTransform="matrix(-566.282,915.076,-915.076,-566.282,1134.5,336.87)"><stop offset="0" style="stop-color:#ffa900;stop-opacity:1"/><stop offset="0.65" style="stop-color:#ea9b00;stop-opacity:1"/><stop offset="1" style="stop-color:#6b4700;stop-opacity:1"/></linearGradient><linearGradient id="_Linear2" x1="0" y1="0" x2="1" y2="0" gradientUnits="userSpaceOnUse" gradientTransform="matrix(-129.41,-76.0853,76.0853,-129.41,1054.9,120.483)"><stop offset="0" style="stop-color:#ffa900;stop-opacity:1"/><stop offset="1" style="stop-color:#875a00;stop-opacity:1"/></linearGradient></defs></svg>