<?xml version="1.0" encoding="UTF-8" standalone="no"?><!DOCTYPE svg PUBLIC "-//W3C//DTD SVG 1.1//EN" "http://www.w3.org/Graphics/SVG/1.1/DTD/svg11.dtd"><svg width="100%" height="100%" viewBox="0 0 425 380" version="1.1" xmlns="http://www.w3.org/2000/svg" xmlns:xlink="http://www.w3.org/1999/xlink" xml:space="preserve" xmlns:serif="http://www.serif.com/" style="fill-rule:evenodd;clip-rule:evenodd;stroke-linecap:round;stroke-linejoin:round;stroke-miterlimit:1.5;"><g id="maintenance"><path d="M388.021,146.258l-0,122.596c-0,15.688 -12.738,28.425 -28.425,28.425l-318.15,0c-15.688,0 -28.425,-12.737 -28.425,-28.425l-0,-227.408c-0,-15.688 12.737,-28.425 28.425,-28.425l250.725,-0" style="fill:none;stroke:#fff;stroke-width:26.04px;"/><path d="M388.021,243.025l-375,0" style="fill:none;stroke:#fff;stroke-width:26.04px;"/><path d="M315.021,362.529l-229,0" style="fill:none;stroke:#fff;stroke-width:26.04px;"/><path d="M192.65,297.279l-33.408,58.917" style="fill:none;stroke:#fff;stroke-width:26.04px;"/><path d="M208.392,297.279l33.408,58.917" style="fill:none;stroke:#fff;stroke-width:26.04px;"/><path d="M341.679,106.167c-0.787,1.458 -1.796,2.829 -3.029,4.062l-89.925,89.925c-6.821,6.821 -17.892,6.821 -24.713,0c-6.82,-6.816 -6.82,-17.891 0,-24.712l89.925,-89.925c1.234,-1.234 2.605,-2.242 4.067,-3.029c-8.408,-18.08 -5.154,-40.259 9.75,-55.167c14.717,-14.713 36.513,-18.071 54.458,-10.079l-15.654,15.654c-6.821,6.821 -6.821,17.896 0,24.717c6.817,6.816 17.892,6.816 24.713,-0l15.654,-15.659c7.996,17.95 4.637,39.746 -10.079,54.459c-14.909,14.908 -37.088,18.158 -55.167,9.754Z" style="fill:none;stroke:#fff;stroke-width:26.04px;"/></g></svg>