<?xml version="1.0" encoding="UTF-8" standalone="no"?><!DOCTYPE svg PUBLIC "-//W3C//DTD SVG 1.1//EN" "http://www.w3.org/Graphics/SVG/1.1/DTD/svg11.dtd"><svg width="100px" height="100px" version="1.1" xmlns="http://www.w3.org/2000/svg" xmlns:xlink="http://www.w3.org/1999/xlink" xml:space="preserve" xmlns:serif="http://www.serif.com/" style="fill-rule:evenodd;clip-rule:evenodd;stroke-linejoin:round;stroke-miterlimit:2;"><path d="M50,0c27.596,0 50,22.404 50,50c0,27.596 -22.404,50 -50,50c-27.596,0 -50,-22.404 -50,-50c0,-27.596 22.404,-50 50,-50Zm0,54.664l16.991,16.991c1.287,1.287 3.377,1.287 4.664,-0c1.287,-1.287 1.287,-3.377 -0,-4.664l-16.991,-16.991l16.991,-16.991c1.287,-1.287 1.287,-3.377 -0,-4.664c-1.287,-1.287 -3.377,-1.287 -4.664,0l-16.991,16.991l-16.991,-16.991c-1.287,-1.287 -3.377,-1.287 -4.664,0c-1.287,1.287 -1.287,3.377 0,4.664l16.991,16.991l-16.991,16.991c-1.287,1.287 -1.287,3.377 0,4.664c1.287,1.287 3.377,1.287 4.664,-0l16.991,-16.991Z" style="fill:#fff;"/></svg>