<?xml version="1.0" encoding="UTF-8" standalone="no"?><!DOCTYPE svg PUBLIC "-//W3C//DTD SVG 1.1//EN" "http://www.w3.org/Graphics/SVG/1.1/DTD/svg11.dtd"><svg width="100%" height="100%" viewBox="0 0 97 78" version="1.1" xmlns="http://www.w3.org/2000/svg" xmlns:xlink="http://www.w3.org/1999/xlink" xml:space="preserve" xmlns:serif="http://www.serif.com/" style="fill-rule:evenodd;clip-rule:evenodd;stroke-linecap:round;stroke-linejoin:round;stroke-miterlimit:1.5;"><g id="poster"><path d="M30.03,37.621l12.063,0" style="fill:none;stroke:#000;stroke-width:6.25px;"/><path d="M54.157,37.621l12.063,0" style="fill:none;stroke:#000;stroke-width:6.25px;"/><path d="M30.03,46.252l36.19,0" style="fill:none;stroke:#000;stroke-width:6.25px;"/><path d="M30.03,56.274l9.835,-0" style="fill:none;stroke:#000;stroke-width:6.25px;"/><path d="M50.135,56.274l16.085,-0" style="fill:none;stroke:#000;stroke-width:6.25px;"/><path d="M30.03,21.412l36.19,-0" style="fill:none;stroke:#000;stroke-width:6.25px;"/><path d="M93.125,10.247l0,56.976c0,3.931 -3.191,7.122 -7.122,7.122l-75.756,-0c-3.931,-0 -7.122,-3.191 -7.122,-7.122l0,-56.976c0,-3.931 3.191,-7.122 7.122,-7.122l75.756,0c3.931,0 7.122,3.191 7.122,7.122Z" style="fill:none;stroke:#231f20;stroke-width:6.25px;"/></g></svg>