<?xml version="1.0" encoding="UTF-8" standalone="no"?><!DOCTYPE svg PUBLIC "-//W3C//DTD SVG 1.1//EN" "http://www.w3.org/Graphics/SVG/1.1/DTD/svg11.dtd"><svg width="100%" height="100%" viewBox="0 0 405 325" version="1.1" xmlns="http://www.w3.org/2000/svg" xmlns:xlink="http://www.w3.org/1999/xlink" xml:space="preserve" xmlns:serif="http://www.serif.com/" style="fill-rule:evenodd;clip-rule:evenodd;stroke-linecap:round;stroke-linejoin:round;stroke-miterlimit:1.5;"><g id="poster"><path d="M125.125,156.754l50.263,0" style="fill:none;stroke:#fff;stroke-width:26.04px;"/><path d="M225.654,156.754l50.263,0" style="fill:none;stroke:#fff;stroke-width:26.04px;"/><path d="M125.125,192.717l150.792,-0" style="fill:none;stroke:#fff;stroke-width:26.04px;"/><path d="M125.125,234.475l40.979,0" style="fill:none;stroke:#fff;stroke-width:26.04px;"/><path d="M208.896,234.475l67.021,0" style="fill:none;stroke:#fff;stroke-width:26.04px;"/><path d="M125.125,89.217l150.792,-0" style="fill:none;stroke:#fff;stroke-width:26.04px;"/><path d="M388.021,42.696l-0,237.4c-0,16.379 -13.296,29.675 -29.675,29.675l-315.65,-0c-16.379,-0 -29.675,-13.296 -29.675,-29.675l-0,-237.4c-0,-16.379 13.296,-29.675 29.675,-29.675l315.65,-0c16.379,-0 29.675,13.296 29.675,29.675Z" style="fill:none;stroke:#fff;stroke-width:26.04px;"/></g></svg>