<?xml version="1.0" encoding="UTF-8" standalone="no"?><!DOCTYPE svg PUBLIC "-//W3C//DTD SVG 1.1//EN" "http://www.w3.org/Graphics/SVG/1.1/DTD/svg11.dtd"><svg width="251px" height="652px" version="1.1" xmlns="http://www.w3.org/2000/svg" xmlns:xlink="http://www.w3.org/1999/xlink" xml:space="preserve" xmlns:serif="http://www.serif.com/" style="fill-rule:evenodd;clip-rule:evenodd;stroke-linejoin:round;stroke-miterlimit:2;"><path d="M74.843,399.745c51.517,-143.613 37.951,-267.211 -33.643,-393.745l113.389,0c65.668,127.507 75.278,263.337 32.663,398.644l57.362,-4.899c-46.758,83.241 -125.277,165.549 -215.251,245.467c3.645,-86.456 22.834,-189.228 -23.363,-265.715l68.843,20.248Z" style="fill:#fff;"/><path d="M74.843,399.745c51.517,-143.613 37.951,-267.211 -33.643,-393.745l113.389,0c65.668,127.507 75.278,263.337 32.663,398.644l57.362,-4.899c-46.758,83.241 -125.277,165.549 -215.251,245.467c3.645,-86.456 22.834,-189.228 -23.363,-265.715l68.843,20.248Z" style="fill:#fff;"/><g><path d="M71.327,411.699c6.331,1.862 13.016,-1.535 15.244,-7.747c50.345,-140.343 40.126,-262.062 -24.403,-385.492l84.765,0c61.011,122.521 69.287,252.729 28.434,382.441c-1.249,3.964 -0.439,8.29 2.16,11.534c2.599,3.244 6.644,4.978 10.785,4.624l33.218,-2.837c-42.633,68.171 -105.854,135.557 -177.996,201.461c2.376,-34.833 5.704,-71.396 5.298,-107.208c-0.431,-38.057 -5.099,-75.26 -18.896,-108.95c-0,-0 41.391,12.174 41.391,12.174Z" style="fill:#ffa900;"/></g><path d="M71.327,411.699c6.331,1.862 13.016,-1.535 15.244,-7.747c50.345,-140.343 40.126,-262.062 -24.403,-385.492l84.765,0c61.011,122.521 69.287,252.729 28.434,382.441c-1.249,3.964 -0.439,8.29 2.16,11.534c2.599,3.244 6.644,4.978 10.785,4.624l33.218,-2.837c-42.633,68.171 -105.854,135.557 -177.996,201.461c2.376,-34.833 5.704,-71.396 5.298,-107.208c-0.431,-38.057 -5.099,-75.26 -18.896,-108.95c-0,-0 41.391,12.174 41.391,12.174Z" style="fill:#ffa900;"/></svg>