<?xml version="1.0" encoding="UTF-8" standalone="no"?><!DOCTYPE svg PUBLIC "-//W3C//DTD SVG 1.1//EN" "http://www.w3.org/Graphics/SVG/1.1/DTD/svg11.dtd"><svg width="3279px" height="2310px" version="1.1" xmlns="http://www.w3.org/2000/svg" xmlns:xlink="http://www.w3.org/1999/xlink" xml:space="preserve" xmlns:serif="http://www.serif.com/" style="fill-rule:evenodd;clip-rule:evenodd;stroke-linecap:round;stroke-linejoin:round;stroke-miterlimit:1.5;"><rect id="Artboard1" x="0" y="0" width="3278.99" height="2309" style="fill:#fff;"/><g id="img"><rect x="268.88" y="810.708" width="773.595" height="484.779" style="fill:#d8d8d8;stroke:#000;stroke-width:8.33px;"/><g><path d="M268.528,810.706c-0,0 772.011,483.368 773.595,484.779c1.583,1.411 -0,-484.779 -0,-484.779c-0,0 -773.583,486.037 -773.595,484.779" style="fill:#d8d8d8;stroke:#000;stroke-width:8.33px;"/></g></g><g id="img1" serif:id="img"><rect x="2235.43" y="1317.01" width="773.595" height="484.779" style="fill:#d8d8d8;stroke:#000;stroke-width:8.33px;"/><g><path d="M2235.08,1317.01c0,0 772.012,483.368 773.595,484.779c1.583,1.411 0,-484.779 0,-484.779c0,0 -773.583,486.037 -773.595,484.779" style="fill:#d8d8d8;stroke:#000;stroke-width:8.33px;"/></g></g><g id="img2" serif:id="img"><rect x="269.392" y="1433.3" width="354.009" height="302.21" style="fill:#d8d8d8;stroke:#000;stroke-width:8.33px;"/><g><path d="M269.392,1433.14c0,-0 353.285,301.331 354.009,302.21c0.725,0.879 0,-302.21 0,-302.21c0,-0 -354.003,302.994 -354.009,302.21" style="fill:#d8d8d8;stroke:#000;stroke-width:8.33px;"/></g></g><rect x="269.231" y="1780.24" width="354.331" height="59.774" style="fill:#ff8900;stroke:#000;stroke-width:8.33px;"/><rect x="688.656" y="1780.08" width="354.331" height="59.774" style="fill:#ff8900;stroke:#000;stroke-width:8.33px;"/><g id="img3" serif:id="img"><rect x="688.817" y="1433.14" width="354.009" height="302.21" style="fill:#d8d8d8;stroke:#000;stroke-width:8.33px;"/><g><path d="M688.656,1433.14c0,-0 353.285,301.331 354.009,302.21c0.725,0.879 0,-302.21 0,-302.21c0,-0 -354.003,302.994 -354.009,302.21" style="fill:#d8d8d8;stroke:#000;stroke-width:8.33px;"/></g></g><g><g id="img4" serif:id="img"><rect x="1264.58" y="824.559" width="354.009" height="302.21" style="fill:#d8d8d8;stroke:#000;stroke-width:8.33px;"/><g><path d="M1264.58,824.397c0,-0 353.285,301.331 354.009,302.21c0.725,0.88 0,-302.21 0,-302.21c0,-0 -354.003,302.994 -354.009,302.21" style="fill:#d8d8d8;stroke:#000;stroke-width:8.33px;"/></g></g><rect x="1264.42" y="1171.5" width="354.331" height="59.774" style="fill:#ff8900;stroke:#000;stroke-width:8.33px;"/><rect x="1264.42" y="1286.76" width="354.331" height="59.774" style="fill:#6c6c6c;stroke:#000;stroke-width:8.33px;"/><rect x="1683.85" y="1171.34" width="354.331" height="59.774" style="fill:#ff8900;stroke:#000;stroke-width:8.33px;"/><rect x="2221.78" y="1884.05" width="354.331" height="59.774" style="fill:#ff8900;stroke:#000;stroke-width:8.33px;"/><rect x="2641.2" y="1883.89" width="354.331" height="59.774" style="fill:#ff8900;stroke:#000;stroke-width:8.33px;"/><rect x="2221.78" y="1991.59" width="354.331" height="59.774" style="fill:#ff8900;stroke:#000;stroke-width:8.33px;"/><rect x="2641.2" y="1991.43" width="354.331" height="59.774" style="fill:#ff8900;stroke:#000;stroke-width:8.33px;"/><g id="img5" serif:id="img"><rect x="1684.01" y="824.398" width="354.009" height="302.21" style="fill:#d8d8d8;stroke:#000;stroke-width:8.33px;"/><g><path d="M1683.85,824.397c-0,-0 353.284,301.331 354.008,302.21c0.725,0.88 0,-302.21 0,-302.21c0,-0 -354.003,302.994 -354.008,302.21" style="fill:#d8d8d8;stroke:#000;stroke-width:8.33px;"/></g></g><g><g id="img6" serif:id="img"><rect x="1688.77" y="1288.47" width="88.502" height="75.553" style="fill:#d8d8d8;stroke:#000;stroke-width:8.33px;"/><g><path d="M1688.73,1288.47c0,-0 88.321,75.333 88.502,75.552c0.181,0.22 0,-75.552 0,-75.552c0,-0 -88.501,75.749 -88.502,75.552" style="fill:#d8d8d8;stroke:#000;stroke-width:8.33px;"/></g></g><g id="img7" serif:id="img"><rect x="1818.99" y="1288.47" width="88.502" height="75.553" style="fill:#d8d8d8;stroke:#000;stroke-width:8.33px;"/><g><path d="M1818.95,1288.47c0,-0 88.321,75.333 88.502,75.552c0.181,0.22 0,-75.552 0,-75.552c0,-0 -88.5,75.749 -88.502,75.552" style="fill:#d8d8d8;stroke:#000;stroke-width:8.33px;"/></g></g><g id="img8" serif:id="img"><rect x="1942.81" y="1288.47" width="88.502" height="75.553" style="fill:#d8d8d8;stroke:#000;stroke-width:8.33px;"/><g><path d="M1942.77,1288.47c-0,-0 88.321,75.333 88.502,75.552c0.181,0.22 0,-75.552 0,-75.552c0,-0 -88.501,75.749 -88.502,75.552" style="fill:#d8d8d8;stroke:#000;stroke-width:8.33px;"/></g></g></g><g><g id="img9" serif:id="img"><rect x="1688.77" y="1415.49" width="88.502" height="75.553" style="fill:#d8d8d8;stroke:#000;stroke-width:8.33px;"/><g><path d="M1688.73,1415.49c0,-0 88.321,75.333 88.502,75.552c0.181,0.22 0,-75.552 0,-75.552c0,-0 -88.501,75.748 -88.502,75.552" style="fill:#d8d8d8;stroke:#000;stroke-width:8.33px;"/></g></g><g id="img10" serif:id="img"><rect x="1818.99" y="1415.49" width="88.502" height="75.553" style="fill:#d8d8d8;stroke:#000;stroke-width:8.33px;"/><g><path d="M1818.95,1415.49c0,-0 88.321,75.333 88.502,75.552c0.181,0.22 0,-75.552 0,-75.552c0,-0 -88.5,75.748 -88.502,75.552" style="fill:#d8d8d8;stroke:#000;stroke-width:8.33px;"/></g></g><g id="img11" serif:id="img"><rect x="1942.81" y="1415.49" width="88.502" height="75.553" style="fill:#d8d8d8;stroke:#000;stroke-width:8.33px;"/><g><path d="M1942.77,1415.49c-0,-0 88.321,75.333 88.502,75.552c0.181,0.22 0,-75.552 0,-75.552c0,-0 -88.501,75.748 -88.502,75.552" style="fill:#d8d8d8;stroke:#000;stroke-width:8.33px;"/></g></g></g><g><g id="img12" serif:id="img"><rect x="2235.12" y="937.807" width="88.502" height="75.553" style="fill:#d8d8d8;stroke:#000;stroke-width:8.33px;"/><g><path d="M2235.08,937.807c0,-0 88.321,75.332 88.503,75.552c0.181,0.22 -0,-75.552 -0,-75.552c-0,-0 -88.501,75.748 -88.503,75.552" style="fill:#d8d8d8;stroke:#000;stroke-width:8.33px;"/></g></g><g id="img13" serif:id="img"><rect x="2365.34" y="937.807" width="88.502" height="75.553" style="fill:#d8d8d8;stroke:#000;stroke-width:8.33px;"/><g><path d="M2365.3,937.807c0,-0 88.321,75.332 88.503,75.552c0.181,0.22 -0,-75.552 -0,-75.552c-0,-0 -88.501,75.748 -88.503,75.552" style="fill:#d8d8d8;stroke:#000;stroke-width:8.33px;"/></g></g><g id="img14" serif:id="img"><rect x="2489.15" y="937.807" width="88.502" height="75.553" style="fill:#d8d8d8;stroke:#000;stroke-width:8.33px;"/><g><path d="M2489.11,937.807c0,-0 88.321,75.332 88.502,75.552c0.181,0.22 0,-75.552 0,-75.552c0,-0 -88.5,75.748 -88.502,75.552" style="fill:#d8d8d8;stroke:#000;stroke-width:8.33px;"/></g></g></g><g><g id="img15" serif:id="img"><rect x="2652.95" y="937.727" width="88.502" height="75.553" style="fill:#d8d8d8;stroke:#000;stroke-width:8.33px;"/><g><path d="M2652.91,937.727c0,-0 88.321,75.332 88.503,75.552c0.181,0.22 -0,-75.552 -0,-75.552c-0,-0 -88.501,75.748 -88.503,75.552" style="fill:#d8d8d8;stroke:#000;stroke-width:8.33px;"/></g></g><g id="img16" serif:id="img"><rect x="2783.17" y="937.727" width="88.502" height="75.553" style="fill:#d8d8d8;stroke:#000;stroke-width:8.33px;"/><g><path d="M2783.13,937.727c0,-0 88.321,75.332 88.503,75.552c0.181,0.22 -0,-75.552 -0,-75.552c-0,-0 -88.501,75.748 -88.503,75.552" style="fill:#d8d8d8;stroke:#000;stroke-width:8.33px;"/></g></g><g id="img17" serif:id="img"><rect x="2906.99" y="937.727" width="88.502" height="75.553" style="fill:#d8d8d8;stroke:#000;stroke-width:8.33px;"/><g><path d="M2906.95,937.727c0,-0 88.321,75.332 88.502,75.552c0.181,0.22 0,-75.552 0,-75.552c0,-0 -88.5,75.748 -88.502,75.552" style="fill:#d8d8d8;stroke:#000;stroke-width:8.33px;"/></g></g></g></g><rect id="frame3" x="220.457" y="648.626" width="871.143" height="1481.8" style="fill:none;stroke:#000;stroke-width:8.33px;"/><rect id="frame31" serif:id="frame3" x="269.231" y="736.183" width="773.595" height="1394.24" style="fill:none;stroke:#000;stroke-width:8.33px;"/><rect id="frame2" x="1212.44" y="648.626" width="871.143" height="1481.8" style="fill:none;stroke:#000;stroke-width:8.33px;"/><rect id="frame1" x="2183.02" y="648.626" width="871.143" height="1481.8" style="fill:none;stroke:#000;stroke-width:8.33px;"/><rect id="top2" x="19.801" y="351.55" width="3239.38" height="172.969" style="fill:none;stroke:#000;stroke-width:8.33px;"/><rect id="top1" x="19.801" y="178.581" width="3239.38" height="172.969" style="fill:none;stroke:#000;stroke-width:8.33px;"/><g id="nav"><rect x="220.457" y="648.626" width="871.143" height="87.557" style="fill:none;stroke:#000;stroke-width:8.33px;"/><g id="ham-menu" serif:id="ham menu"><path d="M976.721,671.318l66.105,0" style="fill:none;stroke:#000;stroke-width:8.33px;"/><path d="M976.721,689.681l66.105,-0" style="fill:none;stroke:#000;stroke-width:8.33px;"/><path d="M976.721,708.043l66.105,0" style="fill:none;stroke:#000;stroke-width:8.33px;"/></g><path d="M367.39,706.145c-1.839,0.863 -4.728,1.636 -8.667,2.319c-3.629,0.635 -6.592,0.952 -8.886,0.952c-1.644,0 -2.824,-0.252 -3.541,-0.756c-0.976,-0.684 -1.464,-1.937 -1.464,-3.76l0.488,-8.081c0.423,-7.455 0.635,-15.723 0.635,-24.805c-0,-0.7 0.232,-1.294 0.695,-1.782c0.464,-0.488 1.038,-0.733 1.722,-0.733c0.7,0 1.281,0.245 1.745,0.733c0.464,0.488 0.696,1.082 0.696,1.782c0,9.196 -0.22,17.562 -0.659,25.098l-0.317,3.711c-0.131,1.351 -0.18,2.547 -0.147,3.588c4.248,0.049 9.619,-0.952 16.113,-3.002c0.277,-0.082 0.537,-0.123 0.782,-0.123c0.699,0 1.285,0.277 1.757,0.831c0.407,0.504 0.611,1.082 0.611,1.733c-0,1.042 -0.521,1.807 -1.563,2.295Z" style="fill-rule:nonzero;"/><path d="M382.454,708.586c-2.735,0 -5.087,-1.009 -7.056,-3.027c-2.197,-2.246 -3.353,-5.265 -3.467,-9.058c-0.097,-3.678 0.83,-6.917 2.783,-9.716c2.279,-3.305 5.453,-4.957 9.522,-4.957c3.255,0 5.721,1.49 7.397,4.468c1.335,2.409 1.978,5.306 1.929,8.692c-0.049,3.613 -0.993,6.697 -2.832,9.253c-2.083,2.897 -4.842,4.345 -8.276,4.345Zm1.465,-21.801c-2.393,-0.017 -4.257,1.123 -5.591,3.417c-1.058,1.84 -1.587,3.939 -1.587,6.299c-0,2.36 0.643,4.2 1.929,5.518c1.074,1.09 2.335,1.636 3.784,1.636c1.692,-0 3.149,-0.619 4.37,-1.856c1.383,-1.367 2.116,-3.214 2.197,-5.542c0.228,-6.299 -1.473,-9.456 -5.102,-9.472Z" style="fill-rule:nonzero;"/><path d="M419.685,696.623l-0.561,8.204c-0.098,3.255 -0.432,5.916 -1.001,7.983c-0.733,2.637 -1.905,4.582 -3.516,5.835c-1.953,1.514 -4.777,2.27 -8.472,2.27c-2.164,0 -3.979,-0.146 -5.444,-0.439c-2.051,-0.407 -3.076,-1.253 -3.076,-2.539c-0,-1.449 0.708,-2.173 2.124,-2.173c0.586,0 1.562,0.142 2.93,0.427c1.367,0.285 2.88,0.411 4.541,0.379c3.125,-0.049 5.281,-1.563 6.469,-4.541c0.782,-1.986 1.197,-5.038 1.245,-9.156c-0.879,1.628 -1.924,2.849 -3.137,3.663c-1.212,0.813 -2.6,1.22 -4.162,1.22c-2.946,0 -5.343,-1.005 -7.19,-3.015c-1.848,-2.01 -2.771,-4.618 -2.771,-7.825c-0,-4.394 1.261,-7.934 3.784,-10.62c2.604,-2.767 6.152,-4.15 10.644,-4.15c1.514,-0 2.784,0.195 3.809,0.586c1.025,0.39 1.807,0.976 2.344,1.758c1.741,0.048 2.612,1.017 2.612,2.905c0,1.155 -0.171,2.702 -0.513,4.639c-0.374,2.246 -0.594,3.776 -0.659,4.589Zm-7.837,-10.571c-3.092,0 -5.485,1.066 -7.178,3.198c-1.513,1.921 -2.27,4.362 -2.27,7.325c-0,2.36 0.448,4.134 1.343,5.322c0.895,1.188 2.238,1.782 4.028,1.782c1.644,0 3.239,-0.928 4.785,-2.783c1.4,-1.709 2.197,-3.402 2.393,-5.078c0.342,-1.758 0.708,-4.517 1.098,-8.277c-0.651,-0.504 -1.326,-0.879 -2.026,-1.123c-0.7,-0.244 -1.424,-0.366 -2.173,-0.366Z" style="fill-rule:nonzero;"/><path d="M435.286,708.586c-2.735,0 -5.087,-1.009 -7.056,-3.027c-2.197,-2.246 -3.353,-5.265 -3.467,-9.058c-0.097,-3.678 0.83,-6.917 2.783,-9.716c2.279,-3.305 5.453,-4.957 9.522,-4.957c3.255,0 5.721,1.49 7.397,4.468c1.335,2.409 1.978,5.306 1.929,8.692c-0.049,3.613 -0.993,6.697 -2.832,9.253c-2.083,2.897 -4.842,4.345 -8.276,4.345Zm1.465,-21.801c-2.393,-0.017 -4.257,1.123 -5.591,3.417c-1.058,1.84 -1.587,3.939 -1.587,6.299c-0,2.36 0.643,4.2 1.929,5.518c1.074,1.09 2.335,1.636 3.784,1.636c1.692,-0 3.149,-0.619 4.37,-1.856c1.383,-1.367 2.116,-3.214 2.197,-5.542c0.228,-6.299 -1.473,-9.456 -5.102,-9.472Z" style="fill-rule:nonzero;"/><circle cx="287.443" cy="695.207" r="25.708" style="fill:#ff8900;stroke:#000;stroke-width:8.33px;"/></g><g id="nav1" serif:id="nav"><rect x="1212.44" y="648.626" width="871.143" height="87.557" style="fill:none;stroke:#000;stroke-width:8.33px;"/><g id="ham-menu1" serif:id="ham menu"><path d="M1968.71,671.318l66.105,0" style="fill:none;stroke:#000;stroke-width:8.33px;"/><path d="M1968.71,689.681l66.105,-0" style="fill:none;stroke:#000;stroke-width:8.33px;"/><path d="M1968.71,708.043l66.105,0" style="fill:none;stroke:#000;stroke-width:8.33px;"/></g><path d="M1359.38,706.145c-1.839,0.863 -4.728,1.636 -8.667,2.319c-3.63,0.635 -6.592,0.952 -8.887,0.952c-1.644,0 -2.824,-0.252 -3.54,-0.756c-0.976,-0.684 -1.465,-1.937 -1.465,-3.76l0.489,-8.081c0.423,-7.455 0.634,-15.723 0.634,-24.805c0,-0.7 0.232,-1.294 0.696,-1.782c0.464,-0.488 1.038,-0.733 1.721,-0.733c0.7,0 1.282,0.245 1.746,0.733c0.464,0.488 0.696,1.082 0.696,1.782c-0,9.196 -0.22,17.562 -0.659,25.098l-0.318,3.711c-0.13,1.351 -0.179,2.547 -0.146,3.588c4.248,0.049 9.619,-0.952 16.113,-3.002c0.277,-0.082 0.537,-0.123 0.781,-0.123c0.7,0 1.286,0.277 1.758,0.831c0.407,0.504 0.61,1.082 0.61,1.733c0,1.042 -0.52,1.807 -1.562,2.295Z" style="fill-rule:nonzero;"/><path d="M1374.44,708.586c-2.734,0 -5.086,-1.009 -7.055,-3.027c-2.197,-2.246 -3.353,-5.265 -3.467,-9.058c-0.098,-3.678 0.83,-6.917 2.783,-9.716c2.279,-3.305 5.453,-4.957 9.522,-4.957c3.255,0 5.721,1.49 7.397,4.468c1.335,2.409 1.978,5.306 1.929,8.692c-0.049,3.613 -0.993,6.697 -2.832,9.253c-2.084,2.897 -4.842,4.345 -8.277,4.345Zm1.465,-21.801c-2.392,-0.017 -4.256,1.123 -5.591,3.417c-1.057,1.84 -1.586,3.939 -1.586,6.299c-0,2.36 0.642,4.2 1.928,5.518c1.075,1.09 2.336,1.636 3.784,1.636c1.693,-0 3.15,-0.619 4.371,-1.856c1.383,-1.367 2.115,-3.214 2.197,-5.542c0.228,-6.299 -1.473,-9.456 -5.103,-9.472Z" style="fill-rule:nonzero;"/><path d="M1411.67,696.623l-0.562,8.204c-0.097,3.255 -0.431,5.916 -1.001,7.983c-0.732,2.637 -1.904,4.582 -3.515,5.835c-1.953,1.514 -4.777,2.27 -8.472,2.27c-2.165,0 -3.979,-0.146 -5.444,-0.439c-2.051,-0.407 -3.076,-1.253 -3.076,-2.539c-0,-1.449 0.708,-2.173 2.124,-2.173c0.586,0 1.562,0.142 2.929,0.427c1.367,0.285 2.881,0.411 4.541,0.379c3.125,-0.049 5.282,-1.563 6.47,-4.541c0.781,-1.986 1.196,-5.038 1.245,-9.156c-0.879,1.628 -1.924,2.849 -3.137,3.663c-1.213,0.813 -2.6,1.22 -4.163,1.22c-2.946,0 -5.342,-1.005 -7.19,-3.015c-1.847,-2.01 -2.771,-4.618 -2.771,-7.825c0,-4.394 1.262,-7.934 3.785,-10.62c2.604,-2.767 6.152,-4.15 10.644,-4.15c1.514,-0 2.783,0.195 3.809,0.586c1.025,0.39 1.806,0.976 2.343,1.758c1.742,0.048 2.613,1.017 2.613,2.905c-0,1.155 -0.171,2.702 -0.513,4.639c-0.374,2.246 -0.594,3.776 -0.659,4.589Zm-7.837,-10.571c-3.092,0 -5.485,1.066 -7.178,3.198c-1.513,1.921 -2.27,4.362 -2.27,7.325c-0,2.36 0.447,4.134 1.343,5.322c0.895,1.188 2.237,1.782 4.028,1.782c1.644,0 3.239,-0.928 4.785,-2.783c1.4,-1.709 2.197,-3.402 2.393,-5.078c0.341,-1.758 0.708,-4.517 1.098,-8.277c-0.651,-0.504 -1.326,-0.879 -2.026,-1.123c-0.7,-0.244 -1.424,-0.366 -2.173,-0.366Z" style="fill-rule:nonzero;"/><path d="M1427.27,708.586c-2.734,0 -5.086,-1.009 -7.055,-3.027c-2.197,-2.246 -3.353,-5.265 -3.467,-9.058c-0.098,-3.678 0.83,-6.917 2.783,-9.716c2.279,-3.305 5.453,-4.957 9.522,-4.957c3.255,0 5.721,1.49 7.397,4.468c1.335,2.409 1.978,5.306 1.929,8.692c-0.049,3.613 -0.993,6.697 -2.832,9.253c-2.083,2.897 -4.842,4.345 -8.277,4.345Zm1.465,-21.801c-2.392,-0.017 -4.256,1.123 -5.59,3.417c-1.058,1.84 -1.587,3.939 -1.587,6.299c-0,2.36 0.643,4.2 1.928,5.518c1.075,1.09 2.336,1.636 3.784,1.636c1.693,-0 3.15,-0.619 4.371,-1.856c1.383,-1.367 2.115,-3.214 2.197,-5.542c0.228,-6.299 -1.473,-9.456 -5.103,-9.472Z" style="fill-rule:nonzero;"/><path d="M642.219,285.885c-0.879,0 -1.604,-0.456 -2.173,-1.367c-0.488,-0.781 -0.928,-2.083 -1.319,-3.906l-0.878,-4.2c-0.668,-2.604 -1.726,-8.349 -3.174,-17.236l-4.883,14.722l-1.441,4.638c-0.585,1.84 -1.196,3.345 -1.831,4.517c-0.683,1.237 -1.603,1.856 -2.758,1.856c-0.961,-0 -1.717,-0.521 -2.271,-1.563c-0.358,-0.684 -0.683,-1.554 -0.976,-2.612l-0.708,-2.71c-1.644,-5.746 -3.093,-11.898 -4.346,-18.457l-0.879,4.37l-3.149,12.891c-0.131,1.513 -0.538,3.751 -1.221,6.713c-0.488,1.27 -1.294,1.905 -2.417,1.905c-0.798,-0 -1.432,-0.285 -1.904,-0.855c-0.407,-0.488 -0.611,-1.09 -0.611,-1.806c0,-2.719 0.562,-6.055 1.685,-10.01l2.685,-9.839l1.416,-7.691c0.716,-3.597 1.473,-5.948 2.271,-7.055c0.651,-0.944 1.457,-1.416 2.417,-1.416c1.058,-0 1.847,0.602 2.368,1.806c0.635,1.449 1.318,4.403 2.051,8.863c0.862,5.355 2.205,11.149 4.028,17.383c2.409,-6.267 4.492,-12.793 6.25,-19.581l0.733,-3.564c0.292,-1.432 0.675,-2.588 1.147,-3.467c0.635,-1.204 1.506,-1.806 2.612,-1.806c1.4,-0 2.466,1.35 3.199,4.052c0.26,0.928 0.577,2.849 0.952,5.762c0.96,7.357 2.156,13.639 3.589,18.848l1.196,4.199c0.618,2.246 0.928,3.629 0.928,4.15c-0,0.7 -0.265,1.286 -0.794,1.758c-0.529,0.472 -1.127,0.708 -1.794,0.708Z" style="fill-rule:nonzero;"/><path d="M677.204,284.591c-1.497,0 -2.799,-1.92 -3.906,-5.762c-0.423,-1.464 -0.952,-4.028 -1.587,-7.69c-1.66,0.228 -3.833,0.635 -6.519,1.221l-6.494,1.343c-0.814,2.132 -2.205,5.249 -4.175,9.35c-0.52,0.912 -1.228,1.367 -2.124,1.367c-0.651,0 -1.233,-0.236 -1.745,-0.708c-0.513,-0.472 -0.769,-1.058 -0.769,-1.758c-0,-0.781 1.229,-3.751 3.686,-8.911c-0.276,-0.423 -0.415,-0.911 -0.415,-1.465c0,-1.318 0.798,-2.164 2.393,-2.539c1.855,-3.483 4.199,-7.487 7.031,-12.011c3.857,-6.169 6.258,-9.253 7.202,-9.253c1.286,-0 2.165,0.895 2.637,2.685l1.538,8.203l3.638,16.968l1.391,3.858c0.472,1.318 0.708,2.197 0.708,2.636c0,0.7 -0.252,1.286 -0.757,1.758c-0.504,0.472 -1.082,0.708 -1.733,0.708Zm-8.618,-27.905l-6.983,11.255c1.97,-0.505 4.957,-1.115 8.96,-1.831l-1.977,-9.424Z" style="fill-rule:nonzero;"/><path d="M706.623,253.439c-1.042,-0 -2.352,-0.106 -3.931,-0.318l-3.93,-0.512c-0.375,4.736 -0.562,9.261 -0.562,13.574c0,1.139 0.033,2.547 0.098,4.224c0.065,1.676 0.097,3.084 0.097,4.223c0,1.53 -0.057,2.922 -0.17,4.175l7.69,-0.098c0.684,0 1.257,0.24 1.721,0.721c0.464,0.48 0.696,1.07 0.696,1.77c-0,0.716 -0.232,1.314 -0.696,1.794c-0.464,0.48 -1.037,0.72 -1.721,0.72c-0.911,0 -2.279,0.021 -4.102,0.061c-1.823,0.041 -3.19,0.061 -4.101,0.061c-1.074,0 -2.682,0.151 -4.822,0.452c-2.14,0.301 -3.756,0.452 -4.846,0.452c-0.684,-0 -1.257,-0.24 -1.721,-0.721c-0.464,-0.48 -0.696,-1.07 -0.696,-1.77c-0,-0.699 0.232,-1.294 0.696,-1.782c0.464,-0.488 1.037,-0.732 1.721,-0.732c1.058,-0 2.807,-0.171 5.249,-0.513c0.163,-1.318 0.244,-2.824 0.244,-4.517c0,-1.123 -0.053,-2.494 -0.159,-4.113c-0.105,-1.62 -0.158,-2.983 -0.158,-4.09c-0,-3.759 0.228,-8.455 0.683,-14.087l-3.174,0.098l-3.173,0.073c-0.7,0 -1.286,-0.236 -1.758,-0.708c-0.472,-0.472 -0.708,-1.074 -0.708,-1.806c-0,-1.514 0.765,-2.344 2.295,-2.491c1.318,-0.13 3.784,-0.195 7.397,-0.195c3.239,0 7.3,0.35 12.183,1.05c1.448,0.212 2.173,1.082 2.173,2.612c-0,0.765 -0.277,1.376 -0.83,1.831c-0.489,0.375 -1.05,0.562 -1.685,0.562Z" style="fill-rule:nonzero;"/><path d="M748.2,278.439c0,0.781 -0.13,2.083 -0.39,3.906c-0.261,1.644 -1.132,2.466 -2.613,2.466c-0.895,-0 -1.961,-0.586 -3.198,-1.758c-6.624,-6.266 -14.225,-15.308 -22.803,-27.124l-0.122,5.542l-0.073,5.566c-0,1.351 0.028,3.378 0.085,6.08c0.057,2.701 0.086,4.736 0.086,6.103c-0,4.378 -0.847,6.567 -2.539,6.567c-0.895,0 -1.603,-0.284 -2.124,-0.854c-0.472,-0.505 -0.708,-1.107 -0.708,-1.807c-0,-0.683 0.053,-1.717 0.158,-3.1c0.106,-1.384 0.159,-2.417 0.159,-3.101c0,-1.009 0.033,-2.519 0.098,-4.529c0.065,-2.01 0.097,-3.519 0.097,-4.528c0,-1.075 -0.024,-2.698 -0.073,-4.871c-0.049,-2.173 -0.073,-3.796 -0.073,-4.871c-0,-1.025 -0.098,-2.551 -0.293,-4.577c-0.195,-2.027 -0.293,-3.553 -0.293,-4.578c-0,-0.749 0.321,-1.432 0.964,-2.051c0.643,-0.618 1.372,-0.927 2.185,-0.927c0.863,-0 1.929,0.944 3.199,2.832c4.052,6.071 7.698,11.116 10.937,15.136c3.858,4.769 8.089,9.326 12.695,13.672c0.049,-0.7 0.049,-1.733 0,-3.1l-0.073,-3.077c0,-7.145 -0.276,-12.833 -0.83,-17.065c-0.065,-0.423 -0.285,-1.278 -0.659,-2.563c-0.326,-1.107 -0.488,-1.97 -0.488,-2.588c-0,-1.888 0.862,-2.832 2.588,-2.832c2.832,-0 4.248,5.281 4.248,15.844c-0,1.807 -0.025,4.505 -0.074,8.094c-0.048,3.588 -0.073,6.286 -0.073,8.093Z" style="fill-rule:nonzero;"/><path d="M1589.52,277.78c-0.016,-0.684 0.216,-1.241 0.696,-1.673c0.48,-0.431 1.07,-0.647 1.77,-0.647c0.798,0 1.497,0.456 2.1,1.368c0.83,1.236 1.57,2.075 2.221,2.514c1.384,0.912 3.394,1.367 6.031,1.367c2.522,0 4.866,-0.545 7.031,-1.635c2.767,-1.4 4.15,-3.345 4.15,-5.835c0,-2.051 -1.164,-3.671 -3.491,-4.859c-1.969,-1.025 -4.403,-1.579 -7.3,-1.66c-2.571,-0.098 -4.761,-0.659 -6.567,-1.684c-2.311,-1.319 -3.467,-3.207 -3.467,-5.665c-0,-2.897 1.644,-5.542 4.932,-7.934c3.141,-2.262 6.388,-3.394 9.741,-3.394c1.579,0 3.361,0.269 5.347,0.806c2.636,0.7 3.955,1.595 3.955,2.686c-0,1.432 -0.733,2.148 -2.198,2.148c-0.651,-0 -1.79,-0.175 -3.418,-0.525c-1.627,-0.35 -2.889,-0.517 -3.784,-0.5c-2.539,0.032 -4.695,0.659 -6.47,1.879c-1.822,1.254 -2.734,2.776 -2.734,4.566c0,1.351 1.205,2.303 3.613,2.856c0.896,0.212 2.629,0.407 5.201,0.586c3.727,0.277 6.64,1.449 8.74,3.516c1.92,1.888 2.881,4.191 2.881,6.909c-0,3.874 -1.791,6.966 -5.371,9.277c-3.109,2.002 -6.714,3.003 -10.816,3.003c-2.978,0 -5.705,-0.569 -8.179,-1.709c-3.027,-1.399 -4.565,-3.32 -4.614,-5.761Z" style="fill-rule:nonzero;"/><path d="M1648.13,250.997c-0.228,0 -0.48,-0.04 -0.757,-0.122c-2.75,-0.781 -5.403,-1.172 -7.958,-1.172c-1.335,0 -2.792,0.123 -4.371,0.367c-1.578,0.244 -3.279,0.618 -5.102,1.123c0.146,1.058 0.22,1.904 0.22,2.539c-0,2.262 -0.139,5.371 -0.415,9.326l10.693,-1.025c3.141,-0.326 5.07,-0.489 5.786,-0.489c0.716,0 1.318,0.228 1.807,0.684c0.488,0.456 0.732,1.066 0.732,1.831c0,1.481 -0.749,2.311 -2.246,2.49l-5.811,0.513l-11.279,1.025c-0.065,1.156 -0.118,2.25 -0.159,3.284c-0.04,1.033 -0.061,1.998 -0.061,2.893c0,3.597 0.261,5.713 0.782,6.348c0.39,0.455 1.668,0.683 3.833,0.683c1.009,0 2.527,-0.028 4.553,-0.085c2.026,-0.057 3.552,-0.086 4.578,-0.086c0.325,0 0.805,-0.053 1.44,-0.158c0.635,-0.106 1.107,-0.159 1.416,-0.159c1.725,-0 2.588,0.846 2.588,2.539c-0,1.367 -0.692,2.189 -2.075,2.466c-1.53,0.309 -4.842,0.464 -9.937,0.464c-5.045,-0 -8.284,-0.668 -9.717,-2.002c-1.562,-1.449 -2.343,-4.785 -2.343,-10.01c-0,-1.042 0.024,-2.181 0.073,-3.418c0.049,-1.237 0.114,-2.572 0.195,-4.004c-0.179,-0.374 -0.268,-0.773 -0.268,-1.196c-0,-0.554 0.154,-1.05 0.463,-1.489c0.326,-4.704 0.489,-8.179 0.489,-10.425c-0,-0.602 -0.082,-1.485 -0.244,-2.649c-0.163,-1.164 -0.245,-2.047 -0.245,-2.649c0,-1.937 0.814,-2.905 2.442,-2.905c0.683,-0 1.269,0.236 1.758,0.708c1.953,-0.521 3.796,-0.912 5.529,-1.172c1.734,-0.261 3.366,-0.391 4.896,-0.391c3.955,0 7.112,0.472 9.472,1.416c1.091,0.44 1.636,1.221 1.636,2.344c-0,0.651 -0.212,1.229 -0.635,1.733c-0.472,0.554 -1.058,0.83 -1.758,0.83Z" style="fill-rule:nonzero;"/><path d="M1679.09,256.466c-1.041,0 -1.823,-0.61 -2.343,-1.831c-0.456,-1.042 -0.879,-1.676 -1.27,-1.904c-0.342,-0.179 -1.188,-0.269 -2.539,-0.269c-2.36,0 -4.98,1.807 -7.861,5.42c-3.907,4.85 -5.86,9.448 -5.86,13.794c0,2.1 0.676,3.906 2.027,5.42c1.383,1.563 3.051,2.344 5.005,2.344c1.676,-0 3.361,-0.432 5.053,-1.294c0.944,-0.488 2.393,-1.449 4.346,-2.881c0.928,-0.684 1.628,-1.025 2.1,-1.025c0.699,-0 1.285,0.264 1.757,0.793c0.472,0.529 0.708,1.119 0.708,1.77c0,0.733 -0.309,1.375 -0.927,1.929c-4.297,3.808 -8.643,5.713 -13.037,5.713c-3.37,-0 -6.218,-1.294 -8.545,-3.882c-2.246,-2.507 -3.37,-5.469 -3.37,-8.887c0,-5.517 2.312,-11.173 6.934,-16.968c3.858,-4.834 7.747,-7.251 11.67,-7.251c0.798,0 1.514,0.037 2.148,0.11c0.635,0.073 1.197,0.191 1.685,0.354c0.57,-0.83 1.31,-1.245 2.222,-1.245c1.123,0 1.831,0.741 2.124,2.222c0.26,1.318 0.39,2.938 0.39,4.858c0,0.668 -0.179,1.253 -0.537,1.758c-0.439,0.635 -1.066,0.952 -1.88,0.952Z" style="fill-rule:nonzero;"/><path d="M1701.85,285.348c-4.59,0 -8.48,-1.375 -11.67,-4.126c-3.385,-2.93 -5.078,-6.706 -5.078,-11.328c0,-5.632 1.669,-10.75 5.005,-15.357c3.727,-5.11 8.374,-7.666 13.941,-7.666c5.354,0 9.334,1.205 11.938,3.614c2.718,2.506 4.077,6.461 4.077,11.865c0,5.631 -1.53,10.71 -4.59,15.234c-3.515,5.176 -8.056,7.764 -13.623,7.764Zm2.198,-33.472c-3.988,0 -7.365,1.986 -10.132,5.957c-2.556,3.646 -3.833,7.666 -3.833,12.061c-0,3.141 1.163,5.697 3.491,7.666c2.23,1.855 4.989,2.783 8.276,2.783c3.955,0 7.219,-1.994 9.79,-5.981c2.295,-3.565 3.443,-7.569 3.443,-12.012c-0,-3.89 -0.871,-6.624 -2.613,-8.203c-1.66,-1.514 -4.467,-2.271 -8.422,-2.271Z" style="fill-rule:nonzero;"/><path d="M1759.8,278.439c0,0.781 -0.13,2.083 -0.39,3.906c-0.261,1.644 -1.132,2.466 -2.613,2.466c-0.895,-0 -1.961,-0.586 -3.198,-1.758c-6.624,-6.266 -14.225,-15.308 -22.803,-27.124l-0.122,5.542l-0.073,5.566c0,1.351 0.029,3.378 0.085,6.08c0.057,2.701 0.086,4.736 0.086,6.103c-0,4.378 -0.846,6.567 -2.539,6.567c-0.895,0 -1.603,-0.284 -2.124,-0.854c-0.472,-0.505 -0.708,-1.107 -0.708,-1.807c-0,-0.683 0.053,-1.717 0.159,-3.1c0.105,-1.384 0.158,-2.417 0.158,-3.101c0,-1.009 0.033,-2.519 0.098,-4.529c0.065,-2.01 0.098,-3.519 0.098,-4.528c-0,-1.075 -0.025,-2.698 -0.074,-4.871c-0.049,-2.173 -0.073,-3.796 -0.073,-4.871c0,-1.025 -0.098,-2.551 -0.293,-4.577c-0.195,-2.027 -0.293,-3.553 -0.293,-4.578c0,-0.749 0.322,-1.432 0.964,-2.051c0.643,-0.618 1.372,-0.927 2.186,-0.927c0.862,-0 1.928,0.944 3.198,2.832c4.052,6.071 7.698,11.116 10.937,15.136c3.858,4.769 8.089,9.326 12.696,13.672c0.048,-0.7 0.048,-1.733 -0,-3.1l-0.074,-3.077c0,-7.145 -0.276,-12.833 -0.83,-17.065c-0.065,-0.423 -0.285,-1.278 -0.659,-2.563c-0.325,-1.107 -0.488,-1.97 -0.488,-2.588c-0,-1.888 0.862,-2.832 2.588,-2.832c2.832,-0 4.248,5.281 4.248,15.844c-0,1.807 -0.025,4.505 -0.074,8.094c-0.048,3.588 -0.073,6.286 -0.073,8.093Z" style="fill-rule:nonzero;"/><path d="M1788.3,283.688c-2.522,1.725 -6.144,2.588 -10.864,2.588c-1.188,-0 -2.547,-0.187 -4.077,-0.562c-1.839,-0.439 -3.223,-1.009 -4.15,-1.709l-0.244,0c-0.7,0 -1.286,-0.244 -1.758,-0.732c-0.472,-0.488 -0.708,-1.083 -0.708,-1.782c-0,-1.709 0.077,-4.269 0.232,-7.679c0.154,-3.409 0.232,-5.969 0.232,-7.678c-0,-1.904 -0.037,-4.748 -0.11,-8.533c-0.074,-3.784 -0.11,-6.628 -0.11,-8.532c-0,-0.668 0.342,-1.367 1.025,-2.1c0.684,-0.732 1.367,-1.099 2.051,-1.099c0.391,0 1.693,0.546 3.906,1.636c2.507,1.221 3.955,1.896 4.346,2.027c4.622,1.578 8.561,4.003 11.816,7.275c3.825,3.857 5.738,8.097 5.738,12.72c-0,2.783 -0.655,5.452 -1.966,8.008c-1.31,2.555 -3.096,4.606 -5.359,6.152Zm-5.126,-25.83c-1.661,-1.091 -5.494,-2.962 -11.5,-5.615l0.123,7.031l0.073,7.007l-0.391,13.33c0.114,0.049 0.285,0.154 0.513,0.317c1.432,0.96 3.239,1.441 5.42,1.441c3.711,-0 6.413,-0.57 8.105,-1.709c1.579,-1.075 2.836,-2.519 3.772,-4.334c0.936,-1.815 1.404,-3.707 1.404,-5.676c0,-4.59 -2.506,-8.521 -7.519,-11.792Z" style="fill-rule:nonzero;"/><path d="M1828.63,284.591c-1.497,0 -2.799,-1.92 -3.906,-5.762c-0.423,-1.464 -0.952,-4.028 -1.587,-7.69c-1.66,0.228 -3.833,0.635 -6.518,1.221l-6.494,1.343c-0.814,2.132 -2.206,5.249 -4.175,9.35c-0.521,0.912 -1.229,1.367 -2.124,1.367c-0.651,0 -1.233,-0.236 -1.746,-0.708c-0.512,-0.472 -0.769,-1.058 -0.769,-1.758c0,-0.781 1.229,-3.751 3.687,-8.911c-0.277,-0.423 -0.415,-0.911 -0.415,-1.465c-0,-1.318 0.797,-2.164 2.392,-2.539c1.856,-3.483 4.199,-7.487 7.031,-12.011c3.858,-6.169 6.259,-9.253 7.203,-9.253c1.285,-0 2.164,0.895 2.636,2.685l1.538,8.203l3.638,16.968l1.392,3.858c0.472,1.318 0.708,2.197 0.708,2.636c-0,0.7 -0.253,1.286 -0.757,1.758c-0.505,0.472 -1.082,0.708 -1.734,0.708Zm-8.618,-27.905l-6.982,11.255c1.969,-0.505 4.956,-1.115 8.96,-1.831l-1.978,-9.424Z" style="fill-rule:nonzero;"/><path d="M1862.17,284.127c-0.618,0 -1.196,-0.26 -1.733,-0.781c-5.387,-5.322 -11.377,-8.903 -17.969,-10.742l0.196,4.785l0.122,4.81c-0,0.716 -0.232,1.314 -0.696,1.794c-0.464,0.48 -1.046,0.72 -1.746,0.72c-0.7,0 -1.281,-0.24 -1.745,-0.72c-0.464,-0.48 -0.696,-1.078 -0.696,-1.794c-0,-1.286 -0.061,-3.203 -0.183,-5.75c-0.122,-2.547 -0.183,-4.464 -0.183,-5.749c-0,-1.498 0.162,-3.728 0.488,-6.69c0.325,-2.962 0.488,-5.184 0.488,-6.665c0,-0.83 -0.077,-2.059 -0.232,-3.686c-0.154,-1.628 -0.232,-2.857 -0.232,-3.687c0,-0.928 0.261,-1.742 0.782,-2.441c0.618,-0.863 1.473,-1.254 2.563,-1.172l5.884,0.464c2.23,0.276 4.11,0.822 5.639,1.635c6.592,3.5 9.888,7.772 9.888,12.818c0,2.474 -1.123,4.663 -3.369,6.567c-1.807,1.53 -4.061,2.694 -6.763,3.491c5.062,2.718 8.846,5.583 11.353,8.594c0.423,0.521 0.635,1.074 0.635,1.66c-0,0.684 -0.249,1.278 -0.745,1.782c-0.496,0.505 -1.078,0.757 -1.746,0.757Zm-15.551,-32.275l-3.614,-0.293l0.245,2.954c0.113,1.204 0.17,2.189 0.17,2.954c0,1.302 -0.105,2.922 -0.317,4.859l-0.513,4.858c0.228,-0 1.905,0.049 2.149,0.049c4.15,-0 7.259,-0.554 9.326,-1.66c0.911,-0.505 1.758,-1.164 2.539,-1.978c0.863,-0.911 1.294,-1.684 1.294,-2.319c-0,-2.263 -1.286,-4.37 -3.857,-6.323c-2.36,-1.791 -4.834,-2.824 -7.422,-3.101Z" style="fill-rule:nonzero;"/><path d="M1894.72,252.633c-0.39,0.619 -0.911,1.571 -1.562,2.857l-4.199,10.376c-1.628,3.89 -3.158,7.291 -4.59,10.205l-3.052,5.444l-1.294,2.637c-0.537,0.944 -1.261,1.416 -2.173,1.416c-0.635,-0 -1.212,-0.236 -1.733,-0.708c-0.521,-0.472 -0.781,-1.058 -0.781,-1.758c-0,-0.553 0.765,-2.287 2.295,-5.2l3.002,-5.493c-2.913,-3.76 -4.801,-6.722 -5.664,-8.887c-0.732,-1.839 -1.953,-4.045 -3.662,-6.616c-2.343,-3.516 -3.719,-5.64 -4.126,-6.372c-0.244,-0.44 -0.366,-0.879 -0.366,-1.319c0,-0.7 0.256,-1.29 0.769,-1.77c0.513,-0.48 1.095,-0.72 1.746,-0.72c0.797,-0 1.465,0.382 2.002,1.147l1.953,3.028c1.725,2.555 2.864,4.297 3.418,5.224c1.22,2.002 2.173,3.858 2.856,5.567c0.537,1.351 1.685,3.198 3.443,5.542l5.59,-13.623c0.635,-1.123 1.514,-2.857 2.637,-5.2c0.456,-1.107 1.213,-1.661 2.271,-1.661c0.651,0 1.233,0.228 1.745,0.684c0.513,0.456 0.769,1.042 0.769,1.758c0,0.748 -0.431,1.896 -1.294,3.442Z" style="fill-rule:nonzero;"/><path d="M2641.4,284.591c-1.497,0 -2.799,-1.92 -3.906,-5.762c-0.423,-1.464 -0.952,-4.028 -1.587,-7.69c-1.66,0.228 -3.833,0.635 -6.518,1.221l-6.494,1.343c-0.814,2.132 -2.206,5.249 -4.175,9.35c-0.521,0.912 -1.229,1.367 -2.124,1.367c-0.651,0 -1.233,-0.236 -1.746,-0.708c-0.513,-0.472 -0.769,-1.058 -0.769,-1.758c0,-0.781 1.229,-3.751 3.687,-8.911c-0.277,-0.423 -0.415,-0.911 -0.415,-1.465c-0,-1.318 0.797,-2.164 2.392,-2.539c1.856,-3.483 4.199,-7.487 7.031,-12.011c3.858,-6.169 6.259,-9.253 7.203,-9.253c1.285,-0 2.164,0.895 2.636,2.685l1.538,8.203l3.638,16.968l1.392,3.858c0.472,1.318 0.708,2.197 0.708,2.636c-0,0.7 -0.253,1.286 -0.757,1.758c-0.505,0.472 -1.082,0.708 -1.734,0.708Zm-8.618,-27.905l-6.982,11.255c1.969,-0.505 4.956,-1.115 8.96,-1.831l-1.978,-9.424Z" style="fill-rule:nonzero;"/><path d="M2669.09,282.882c-3.662,1.432 -8.341,2.149 -14.038,2.149c-0.7,-0 -1.363,-0.33 -1.99,-0.989c-0.626,-0.659 -0.94,-1.339 -0.94,-2.039l0,-7.104c0,-2.328 0.147,-5.648 0.44,-9.961c0.325,-4.655 0.504,-8.024 0.537,-10.108c-0.016,-1.497 0.073,-3.727 0.268,-6.689c0.114,-0.814 0.383,-1.351 0.806,-1.611c2.214,-0.684 4.728,-1.026 7.544,-1.026c2.865,0 5.615,0.977 8.252,2.93c3.044,2.246 4.565,5.021 4.565,8.325c0,4.183 -1.627,7.479 -4.882,9.888c2.441,1.042 4.268,2.197 5.48,3.467c1.213,1.269 1.819,2.653 1.819,4.15c0,1.969 -1.066,3.874 -3.198,5.713c-1.481,1.302 -3.035,2.27 -4.663,2.905Zm-7.373,-32.397c-1.774,-0 -3.019,0.057 -3.735,0.171l-0.049,4.272l-0.488,9.448c2.311,0.196 3.548,0.285 3.71,0.269c2.458,-0.195 4.468,-0.96 6.031,-2.295c1.676,-1.449 2.514,-3.312 2.514,-5.591c0,-1.546 -0.854,-2.978 -2.563,-4.297c-1.709,-1.318 -3.516,-1.977 -5.42,-1.977Zm2.734,19.555l-2.588,-0.415c-0.211,0 -1.725,0.074 -1.953,0.074c-0.879,-0 -1.814,-0.074 -2.807,-0.22c-0.098,2.051 -0.147,3.882 -0.147,5.493l0,5.054c4.265,-0.147 7.739,-0.749 10.425,-1.807c1.139,-0.439 2.23,-1.123 3.272,-2.051c0.992,-0.846 1.489,-1.481 1.489,-1.904c-0,-0.765 -1.042,-1.628 -3.125,-2.588c-1.563,-0.732 -3.085,-1.278 -4.566,-1.636Z" style="fill-rule:nonzero;"/><path d="M2698.56,285.348c-4.59,0 -8.48,-1.375 -11.67,-4.126c-3.386,-2.93 -5.078,-6.706 -5.078,-11.328c-0,-5.632 1.668,-10.75 5.005,-15.357c3.727,-5.11 8.374,-7.666 13.94,-7.666c5.355,0 9.334,1.205 11.939,3.614c2.718,2.506 4.077,6.461 4.077,11.865c-0,5.631 -1.53,10.71 -4.59,15.234c-3.516,5.176 -8.057,7.764 -13.623,7.764Zm2.197,-33.472c-3.988,0 -7.365,1.986 -10.132,5.957c-2.555,3.646 -3.833,7.666 -3.833,12.061c0,3.141 1.164,5.697 3.491,7.666c2.23,1.855 4.989,2.783 8.277,2.783c3.955,0 7.218,-1.994 9.79,-5.981c2.295,-3.565 3.442,-7.569 3.442,-12.012c0,-3.89 -0.871,-6.624 -2.612,-8.203c-1.66,-1.514 -4.468,-2.271 -8.423,-2.271Z" style="fill-rule:nonzero;"/><path d="M2738.18,284.835c-5.062,0 -8.838,-1.456 -11.328,-4.37c-2.019,-2.344 -3.288,-5.81 -3.809,-10.4c-0.244,-2.067 -0.366,-6.193 -0.366,-12.378c-0,-2.279 0.049,-4.118 0.146,-5.518c0.098,-1.481 0.245,-2.514 0.44,-3.1c0.407,-1.188 1.139,-1.783 2.197,-1.783c1.497,0 2.246,1.376 2.246,4.126l0,14.332c0,9.863 3.451,14.794 10.352,14.794c6.494,0 9.741,-8.3 9.741,-24.902l-0,-2.392c-0.016,-0.977 -0.024,-1.628 -0.024,-1.954c-0,-1.009 0.179,-1.896 0.537,-2.661c0.455,-0.976 1.131,-1.465 2.026,-1.465c1.628,0 2.441,1.115 2.441,3.345c0,0.667 0.009,1.677 0.025,3.027l-0,3.028c-0,18.847 -4.875,28.271 -14.624,28.271Z" style="fill-rule:nonzero;"/><path d="M2788.99,253.024c-1.204,-0 -3.059,-0.098 -5.566,-0.293c-2.441,-0.179 -4.297,-0.261 -5.566,-0.244l-1.734,-0c0.049,2.246 0.269,5.892 0.659,10.937c0.359,4.704 0.538,8.358 0.538,10.962c-0,0.57 0.057,1.432 0.17,2.588c0.114,1.156 0.171,2.026 0.171,2.612c0,1.107 -0.179,2.059 -0.537,2.857c-0.455,1.074 -1.163,1.611 -2.124,1.611c-0.651,0 -1.237,-0.228 -1.758,-0.684c-0.52,-0.455 -0.781,-1.041 -0.781,-1.757c0,-0.244 0.041,-0.611 0.122,-1.099c0.082,-0.488 0.122,-0.854 0.122,-1.099c0,-0.797 -0.053,-1.993 -0.158,-3.588c-0.106,-1.596 -0.159,-2.8 -0.159,-3.614c-0,-2.327 -0.187,-5.599 -0.562,-9.814c-0.39,-4.557 -0.61,-7.829 -0.659,-9.815l-2.221,0.025c-3.565,-0 -6.364,-0.261 -8.399,-0.781c-1.318,-0.342 -1.977,-1.148 -1.977,-2.417c-0,-0.668 0.211,-1.254 0.634,-1.758c0.489,-0.57 1.115,-0.83 1.88,-0.782c0.57,0.033 1.872,0.179 3.906,0.44c1.628,0.195 2.946,0.293 3.956,0.293c0.976,-0 2.457,-0.02 4.443,-0.061c1.986,-0.041 3.467,-0.061 4.443,-0.061c1.254,-0 3.113,0.089 5.579,0.268c2.466,0.179 4.325,0.269 5.578,0.269c0.7,-0 1.286,0.24 1.758,0.72c0.472,0.48 0.708,1.078 0.708,1.795c0,0.699 -0.236,1.289 -0.708,1.77c-0.472,0.48 -1.058,0.72 -1.758,0.72Z" style="fill-rule:nonzero;"/><path d="M612.141,435.683l-0.367,12.134c0,1.285 -0.065,3.173 -0.195,5.664c-0.163,1.627 -0.96,2.441 -2.393,2.441c-1.595,0 -2.392,-0.83 -2.392,-2.49c-0,-1.97 0.089,-4.928 0.268,-8.875c0.179,-3.947 0.269,-6.905 0.269,-8.874c-0,-2.572 0.041,-5.514 0.122,-8.826c0.081,-3.312 0.122,-6.254 0.122,-8.826c0,-1.627 0.798,-2.441 2.393,-2.441c1.611,0 2.417,0.814 2.417,2.441c-0,2.572 -0.041,5.514 -0.122,8.826c-0.082,3.312 -0.122,6.254 -0.122,8.826Z" style="fill-rule:nonzero;"/><path d="M628.791,456.313c-2.734,-0 -5.086,-1.009 -7.056,-3.028c-2.197,-2.246 -3.353,-5.265 -3.467,-9.057c-0.097,-3.679 0.831,-6.918 2.784,-9.717c2.278,-3.304 5.452,-4.956 9.521,-4.956c3.255,-0 5.721,1.489 7.398,4.468c1.334,2.409 1.977,5.306 1.928,8.691c-0.048,3.613 -0.992,6.698 -2.832,9.253c-2.083,2.897 -4.842,4.346 -8.276,4.346Zm1.465,-21.802c-2.393,-0.016 -4.256,1.123 -5.591,3.418c-1.058,1.839 -1.587,3.939 -1.587,6.299c0,2.36 0.643,4.199 1.929,5.517c1.074,1.091 2.335,1.636 3.784,1.636c1.693,0 3.149,-0.618 4.37,-1.855c1.384,-1.368 2.116,-3.215 2.197,-5.542c0.228,-6.299 -1.473,-9.457 -5.102,-9.473Z" style="fill-rule:nonzero;"/><path d="M664.924,436.83c-0.114,2.035 -0.928,3.052 -2.442,3.052c-1.399,0 -2.099,-0.806 -2.099,-2.417c-0,-0.309 -0.025,-0.879 -0.073,-1.709l-0.074,-2.051c-2.571,0.31 -4.63,1.034 -6.176,2.173c-1.449,1.058 -2.653,2.653 -3.614,4.785l0.049,13.379c0,1.644 -0.806,2.466 -2.417,2.466c-1.432,0 -2.148,-0.822 -2.148,-2.466l-0,-17.138c-0,-0.538 0.02,-1.343 0.061,-2.417c0.04,-1.075 0.061,-1.88 0.061,-2.417c-0,-1.644 0.716,-2.466 2.148,-2.466c1.595,-0 2.401,1.351 2.417,4.052c3.125,-3.011 6.592,-4.516 10.401,-4.516c1.318,-0 2.303,0.496 2.954,1.489c0.651,0.993 0.976,2.49 0.976,4.492c0,0.847 -0.008,1.416 -0.024,1.709Z" style="fill-rule:nonzero;"/><path d="M681.354,455.995c-3.678,0 -6.656,-0.919 -8.935,-2.758c-2.49,-2.035 -3.735,-4.883 -3.735,-8.545c-0,-4.232 1.025,-7.78 3.076,-10.645c2.23,-3.125 5.208,-4.687 8.935,-4.687c2.702,-0 4.907,0.455 6.616,1.367c2.1,1.123 3.15,2.848 3.15,5.176c-0,1.627 -0.92,3.108 -2.759,4.443c-0.814,0.586 -2.539,1.497 -5.176,2.734l-9.326,4.419c0.912,1.351 2.047,2.368 3.406,3.052c1.359,0.684 2.942,1.025 4.748,1.025c1.123,0 2.442,-0.211 3.956,-0.634c1.92,-0.537 3.157,-1.241 3.71,-2.112c0.554,-0.871 1.148,-1.306 1.783,-1.306c0.569,-0 1.078,0.215 1.526,0.647c0.447,0.431 0.671,0.931 0.671,1.501c-0,1.807 -1.457,3.361 -4.37,4.663c-2.49,1.107 -4.916,1.66 -7.276,1.66Zm-0.659,-22.241c-1.985,0 -3.637,0.769 -4.956,2.307c-1.318,1.538 -2.303,3.854 -2.954,6.946l7.495,-3.564c2.946,-1.433 5.046,-2.678 6.299,-3.736c-1.4,-1.302 -3.361,-1.953 -5.884,-1.953Z" style="fill-rule:nonzero;"/><path d="M728.351,456.899c-1.334,-0 -2.115,-0.708 -2.343,-2.124c-0.293,-1.791 -0.586,-4.314 -0.879,-7.569l-0.83,-7.568c-0.163,-1.123 -0.44,-2.222 -0.83,-3.296c-0.554,-1.465 -1.156,-2.197 -1.807,-2.197c-0.602,-0 -1.725,0.512 -3.369,1.538c-1.563,0.944 -2.588,1.701 -3.076,2.27c-0.017,1.53 0.024,3.06 0.122,4.59l0.732,6.519c0.309,2.571 0.464,4.695 0.464,6.372c0,0.716 -0.224,1.306 -0.671,1.77c-0.448,0.464 -1.022,0.696 -1.721,0.696c-0.7,-0 -1.274,-0.232 -1.722,-0.696c-0.447,-0.464 -0.671,-1.054 -0.671,-1.77c-0,-1.97 -0.199,-4.879 -0.598,-8.728c-0.399,-3.849 -0.598,-6.759 -0.598,-8.728c-0,-1.725 -0.244,-3.068 -0.733,-4.029c-1.139,0.521 -2.295,1.368 -3.467,2.54l-2.88,3.222c-0.261,0.391 -0.676,0.903 -1.246,1.538c0,0.977 -0.089,2.417 -0.268,4.322c-0.179,1.904 -0.269,3.312 -0.269,4.223c0,0.488 0.078,1.172 0.232,2.051c0.155,0.879 0.232,1.514 0.232,1.904c0,0.668 -0.248,1.229 -0.744,1.685c-0.497,0.456 -1.079,0.683 -1.746,0.683c-1.839,0 -2.759,-2.091 -2.759,-6.274c0,-0.977 0.09,-2.433 0.269,-4.37c0.179,-1.937 0.268,-3.394 0.268,-4.37c0,-0.863 -0.077,-2.157 -0.232,-3.882c-0.154,-1.725 -0.232,-3.027 -0.232,-3.906c0,-3.695 0.831,-5.542 2.491,-5.542c0.634,-0 1.216,0.276 1.745,0.83c0.529,0.553 0.794,1.155 0.794,1.806c-0,0.31 -0.041,0.79 -0.122,1.441c-0.082,0.651 -0.122,1.147 -0.122,1.489l0.048,2.564c0.847,-1.742 2.092,-3.317 3.736,-4.725c1.644,-1.407 3.043,-2.111 4.199,-2.111c2.555,-0 4.313,1.269 5.273,3.808c0.896,-1.188 1.962,-2.079 3.199,-2.673c1.237,-0.594 2.653,-0.891 4.248,-0.891c2.718,-0 4.573,1.465 5.566,4.394c0.195,0.586 0.529,2.873 1.001,6.861c0.456,2.799 1.042,7.462 1.758,13.989c0.049,0.651 -0.171,1.204 -0.659,1.66c-0.489,0.456 -1.083,0.684 -1.783,0.684Z" style="fill-rule:nonzero;"/><path d="M755.793,423.964c-0.781,0 -1.457,-0.277 -2.026,-0.83c-0.57,-0.553 -0.855,-1.221 -0.855,-2.002c0,-0.781 0.285,-1.448 0.855,-2.002c0.569,-0.553 1.245,-0.83 2.026,-0.83c0.781,0 1.453,0.277 2.014,0.83c0.562,0.554 0.842,1.221 0.842,2.002c0,0.781 -0.28,1.449 -0.842,2.002c-0.561,0.553 -1.233,0.83 -2.014,0.83Zm1.099,19.824c-0,0.977 0.028,2.438 0.085,4.383c0.057,1.945 0.085,3.405 0.085,4.382c0,0.716 -0.219,1.302 -0.659,1.758c-0.439,0.456 -1.017,0.683 -1.733,0.683c-0.7,0 -1.274,-0.227 -1.721,-0.683c-0.448,-0.456 -0.672,-1.042 -0.672,-1.758c0,-0.977 -0.028,-2.437 -0.085,-4.382c-0.057,-1.945 -0.086,-3.406 -0.086,-4.383c0,-1.53 0.082,-3.438 0.245,-5.725c0.162,-2.287 0.244,-4.195 0.244,-5.725c-0,-0.732 0.223,-1.326 0.671,-1.782c0.448,-0.456 1.021,-0.684 1.721,-0.684c0.7,0 1.274,0.228 1.721,0.684c0.448,0.456 0.672,1.05 0.672,1.782c-0,1.53 -0.082,3.438 -0.244,5.725c-0.163,2.287 -0.244,4.195 -0.244,5.725Z" style="fill-rule:nonzero;"/><path d="M775.519,455.727c-1.627,-0 -3.418,-0.261 -5.371,-0.781l-0.048,11.669c-0,0.717 -0.224,1.303 -0.672,1.758c-0.447,0.456 -1.021,0.684 -1.721,0.684c-0.7,-0 -1.274,-0.228 -1.721,-0.684c-0.448,-0.455 -0.672,-1.041 -0.672,-1.758l0.074,-9.765l-0,-9.741c-0.049,-3.565 -0.171,-6.812 -0.367,-9.742l-0.366,-4.956c0,-1.155 0.212,-2.132 0.635,-2.929c0.488,-0.961 1.196,-1.441 2.124,-1.441c0.635,0 1.168,0.224 1.599,0.672c0.431,0.447 0.647,0.997 0.647,1.648c0,0.146 -0.024,0.415 -0.073,0.805c-0.082,0.505 -0.139,0.969 -0.171,1.392c1.4,-0.96 2.751,-1.681 4.053,-2.161c1.302,-0.48 2.547,-0.72 3.735,-0.72c3.337,-0 5.778,1.481 7.324,4.443c1.221,2.344 1.831,5.445 1.831,9.302c0,3.516 -0.944,6.413 -2.832,8.692c-2.002,2.408 -4.671,3.613 -8.008,3.613Zm1.685,-21.167c-1.497,-0 -2.848,0.333 -4.053,1.001c-0.862,0.472 -1.953,1.334 -3.271,2.588c0.211,3.694 0.317,7.576 0.317,11.645c1.774,0.684 3.548,1.026 5.322,1.026c2.035,-0 3.589,-0.757 4.664,-2.271c0.927,-1.318 1.391,-3.027 1.391,-5.127c0,-2.962 -0.362,-5.18 -1.086,-6.653c-0.725,-1.473 -1.819,-2.209 -3.284,-2.209Z" style="fill-rule:nonzero;"/><path d="M808.356,436.073c-0.895,0 -1.521,-0.301 -1.88,-0.903c-0.244,-0.423 -0.455,-1.302 -0.634,-2.637c-1.221,0.31 -3.101,0.879 -5.64,1.709c-2.62,1.042 -3.939,2.328 -3.955,3.858c0.488,0.179 0.968,0.309 1.44,0.39c3.744,0.668 6.527,1.587 8.35,2.759c2.653,1.709 3.98,4.183 3.98,7.422c-0,2.653 -1.148,4.655 -3.443,6.006c-1.904,1.107 -4.313,1.66 -7.226,1.66c-2.133,0 -4.167,-0.358 -6.104,-1.074c-2.506,-0.912 -3.76,-2.181 -3.76,-3.809c0,-0.651 0.257,-1.22 0.769,-1.709c0.513,-0.488 1.095,-0.732 1.746,-0.732c0.505,-0 1.156,0.391 1.953,1.172c0.391,0.374 1.27,0.683 2.637,0.928c1.09,0.195 2.01,0.293 2.759,0.293c1.367,-0 2.571,-0.163 3.613,-0.489c1.514,-0.472 2.27,-1.22 2.27,-2.246c0,-2.213 -1.546,-3.711 -4.638,-4.492l-2.539,-0.562c-2.165,-0.472 -3.703,-1.025 -4.615,-1.66c-1.318,-0.911 -1.977,-2.287 -1.977,-4.126c-0,-3.401 1.603,-5.827 4.809,-7.275c0.977,-0.44 2.539,-0.964 4.688,-1.575c2.148,-0.61 3.686,-1.127 4.614,-1.55c0.667,-0.293 1.392,-0.44 2.173,-0.44c0.7,0 1.274,0.228 1.721,0.684c0.448,0.456 0.672,1.05 0.672,1.782c-0,0.472 0.101,1.164 0.305,2.075c0.203,0.912 0.305,1.604 0.305,2.076c-0,0.732 -0.224,1.326 -0.671,1.782c-0.448,0.456 -1.022,0.683 -1.722,0.683Z" style="fill-rule:nonzero;"/><path d="M836.14,440.614c-0,1.172 0.008,2.93 0.024,5.274c0.016,2.344 0.024,4.101 0.024,5.273c0,0.358 0.029,0.904 0.086,1.636c0.057,0.733 0.085,1.278 0.085,1.636c0,0.7 -0.236,1.273 -0.708,1.721c-0.472,0.448 -1.05,0.671 -1.733,0.671c-1.253,0 -2.051,-0.773 -2.393,-2.319c-2.034,1.058 -4.378,1.587 -7.031,1.587c-2.132,0 -3.898,-0.472 -5.298,-1.416c-1.546,-1.042 -2.466,-2.563 -2.759,-4.565c-0.634,-4.314 -0.952,-8.155 -0.952,-11.524c0,-2.23 0.244,-4.769 0.733,-7.617c0.228,-1.416 1.001,-2.124 2.319,-2.124c0.7,-0 1.286,0.224 1.758,0.671c0.472,0.448 0.708,1.022 0.708,1.721c-0,0.749 -0.118,1.945 -0.354,3.589c-0.236,1.644 -0.354,2.897 -0.354,3.76c-0,2.718 0.089,5.046 0.268,6.983c0.179,1.936 0.448,3.491 0.806,4.663c0.537,0.293 1.066,0.516 1.587,0.671c0.521,0.155 1.034,0.232 1.538,0.232c2.181,-0 4.484,-0.35 6.909,-1.05l-0.024,-4.956l-0.049,-4.736c0,-3.516 0.155,-6.568 0.464,-9.156c0.179,-1.497 0.968,-2.246 2.368,-2.246c0.7,0 1.286,0.228 1.758,0.684c0.472,0.456 0.692,1.025 0.659,1.709l-0.439,9.228Z" style="fill-rule:nonzero;"/><path d="M873.225,456.899c-1.335,-0 -2.116,-0.708 -2.344,-2.124c-0.293,-1.791 -0.586,-4.314 -0.879,-7.569l-0.83,-7.568c-0.163,-1.123 -0.44,-2.222 -0.83,-3.296c-0.554,-1.465 -1.156,-2.197 -1.807,-2.197c-0.602,-0 -1.725,0.512 -3.369,1.538c-1.563,0.944 -2.588,1.701 -3.076,2.27c-0.017,1.53 0.024,3.06 0.122,4.59l0.732,6.519c0.31,2.571 0.464,4.695 0.464,6.372c0,0.716 -0.224,1.306 -0.671,1.77c-0.448,0.464 -1.022,0.696 -1.721,0.696c-0.7,-0 -1.274,-0.232 -1.722,-0.696c-0.447,-0.464 -0.671,-1.054 -0.671,-1.77c-0,-1.97 -0.199,-4.879 -0.598,-8.728c-0.399,-3.849 -0.598,-6.759 -0.598,-8.728c-0,-1.725 -0.244,-3.068 -0.733,-4.029c-1.139,0.521 -2.295,1.368 -3.467,2.54l-2.88,3.222c-0.261,0.391 -0.676,0.903 -1.246,1.538c0,0.977 -0.089,2.417 -0.268,4.322c-0.179,1.904 -0.269,3.312 -0.269,4.223c0,0.488 0.078,1.172 0.232,2.051c0.155,0.879 0.232,1.514 0.232,1.904c0,0.668 -0.248,1.229 -0.744,1.685c-0.497,0.456 -1.079,0.683 -1.746,0.683c-1.839,0 -2.759,-2.091 -2.759,-6.274c0,-0.977 0.09,-2.433 0.269,-4.37c0.179,-1.937 0.268,-3.394 0.268,-4.37c0,-0.863 -0.077,-2.157 -0.232,-3.882c-0.154,-1.725 -0.232,-3.027 -0.232,-3.906c0,-3.695 0.831,-5.542 2.491,-5.542c0.634,-0 1.216,0.276 1.745,0.83c0.529,0.553 0.794,1.155 0.794,1.806c-0,0.31 -0.041,0.79 -0.122,1.441c-0.082,0.651 -0.122,1.147 -0.122,1.489l0.048,2.564c0.847,-1.742 2.092,-3.317 3.736,-4.725c1.644,-1.407 3.043,-2.111 4.199,-2.111c2.555,-0 4.313,1.269 5.273,3.808c0.896,-1.188 1.962,-2.079 3.199,-2.673c1.237,-0.594 2.653,-0.891 4.248,-0.891c2.718,-0 4.573,1.465 5.566,4.394c0.195,0.586 0.529,2.873 1.001,6.861c0.456,2.799 1.042,7.462 1.758,13.989c0.049,0.651 -0.171,1.204 -0.659,1.66c-0.489,0.456 -1.083,0.684 -1.782,0.684Z" style="fill-rule:nonzero;"/><path d="M1595.84,435.683l-0.366,12.134c0,1.285 -0.065,3.173 -0.195,5.664c-0.163,1.627 -0.96,2.441 -2.393,2.441c-1.595,0 -2.392,-0.83 -2.392,-2.49c-0,-1.97 0.089,-4.928 0.268,-8.875c0.179,-3.947 0.269,-6.905 0.269,-8.874c-0,-2.572 0.041,-5.514 0.122,-8.826c0.081,-3.312 0.122,-6.254 0.122,-8.826c-0,-1.627 0.798,-2.441 2.393,-2.441c1.611,0 2.417,0.814 2.417,2.441c-0,2.572 -0.041,5.514 -0.123,8.826c-0.081,3.312 -0.122,6.254 -0.122,8.826Z" style="fill-rule:nonzero;"/><path d="M1612.49,456.313c-2.735,-0 -5.086,-1.009 -7.056,-3.028c-2.197,-2.246 -3.353,-5.265 -3.467,-9.057c-0.097,-3.679 0.83,-6.918 2.784,-9.717c2.278,-3.304 5.452,-4.956 9.521,-4.956c3.255,-0 5.721,1.489 7.397,4.468c1.335,2.409 1.978,5.306 1.929,8.691c-0.049,3.613 -0.993,6.698 -2.832,9.253c-2.083,2.897 -4.842,4.346 -8.276,4.346Zm1.465,-21.802c-2.393,-0.016 -4.257,1.123 -5.591,3.418c-1.058,1.839 -1.587,3.939 -1.587,6.299c-0,2.36 0.643,4.199 1.929,5.517c1.074,1.091 2.335,1.636 3.784,1.636c1.693,0 3.149,-0.618 4.37,-1.855c1.383,-1.368 2.116,-3.215 2.197,-5.542c0.228,-6.299 -1.473,-9.457 -5.102,-9.473Z" style="fill-rule:nonzero;"/><path d="M1648.62,436.83c-0.114,2.035 -0.928,3.052 -2.442,3.052c-1.4,0 -2.099,-0.806 -2.099,-2.417c-0,-0.309 -0.025,-0.879 -0.074,-1.709l-0.073,-2.051c-2.572,0.31 -4.63,1.034 -6.177,2.173c-1.448,1.058 -2.653,2.653 -3.613,4.785l0.049,13.379c-0,1.644 -0.806,2.466 -2.417,2.466c-1.432,0 -2.149,-0.822 -2.149,-2.466l0,-17.138c0,-0.538 0.021,-1.343 0.062,-2.417c0.04,-1.075 0.061,-1.88 0.061,-2.417c-0,-1.644 0.716,-2.466 2.148,-2.466c1.595,-0 2.401,1.351 2.417,4.052c3.125,-3.011 6.592,-4.516 10.4,-4.516c1.319,-0 2.303,0.496 2.954,1.489c0.652,0.993 0.977,2.49 0.977,4.492c0,0.847 -0.008,1.416 -0.024,1.709Z" style="fill-rule:nonzero;"/><path d="M1665.05,455.995c-3.678,0 -6.657,-0.919 -8.935,-2.758c-2.491,-2.035 -3.736,-4.883 -3.736,-8.545c0,-4.232 1.026,-7.78 3.077,-10.645c2.229,-3.125 5.208,-4.687 8.935,-4.687c2.702,-0 4.907,0.455 6.616,1.367c2.1,1.123 3.15,2.848 3.15,5.176c-0,1.627 -0.92,3.108 -2.759,4.443c-0.814,0.586 -2.539,1.497 -5.176,2.734l-9.326,4.419c0.911,1.351 2.047,2.368 3.406,3.052c1.359,0.684 2.942,1.025 4.748,1.025c1.123,0 2.442,-0.211 3.955,-0.634c1.921,-0.537 3.158,-1.241 3.711,-2.112c0.554,-0.871 1.148,-1.306 1.783,-1.306c0.569,-0 1.078,0.215 1.525,0.647c0.448,0.431 0.672,0.931 0.672,1.501c-0,1.807 -1.457,3.361 -4.37,4.663c-2.491,1.107 -4.916,1.66 -7.276,1.66Zm-0.659,-22.241c-1.986,0 -3.638,0.769 -4.956,2.307c-1.318,1.538 -2.303,3.854 -2.954,6.946l7.495,-3.564c2.946,-1.433 5.046,-2.678 6.299,-3.736c-1.4,-1.302 -3.361,-1.953 -5.884,-1.953Z" style="fill-rule:nonzero;"/><path d="M1712.05,456.899c-1.334,-0 -2.116,-0.708 -2.343,-2.124c-0.293,-1.791 -0.586,-4.314 -0.879,-7.569l-0.83,-7.568c-0.163,-1.123 -0.44,-2.222 -0.83,-3.296c-0.554,-1.465 -1.156,-2.197 -1.807,-2.197c-0.602,-0 -1.725,0.512 -3.369,1.538c-1.563,0.944 -2.588,1.701 -3.076,2.27c-0.017,1.53 0.024,3.06 0.122,4.59l0.732,6.519c0.309,2.571 0.464,4.695 0.464,6.372c-0,0.716 -0.224,1.306 -0.671,1.77c-0.448,0.464 -1.022,0.696 -1.722,0.696c-0.7,-0 -1.273,-0.232 -1.721,-0.696c-0.447,-0.464 -0.671,-1.054 -0.671,-1.77c-0,-1.97 -0.2,-4.879 -0.598,-8.728c-0.399,-3.849 -0.599,-6.759 -0.599,-8.728c0,-1.725 -0.244,-3.068 -0.732,-4.029c-1.139,0.521 -2.295,1.368 -3.467,2.54l-2.881,3.222c-0.26,0.391 -0.675,0.903 -1.245,1.538c0,0.977 -0.089,2.417 -0.268,4.322c-0.179,1.904 -0.269,3.312 -0.269,4.223c0,0.488 0.077,1.172 0.232,2.051c0.155,0.879 0.232,1.514 0.232,1.904c0,0.668 -0.248,1.229 -0.745,1.685c-0.496,0.456 -1.078,0.683 -1.745,0.683c-1.839,0 -2.759,-2.091 -2.759,-6.274c0,-0.977 0.09,-2.433 0.269,-4.37c0.179,-1.937 0.268,-3.394 0.268,-4.37c0,-0.863 -0.077,-2.157 -0.232,-3.882c-0.154,-1.725 -0.232,-3.027 -0.232,-3.906c0,-3.695 0.83,-5.542 2.491,-5.542c0.634,-0 1.216,0.276 1.745,0.83c0.529,0.553 0.794,1.155 0.794,1.806c-0,0.31 -0.041,0.79 -0.123,1.441c-0.081,0.651 -0.122,1.147 -0.122,1.489l0.049,2.564c0.847,-1.742 2.092,-3.317 3.736,-4.725c1.643,-1.407 3.043,-2.111 4.199,-2.111c2.555,-0 4.313,1.269 5.273,3.808c0.895,-1.188 1.962,-2.079 3.199,-2.673c1.236,-0.594 2.653,-0.891 4.248,-0.891c2.718,-0 4.573,1.465 5.566,4.394c0.195,0.586 0.529,2.873 1.001,6.861c0.456,2.799 1.042,7.462 1.758,13.989c0.049,0.651 -0.171,1.204 -0.659,1.66c-0.489,0.456 -1.083,0.684 -1.783,0.684Z" style="fill-rule:nonzero;"/><path d="M1739.49,423.964c-0.782,0 -1.457,-0.277 -2.027,-0.83c-0.569,-0.553 -0.854,-1.221 -0.854,-2.002c-0,-0.781 0.285,-1.448 0.854,-2.002c0.57,-0.553 1.245,-0.83 2.027,-0.83c0.781,0 1.452,0.277 2.014,0.83c0.561,0.554 0.842,1.221 0.842,2.002c0,0.781 -0.281,1.449 -0.842,2.002c-0.562,0.553 -1.233,0.83 -2.014,0.83Zm1.098,19.824c0,0.977 0.029,2.438 0.086,4.383c0.057,1.945 0.085,3.405 0.085,4.382c0,0.716 -0.219,1.302 -0.659,1.758c-0.439,0.456 -1.017,0.683 -1.733,0.683c-0.7,0 -1.274,-0.227 -1.721,-0.683c-0.448,-0.456 -0.672,-1.042 -0.672,-1.758c0,-0.977 -0.028,-2.437 -0.085,-4.382c-0.057,-1.945 -0.086,-3.406 -0.086,-4.383c0,-1.53 0.082,-3.438 0.244,-5.725c0.163,-2.287 0.245,-4.195 0.245,-5.725c-0,-0.732 0.223,-1.326 0.671,-1.782c0.447,-0.456 1.021,-0.684 1.721,-0.684c0.7,0 1.274,0.228 1.721,0.684c0.448,0.456 0.672,1.05 0.672,1.782c-0,1.53 -0.082,3.438 -0.244,5.725c-0.163,2.287 -0.245,4.195 -0.245,5.725Z" style="fill-rule:nonzero;"/><path d="M1759.22,455.727c-1.627,-0 -3.418,-0.261 -5.371,-0.781l-0.049,11.669c0,0.717 -0.223,1.303 -0.671,1.758c-0.448,0.456 -1.021,0.684 -1.721,0.684c-0.7,-0 -1.274,-0.228 -1.721,-0.684c-0.448,-0.455 -0.672,-1.041 -0.672,-1.758l0.073,-9.765l0,-9.741c-0.048,-3.565 -0.17,-6.812 -0.366,-9.742l-0.366,-4.956c0,-1.155 0.212,-2.132 0.635,-2.929c0.488,-0.961 1.196,-1.441 2.124,-1.441c0.635,0 1.168,0.224 1.599,0.672c0.431,0.447 0.647,0.997 0.647,1.648c-0,0.146 -0.024,0.415 -0.073,0.805c-0.082,0.505 -0.139,0.969 -0.171,1.392c1.4,-0.96 2.75,-1.681 4.053,-2.161c1.302,-0.48 2.547,-0.72 3.735,-0.72c3.336,-0 5.778,1.481 7.324,4.443c1.221,2.344 1.831,5.445 1.831,9.302c0,3.516 -0.944,6.413 -2.832,8.692c-2.002,2.408 -4.671,3.613 -8.008,3.613Zm1.685,-21.167c-1.498,-0 -2.848,0.333 -4.053,1.001c-0.862,0.472 -1.953,1.334 -3.271,2.588c0.211,3.694 0.317,7.576 0.317,11.645c1.774,0.684 3.548,1.026 5.322,1.026c2.035,-0 3.589,-0.757 4.663,-2.271c0.928,-1.318 1.392,-3.027 1.392,-5.127c-0,-2.962 -0.362,-5.18 -1.086,-6.653c-0.725,-1.473 -1.819,-2.209 -3.284,-2.209Z" style="fill-rule:nonzero;"/><path d="M1792.06,436.073c-0.895,0 -1.522,-0.301 -1.88,-0.903c-0.244,-0.423 -0.455,-1.302 -0.634,-2.637c-1.221,0.31 -3.101,0.879 -5.64,1.709c-2.621,1.042 -3.939,2.328 -3.955,3.858c0.488,0.179 0.968,0.309 1.44,0.39c3.744,0.668 6.527,1.587 8.35,2.759c2.653,1.709 3.979,4.183 3.979,7.422c0,2.653 -1.147,4.655 -3.442,6.006c-1.904,1.107 -4.313,1.66 -7.227,1.66c-2.132,0 -4.166,-0.358 -6.103,-1.074c-2.507,-0.912 -3.76,-2.181 -3.76,-3.809c0,-0.651 0.257,-1.22 0.769,-1.709c0.513,-0.488 1.095,-0.732 1.746,-0.732c0.504,-0 1.155,0.391 1.953,1.172c0.391,0.374 1.269,0.683 2.637,0.928c1.09,0.195 2.01,0.293 2.758,0.293c1.368,-0 2.572,-0.163 3.614,-0.489c1.513,-0.472 2.27,-1.22 2.27,-2.246c0,-2.213 -1.546,-3.711 -4.638,-4.492l-2.54,-0.562c-2.164,-0.472 -3.702,-1.025 -4.614,-1.66c-1.318,-0.911 -1.977,-2.287 -1.977,-4.126c-0,-3.401 1.603,-5.827 4.809,-7.275c0.977,-0.44 2.539,-0.964 4.688,-1.575c2.148,-0.61 3.686,-1.127 4.614,-1.55c0.667,-0.293 1.392,-0.44 2.173,-0.44c0.7,0 1.273,0.228 1.721,0.684c0.448,0.456 0.671,1.05 0.671,1.782c0,0.472 0.102,1.164 0.306,2.075c0.203,0.912 0.305,1.604 0.305,2.076c-0,0.732 -0.224,1.326 -0.672,1.782c-0.447,0.456 -1.021,0.683 -1.721,0.683Z" style="fill-rule:nonzero;"/><path d="M1819.84,440.614c0,1.172 0.009,2.93 0.025,5.274c0.016,2.344 0.024,4.101 0.024,5.273c0,0.358 0.029,0.904 0.086,1.636c0.057,0.733 0.085,1.278 0.085,1.636c0,0.7 -0.236,1.273 -0.708,1.721c-0.472,0.448 -1.05,0.671 -1.733,0.671c-1.254,0 -2.051,-0.773 -2.393,-2.319c-2.034,1.058 -4.378,1.587 -7.031,1.587c-2.132,0 -3.898,-0.472 -5.298,-1.416c-1.546,-1.042 -2.466,-2.563 -2.759,-4.565c-0.634,-4.314 -0.952,-8.155 -0.952,-11.524c0,-2.23 0.244,-4.769 0.733,-7.617c0.227,-1.416 1.001,-2.124 2.319,-2.124c0.7,-0 1.286,0.224 1.758,0.671c0.472,0.448 0.708,1.022 0.708,1.721c-0,0.749 -0.118,1.945 -0.354,3.589c-0.236,1.644 -0.354,2.897 -0.354,3.76c-0,2.718 0.089,5.046 0.268,6.983c0.179,1.936 0.448,3.491 0.806,4.663c0.537,0.293 1.066,0.516 1.587,0.671c0.521,0.155 1.033,0.232 1.538,0.232c2.181,-0 4.484,-0.35 6.909,-1.05l-0.024,-4.956l-0.049,-4.736c-0,-3.516 0.154,-6.568 0.464,-9.156c0.179,-1.497 0.968,-2.246 2.368,-2.246c0.7,0 1.286,0.228 1.758,0.684c0.472,0.456 0.691,1.025 0.659,1.709l-0.44,9.228Z" style="fill-rule:nonzero;"/><path d="M1856.92,456.899c-1.334,-0 -2.115,-0.708 -2.343,-2.124c-0.293,-1.791 -0.586,-4.314 -0.879,-7.569l-0.83,-7.568c-0.163,-1.123 -0.44,-2.222 -0.83,-3.296c-0.554,-1.465 -1.156,-2.197 -1.807,-2.197c-0.602,-0 -1.725,0.512 -3.369,1.538c-1.563,0.944 -2.588,1.701 -3.076,2.27c-0.017,1.53 0.024,3.06 0.122,4.59l0.732,6.519c0.309,2.571 0.464,4.695 0.464,6.372c-0,0.716 -0.224,1.306 -0.671,1.77c-0.448,0.464 -1.022,0.696 -1.722,0.696c-0.699,-0 -1.273,-0.232 -1.721,-0.696c-0.447,-0.464 -0.671,-1.054 -0.671,-1.77c-0,-1.97 -0.2,-4.879 -0.598,-8.728c-0.399,-3.849 -0.598,-6.759 -0.598,-8.728c-0,-1.725 -0.245,-3.068 -0.733,-4.029c-1.139,0.521 -2.295,1.368 -3.467,2.54l-2.881,3.222c-0.26,0.391 -0.675,0.903 -1.245,1.538c0,0.977 -0.089,2.417 -0.268,4.322c-0.179,1.904 -0.269,3.312 -0.269,4.223c0,0.488 0.078,1.172 0.232,2.051c0.155,0.879 0.232,1.514 0.232,1.904c0,0.668 -0.248,1.229 -0.745,1.685c-0.496,0.456 -1.078,0.683 -1.745,0.683c-1.839,0 -2.759,-2.091 -2.759,-6.274c0,-0.977 0.09,-2.433 0.269,-4.37c0.179,-1.937 0.268,-3.394 0.268,-4.37c0,-0.863 -0.077,-2.157 -0.232,-3.882c-0.154,-1.725 -0.232,-3.027 -0.232,-3.906c0,-3.695 0.83,-5.542 2.491,-5.542c0.634,-0 1.216,0.276 1.745,0.83c0.529,0.553 0.794,1.155 0.794,1.806c-0,0.31 -0.041,0.79 -0.122,1.441c-0.082,0.651 -0.123,1.147 -0.123,1.489l0.049,2.564c0.847,-1.742 2.092,-3.317 3.736,-4.725c1.644,-1.407 3.043,-2.111 4.199,-2.111c2.555,-0 4.313,1.269 5.273,3.808c0.895,-1.188 1.962,-2.079 3.199,-2.673c1.237,-0.594 2.653,-0.891 4.248,-0.891c2.718,-0 4.573,1.465 5.566,4.394c0.195,0.586 0.529,2.873 1.001,6.861c0.456,2.799 1.042,7.462 1.758,13.989c0.049,0.651 -0.171,1.204 -0.659,1.66c-0.489,0.456 -1.083,0.684 -1.783,0.684Z" style="fill-rule:nonzero;"/><path d="M2620.48,435.683l-0.367,12.134c0,1.285 -0.065,3.173 -0.195,5.664c-0.163,1.627 -0.96,2.441 -2.392,2.441c-1.596,0 -2.393,-0.83 -2.393,-2.49c-0,-1.97 0.089,-4.928 0.268,-8.875c0.18,-3.947 0.269,-6.905 0.269,-8.874c0,-2.572 0.041,-5.514 0.122,-8.826c0.081,-3.312 0.122,-6.254 0.122,-8.826c0,-1.627 0.798,-2.441 2.393,-2.441c1.611,0 2.417,0.814 2.417,2.441c-0,2.572 -0.041,5.514 -0.122,8.826c-0.082,3.312 -0.122,6.254 -0.122,8.826Z" style="fill-rule:nonzero;"/><path d="M2637.13,456.313c-2.734,-0 -5.086,-1.009 -7.056,-3.028c-2.197,-2.246 -3.353,-5.265 -3.466,-9.057c-0.098,-3.679 0.83,-6.918 2.783,-9.717c2.278,-3.304 5.452,-4.956 9.521,-4.956c3.255,-0 5.721,1.489 7.398,4.468c1.334,2.409 1.977,5.306 1.928,8.691c-0.048,3.613 -0.992,6.698 -2.832,9.253c-2.083,2.897 -4.842,4.346 -8.276,4.346Zm1.465,-21.802c-2.393,-0.016 -4.256,1.123 -5.591,3.418c-1.058,1.839 -1.587,3.939 -1.587,6.299c0,2.36 0.643,4.199 1.929,5.517c1.074,1.091 2.335,1.636 3.784,1.636c1.693,0 3.149,-0.618 4.37,-1.855c1.384,-1.368 2.116,-3.215 2.197,-5.542c0.228,-6.299 -1.473,-9.457 -5.102,-9.473Z" style="fill-rule:nonzero;"/><path d="M2673.26,436.83c-0.114,2.035 -0.928,3.052 -2.442,3.052c-1.399,0 -2.099,-0.806 -2.099,-2.417c-0,-0.309 -0.025,-0.879 -0.073,-1.709l-0.074,-2.051c-2.571,0.31 -4.63,1.034 -6.176,2.173c-1.449,1.058 -2.653,2.653 -3.614,4.785l0.049,13.379c0,1.644 -0.806,2.466 -2.417,2.466c-1.432,0 -2.148,-0.822 -2.148,-2.466l-0,-17.138c-0,-0.538 0.02,-1.343 0.061,-2.417c0.04,-1.075 0.061,-1.88 0.061,-2.417c-0,-1.644 0.716,-2.466 2.148,-2.466c1.595,-0 2.401,1.351 2.417,4.052c3.125,-3.011 6.592,-4.516 10.401,-4.516c1.318,-0 2.303,0.496 2.954,1.489c0.651,0.993 0.976,2.49 0.976,4.492c0,0.847 -0.008,1.416 -0.024,1.709Z" style="fill-rule:nonzero;"/><path d="M2689.69,455.995c-3.678,0 -6.656,-0.919 -8.935,-2.758c-2.49,-2.035 -3.735,-4.883 -3.735,-8.545c-0,-4.232 1.025,-7.78 3.076,-10.645c2.23,-3.125 5.208,-4.687 8.935,-4.687c2.702,-0 4.908,0.455 6.617,1.367c2.099,1.123 3.149,2.848 3.149,5.176c-0,1.627 -0.92,3.108 -2.759,4.443c-0.814,0.586 -2.539,1.497 -5.176,2.734l-9.326,4.419c0.912,1.351 2.047,2.368 3.406,3.052c1.359,0.684 2.942,1.025 4.748,1.025c1.124,0 2.442,-0.211 3.956,-0.634c1.92,-0.537 3.157,-1.241 3.71,-2.112c0.554,-0.871 1.148,-1.306 1.783,-1.306c0.569,-0 1.078,0.215 1.526,0.647c0.447,0.431 0.671,0.931 0.671,1.501c-0,1.807 -1.457,3.361 -4.37,4.663c-2.49,1.107 -4.915,1.66 -7.276,1.66Zm-0.659,-22.241c-1.985,0 -3.637,0.769 -4.956,2.307c-1.318,1.538 -2.303,3.854 -2.954,6.946l7.495,-3.564c2.946,-1.433 5.046,-2.678 6.299,-3.736c-1.4,-1.302 -3.361,-1.953 -5.884,-1.953Z" style="fill-rule:nonzero;"/><path d="M2736.69,456.899c-1.335,-0 -2.116,-0.708 -2.344,-2.124c-0.293,-1.791 -0.586,-4.314 -0.879,-7.569l-0.83,-7.568c-0.163,-1.123 -0.44,-2.222 -0.83,-3.296c-0.554,-1.465 -1.156,-2.197 -1.807,-2.197c-0.602,-0 -1.725,0.512 -3.369,1.538c-1.563,0.944 -2.588,1.701 -3.076,2.27c-0.016,1.53 0.024,3.06 0.122,4.59l0.732,6.519c0.31,2.571 0.464,4.695 0.464,6.372c0,0.716 -0.224,1.306 -0.671,1.77c-0.448,0.464 -1.022,0.696 -1.721,0.696c-0.7,-0 -1.274,-0.232 -1.722,-0.696c-0.447,-0.464 -0.671,-1.054 -0.671,-1.77c-0,-1.97 -0.199,-4.879 -0.598,-8.728c-0.399,-3.849 -0.598,-6.759 -0.598,-8.728c-0,-1.725 -0.244,-3.068 -0.733,-4.029c-1.139,0.521 -2.295,1.368 -3.467,2.54l-2.88,3.222c-0.261,0.391 -0.676,0.903 -1.245,1.538c-0,0.977 -0.09,2.417 -0.269,4.322c-0.179,1.904 -0.269,3.312 -0.269,4.223c0,0.488 0.078,1.172 0.232,2.051c0.155,0.879 0.232,1.514 0.232,1.904c0,0.668 -0.248,1.229 -0.744,1.685c-0.497,0.456 -1.079,0.683 -1.746,0.683c-1.839,0 -2.759,-2.091 -2.759,-6.274c0,-0.977 0.09,-2.433 0.269,-4.37c0.179,-1.937 0.268,-3.394 0.268,-4.37c0,-0.863 -0.077,-2.157 -0.232,-3.882c-0.154,-1.725 -0.232,-3.027 -0.232,-3.906c0,-3.695 0.831,-5.542 2.491,-5.542c0.634,-0 1.216,0.276 1.745,0.83c0.529,0.553 0.794,1.155 0.794,1.806c-0,0.31 -0.041,0.79 -0.122,1.441c-0.082,0.651 -0.122,1.147 -0.122,1.489l0.048,2.564c0.847,-1.742 2.092,-3.317 3.736,-4.725c1.644,-1.407 3.043,-2.111 4.199,-2.111c2.555,-0 4.313,1.269 5.273,3.808c0.896,-1.188 1.962,-2.079 3.199,-2.673c1.237,-0.594 2.653,-0.891 4.248,-0.891c2.718,-0 4.573,1.465 5.566,4.394c0.195,0.586 0.529,2.873 1.001,6.861c0.456,2.799 1.042,7.462 1.758,13.989c0.049,0.651 -0.171,1.204 -0.659,1.66c-0.489,0.456 -1.083,0.684 -1.782,0.684Z" style="fill-rule:nonzero;"/><path d="M2764.13,423.964c-0.781,0 -1.457,-0.277 -2.026,-0.83c-0.57,-0.553 -0.855,-1.221 -0.855,-2.002c0,-0.781 0.285,-1.448 0.855,-2.002c0.569,-0.553 1.245,-0.83 2.026,-0.83c0.781,0 1.453,0.277 2.014,0.83c0.562,0.554 0.842,1.221 0.842,2.002c0,0.781 -0.28,1.449 -0.842,2.002c-0.561,0.553 -1.233,0.83 -2.014,0.83Zm1.099,19.824c-0,0.977 0.028,2.438 0.085,4.383c0.057,1.945 0.085,3.405 0.085,4.382c0,0.716 -0.219,1.302 -0.659,1.758c-0.439,0.456 -1.017,0.683 -1.733,0.683c-0.7,0 -1.274,-0.227 -1.721,-0.683c-0.448,-0.456 -0.672,-1.042 -0.672,-1.758c0,-0.977 -0.028,-2.437 -0.085,-4.382c-0.057,-1.945 -0.086,-3.406 -0.086,-4.383c0,-1.53 0.082,-3.438 0.245,-5.725c0.162,-2.287 0.244,-4.195 0.244,-5.725c-0,-0.732 0.224,-1.326 0.671,-1.782c0.448,-0.456 1.021,-0.684 1.721,-0.684c0.7,0 1.274,0.228 1.721,0.684c0.448,0.456 0.672,1.05 0.672,1.782c-0,1.53 -0.082,3.438 -0.244,5.725c-0.163,2.287 -0.244,4.195 -0.244,5.725Z" style="fill-rule:nonzero;"/><path d="M2783.86,455.727c-1.628,-0 -3.418,-0.261 -5.372,-0.781l-0.048,11.669c-0,0.717 -0.224,1.303 -0.672,1.758c-0.447,0.456 -1.021,0.684 -1.721,0.684c-0.7,-0 -1.274,-0.228 -1.721,-0.684c-0.448,-0.455 -0.672,-1.041 -0.672,-1.758l0.074,-9.765l-0,-9.741c-0.049,-3.565 -0.171,-6.812 -0.367,-9.742l-0.366,-4.956c0,-1.155 0.212,-2.132 0.635,-2.929c0.488,-0.961 1.196,-1.441 2.124,-1.441c0.635,0 1.168,0.224 1.599,0.672c0.431,0.447 0.647,0.997 0.647,1.648c0,0.146 -0.024,0.415 -0.073,0.805c-0.081,0.505 -0.138,0.969 -0.171,1.392c1.4,-0.96 2.751,-1.681 4.053,-2.161c1.302,-0.48 2.547,-0.72 3.735,-0.72c3.337,-0 5.778,1.481 7.324,4.443c1.221,2.344 1.831,5.445 1.831,9.302c0,3.516 -0.944,6.413 -2.832,8.692c-2.002,2.408 -4.671,3.613 -8.007,3.613Zm1.684,-21.167c-1.497,-0 -2.848,0.333 -4.053,1.001c-0.862,0.472 -1.953,1.334 -3.271,2.588c0.211,3.694 0.317,7.576 0.317,11.645c1.774,0.684 3.548,1.026 5.323,1.026c2.034,-0 3.588,-0.757 4.663,-2.271c0.927,-1.318 1.391,-3.027 1.391,-5.127c0,-2.962 -0.362,-5.18 -1.086,-6.653c-0.724,-1.473 -1.819,-2.209 -3.284,-2.209Z" style="fill-rule:nonzero;"/><path d="M2816.7,436.073c-0.895,0 -1.521,-0.301 -1.879,-0.903c-0.245,-0.423 -0.456,-1.302 -0.635,-2.637c-1.221,0.31 -3.101,0.879 -5.64,1.709c-2.62,1.042 -3.939,2.328 -3.955,3.858c0.488,0.179 0.968,0.309 1.44,0.39c3.744,0.668 6.527,1.587 8.35,2.759c2.653,1.709 3.98,4.183 3.98,7.422c-0,2.653 -1.148,4.655 -3.443,6.006c-1.904,1.107 -4.313,1.66 -7.226,1.66c-2.133,0 -4.167,-0.358 -6.104,-1.074c-2.506,-0.912 -3.76,-2.181 -3.76,-3.809c0,-0.651 0.257,-1.22 0.769,-1.709c0.513,-0.488 1.095,-0.732 1.746,-0.732c0.505,-0 1.156,0.391 1.953,1.172c0.391,0.374 1.27,0.683 2.637,0.928c1.09,0.195 2.01,0.293 2.759,0.293c1.367,-0 2.571,-0.163 3.613,-0.489c1.514,-0.472 2.27,-1.22 2.27,-2.246c0,-2.213 -1.546,-3.711 -4.638,-4.492l-2.539,-0.562c-2.165,-0.472 -3.703,-1.025 -4.615,-1.66c-1.318,-0.911 -1.977,-2.287 -1.977,-4.126c-0,-3.401 1.603,-5.827 4.809,-7.275c0.977,-0.44 2.54,-0.964 4.688,-1.575c2.148,-0.61 3.686,-1.127 4.614,-1.55c0.668,-0.293 1.392,-0.44 2.173,-0.44c0.7,0 1.274,0.228 1.721,0.684c0.448,0.456 0.672,1.05 0.672,1.782c-0,0.472 0.101,1.164 0.305,2.075c0.203,0.912 0.305,1.604 0.305,2.076c0,0.732 -0.224,1.326 -0.671,1.782c-0.448,0.456 -1.022,0.683 -1.722,0.683Z" style="fill-rule:nonzero;"/><path d="M2844.48,440.614c-0,1.172 0.008,2.93 0.024,5.274c0.016,2.344 0.024,4.101 0.024,5.273c0,0.358 0.029,0.904 0.086,1.636c0.057,0.733 0.085,1.278 0.085,1.636c0,0.7 -0.236,1.273 -0.708,1.721c-0.472,0.448 -1.049,0.671 -1.733,0.671c-1.253,0 -2.051,-0.773 -2.393,-2.319c-2.034,1.058 -4.378,1.587 -7.031,1.587c-2.132,0 -3.898,-0.472 -5.298,-1.416c-1.546,-1.042 -2.466,-2.563 -2.759,-4.565c-0.634,-4.314 -0.952,-8.155 -0.952,-11.524c0,-2.23 0.244,-4.769 0.733,-7.617c0.228,-1.416 1.001,-2.124 2.319,-2.124c0.7,-0 1.286,0.224 1.758,0.671c0.472,0.448 0.708,1.022 0.708,1.721c-0,0.749 -0.118,1.945 -0.354,3.589c-0.236,1.644 -0.354,2.897 -0.354,3.76c-0,2.718 0.089,5.046 0.268,6.983c0.18,1.936 0.448,3.491 0.806,4.663c0.537,0.293 1.066,0.516 1.587,0.671c0.521,0.155 1.034,0.232 1.538,0.232c2.181,-0 4.484,-0.35 6.909,-1.05l-0.024,-4.956l-0.049,-4.736c0,-3.516 0.155,-6.568 0.464,-9.156c0.179,-1.497 0.968,-2.246 2.368,-2.246c0.7,0 1.286,0.228 1.758,0.684c0.472,0.456 0.692,1.025 0.659,1.709l-0.439,9.228Z" style="fill-rule:nonzero;"/><path d="M2881.57,456.899c-1.335,-0 -2.116,-0.708 -2.344,-2.124c-0.293,-1.791 -0.586,-4.314 -0.879,-7.569l-0.83,-7.568c-0.163,-1.123 -0.44,-2.222 -0.83,-3.296c-0.554,-1.465 -1.156,-2.197 -1.807,-2.197c-0.602,-0 -1.725,0.512 -3.369,1.538c-1.562,0.944 -2.588,1.701 -3.076,2.27c-0.016,1.53 0.024,3.06 0.122,4.59l0.732,6.519c0.31,2.571 0.464,4.695 0.464,6.372c0,0.716 -0.224,1.306 -0.671,1.77c-0.448,0.464 -1.022,0.696 -1.721,0.696c-0.7,-0 -1.274,-0.232 -1.722,-0.696c-0.447,-0.464 -0.671,-1.054 -0.671,-1.77c0,-1.97 -0.199,-4.879 -0.598,-8.728c-0.399,-3.849 -0.598,-6.759 -0.598,-8.728c-0,-1.725 -0.244,-3.068 -0.733,-4.029c-1.139,0.521 -2.295,1.368 -3.466,2.54l-2.881,3.222c-0.261,0.391 -0.676,0.903 -1.245,1.538c-0,0.977 -0.09,2.417 -0.269,4.322c-0.179,1.904 -0.269,3.312 -0.269,4.223c0,0.488 0.078,1.172 0.232,2.051c0.155,0.879 0.232,1.514 0.232,1.904c0,0.668 -0.248,1.229 -0.744,1.685c-0.497,0.456 -1.079,0.683 -1.746,0.683c-1.839,0 -2.759,-2.091 -2.759,-6.274c0,-0.977 0.09,-2.433 0.269,-4.37c0.179,-1.937 0.268,-3.394 0.268,-4.37c0,-0.863 -0.077,-2.157 -0.232,-3.882c-0.154,-1.725 -0.231,-3.027 -0.231,-3.906c-0,-3.695 0.83,-5.542 2.49,-5.542c0.635,-0 1.216,0.276 1.745,0.83c0.529,0.553 0.794,1.155 0.794,1.806c-0,0.31 -0.041,0.79 -0.122,1.441c-0.082,0.651 -0.122,1.147 -0.122,1.489l0.049,2.564c0.846,-1.742 2.091,-3.317 3.735,-4.725c1.644,-1.407 3.043,-2.111 4.199,-2.111c2.555,-0 4.313,1.269 5.274,3.808c0.895,-1.188 1.961,-2.079 3.198,-2.673c1.237,-0.594 2.653,-0.891 4.248,-0.891c2.718,-0 4.573,1.465 5.566,4.394c0.196,0.586 0.529,2.873 1.001,6.861c0.456,2.799 1.042,7.462 1.758,13.989c0.049,0.651 -0.171,1.204 -0.659,1.66c-0.488,0.456 -1.083,0.684 -1.782,0.684Z" style="fill-rule:nonzero;"/><circle cx="1279.43" cy="695.207" r="25.708" style="fill:#ff8900;stroke:#000;stroke-width:8.33px;"/></g><g id="nav2" serif:id="nav"><rect x="2183.02" y="651.429" width="871.143" height="87.557" style="fill:none;stroke:#000;stroke-width:8.33px;"/><g id="ham-menu2" serif:id="ham menu"><path d="M2939.28,674.121l66.105,0" style="fill:none;stroke:#000;stroke-width:8.33px;"/><path d="M2939.28,692.484l66.105,-0" style="fill:none;stroke:#000;stroke-width:8.33px;"/><path d="M2939.28,710.846l66.105,0" style="fill:none;stroke:#000;stroke-width:8.33px;"/></g><path d="M2329.95,708.948c-1.84,0.862 -4.729,1.636 -8.667,2.319c-3.63,0.635 -6.592,0.952 -8.887,0.952c-1.644,0 -2.824,-0.252 -3.54,-0.757c-0.977,-0.683 -1.465,-1.936 -1.465,-3.759l0.488,-8.081c0.424,-7.455 0.635,-15.723 0.635,-24.805c0,-0.7 0.232,-1.294 0.696,-1.782c0.464,-0.489 1.038,-0.733 1.721,-0.733c0.7,0 1.282,0.244 1.746,0.733c0.464,0.488 0.696,1.082 0.696,1.782c-0,9.196 -0.22,17.562 -0.66,25.098l-0.317,3.711c-0.13,1.35 -0.179,2.547 -0.147,3.588c4.249,0.049 9.62,-0.952 16.114,-3.002c0.276,-0.082 0.537,-0.123 0.781,-0.123c0.7,0 1.286,0.277 1.758,0.831c0.407,0.504 0.61,1.082 0.61,1.733c0,1.042 -0.521,1.807 -1.562,2.295Z" style="fill-rule:nonzero;"/><path d="M2345.01,711.389c-2.734,0 -5.086,-1.009 -7.056,-3.027c-2.197,-2.246 -3.352,-5.265 -3.466,-9.058c-0.098,-3.678 0.83,-6.917 2.783,-9.717c2.279,-3.304 5.452,-4.956 9.521,-4.956c3.256,0 5.721,1.49 7.398,4.468c1.334,2.409 1.977,5.306 1.929,8.692c-0.049,3.613 -0.993,6.697 -2.833,9.253c-2.083,2.897 -4.842,4.345 -8.276,4.345Zm1.465,-21.802c-2.393,-0.016 -4.256,1.124 -5.591,3.418c-1.058,1.84 -1.587,3.939 -1.587,6.299c0,2.36 0.643,4.2 1.929,5.518c1.074,1.09 2.336,1.636 3.784,1.636c1.693,-0 3.15,-0.619 4.37,-1.856c1.384,-1.367 2.116,-3.214 2.198,-5.542c0.227,-6.299 -1.473,-9.456 -5.103,-9.473Z" style="fill-rule:nonzero;"/><path d="M2382.24,699.426l-0.562,8.203c-0.098,3.256 -0.431,5.917 -1.001,7.984c-0.732,2.637 -1.904,4.582 -3.516,5.835c-1.953,1.514 -4.777,2.27 -8.471,2.27c-2.165,0 -3.98,-0.146 -5.445,-0.439c-2.05,-0.407 -3.076,-1.253 -3.076,-2.539c0,-1.449 0.708,-2.173 2.124,-2.173c0.586,-0 1.563,0.142 2.93,0.427c1.367,0.285 2.881,0.411 4.541,0.379c3.125,-0.049 5.282,-1.563 6.47,-4.541c0.781,-1.986 1.196,-5.038 1.245,-9.156c-0.879,1.628 -1.925,2.849 -3.137,3.662c-1.213,0.814 -2.6,1.221 -4.163,1.221c-2.946,0 -5.343,-1.005 -7.19,-3.015c-1.847,-2.01 -2.771,-4.618 -2.771,-7.825c0,-4.394 1.261,-7.934 3.784,-10.62c2.604,-2.767 6.153,-4.15 10.645,-4.15c1.513,-0 2.783,0.195 3.808,0.586c1.026,0.39 1.807,0.976 2.344,1.758c1.742,0.048 2.612,1.017 2.612,2.905c0,1.155 -0.17,2.702 -0.512,4.639c-0.375,2.246 -0.594,3.776 -0.659,4.589Zm-7.837,-10.571c-3.093,0 -5.485,1.066 -7.178,3.198c-1.514,1.921 -2.271,4.362 -2.271,7.325c0,2.36 0.448,4.134 1.343,5.322c0.895,1.188 2.238,1.782 4.029,1.782c1.643,0 3.238,-0.928 4.785,-2.783c1.399,-1.709 2.197,-3.402 2.392,-5.078c0.342,-1.758 0.708,-4.517 1.099,-8.277c-0.651,-0.504 -1.327,-0.879 -2.026,-1.123c-0.7,-0.244 -1.425,-0.366 -2.173,-0.366Z" style="fill-rule:nonzero;"/><path d="M2397.84,711.389c-2.734,0 -5.086,-1.009 -7.056,-3.027c-2.197,-2.246 -3.352,-5.265 -3.466,-9.058c-0.098,-3.678 0.83,-6.917 2.783,-9.717c2.279,-3.304 5.452,-4.956 9.521,-4.956c3.256,0 5.721,1.49 7.398,4.468c1.334,2.409 1.977,5.306 1.929,8.692c-0.049,3.613 -0.993,6.697 -2.832,9.253c-2.084,2.897 -4.843,4.345 -8.277,4.345Zm1.465,-21.802c-2.393,-0.016 -4.256,1.124 -5.591,3.418c-1.058,1.84 -1.587,3.939 -1.587,6.299c0,2.36 0.643,4.2 1.929,5.518c1.074,1.09 2.336,1.636 3.784,1.636c1.693,-0 3.15,-0.619 4.37,-1.856c1.384,-1.367 2.116,-3.214 2.198,-5.542c0.227,-6.299 -1.473,-9.456 -5.103,-9.473Z" style="fill-rule:nonzero;"/><circle cx="2250" cy="698.01" r="25.708" style="fill:#ff8900;stroke:#000;stroke-width:8.33px;"/></g><path d="M609.62,1388.61c-1.839,0.863 -4.728,1.636 -8.667,2.319c-3.63,0.635 -6.592,0.953 -8.887,0.953c-1.644,-0 -2.824,-0.253 -3.54,-0.757c-0.976,-0.684 -1.465,-1.937 -1.465,-3.76l0.489,-8.081c0.423,-7.455 0.634,-15.723 0.634,-24.805c0,-0.7 0.232,-1.294 0.696,-1.782c0.464,-0.488 1.038,-0.732 1.721,-0.732c0.7,-0 1.282,0.244 1.746,0.732c0.464,0.488 0.696,1.082 0.696,1.782c-0,9.196 -0.22,17.562 -0.659,25.098l-0.318,3.711c-0.13,1.351 -0.179,2.547 -0.146,3.589c4.248,0.049 9.619,-0.952 16.113,-3.003c0.277,-0.082 0.537,-0.122 0.781,-0.122c0.7,-0 1.286,0.276 1.758,0.83c0.407,0.504 0.61,1.082 0.61,1.733c0,1.042 -0.52,1.807 -1.562,2.295Z" style="fill-rule:nonzero;"/><path d="M624.683,1391.05c-2.734,-0 -5.086,-1.01 -7.055,-3.028c-2.198,-2.246 -3.353,-5.265 -3.467,-9.057c-0.098,-3.679 0.83,-6.918 2.783,-9.717c2.279,-3.304 5.453,-4.956 9.522,-4.956c3.255,-0 5.721,1.489 7.397,4.467c1.335,2.409 1.978,5.306 1.929,8.692c-0.049,3.613 -0.993,6.697 -2.832,9.253c-2.084,2.897 -4.842,4.346 -8.277,4.346Zm1.465,-21.802c-2.392,-0.017 -4.256,1.123 -5.591,3.418c-1.058,1.839 -1.587,3.939 -1.587,6.299c0,2.36 0.643,4.199 1.929,5.517c1.074,1.091 2.336,1.636 3.784,1.636c1.693,-0 3.15,-0.619 4.37,-1.856c1.384,-1.367 2.116,-3.214 2.198,-5.542c0.228,-6.298 -1.473,-9.456 -5.103,-9.472Z" style="fill-rule:nonzero;"/><path d="M660.816,1371.56c-0.114,2.035 -0.928,3.052 -2.441,3.052c-1.4,-0 -2.1,-0.806 -2.1,-2.417c0,-0.309 -0.024,-0.879 -0.073,-1.709l-0.073,-2.051c-2.572,0.309 -4.631,1.034 -6.177,2.173c-1.449,1.058 -2.653,2.653 -3.613,4.785l0.048,13.379c0,1.644 -0.805,2.466 -2.417,2.466c-1.432,-0 -2.148,-0.822 -2.148,-2.466l-0,-17.139c-0,-0.537 0.02,-1.342 0.061,-2.417c0.041,-1.074 0.061,-1.88 0.061,-2.417c0,-1.644 0.716,-2.465 2.148,-2.465c1.596,-0 2.401,1.35 2.417,4.052c3.125,-3.011 6.592,-4.516 10.401,-4.516c1.318,-0 2.303,0.496 2.954,1.489c0.651,0.993 0.977,2.49 0.977,4.492c-0,0.846 -0.009,1.416 -0.025,1.709Z" style="fill-rule:nonzero;"/><path d="M677.247,1390.73c-3.679,0 -6.657,-0.919 -8.936,-2.759c-2.49,-2.034 -3.735,-4.882 -3.735,-8.545c-0,-4.231 1.025,-7.78 3.076,-10.644c2.23,-3.125 5.208,-4.688 8.936,-4.688c2.701,0 4.907,0.456 6.616,1.368c2.099,1.123 3.149,2.848 3.149,5.175c0,1.628 -0.919,3.109 -2.759,4.444c-0.813,0.586 -2.539,1.497 -5.175,2.734l-9.327,4.419c0.912,1.351 2.047,2.368 3.406,3.052c1.359,0.683 2.942,1.025 4.749,1.025c1.123,0 2.441,-0.211 3.955,-0.635c1.92,-0.537 3.157,-1.241 3.711,-2.111c0.553,-0.871 1.147,-1.307 1.782,-1.307c0.57,0 1.078,0.216 1.526,0.647c0.448,0.432 0.671,0.932 0.671,1.502c0,1.807 -1.456,3.361 -4.37,4.663c-2.49,1.107 -4.915,1.66 -7.275,1.66Zm-0.659,-22.241c-1.986,-0 -3.638,0.769 -4.956,2.307c-1.319,1.538 -2.304,3.853 -2.955,6.946l7.496,-3.565c2.946,-1.432 5.045,-2.677 6.298,-3.735c-1.399,-1.302 -3.361,-1.953 -5.883,-1.953Z" style="fill-rule:nonzero;"/><path d="M724.244,1391.63c-1.335,0 -2.116,-0.708 -2.344,-2.124c-0.293,-1.79 -0.586,-4.313 -0.879,-7.568l-0.83,-7.568c-0.163,-1.123 -0.439,-2.222 -0.83,-3.296c-0.553,-1.465 -1.156,-2.197 -1.807,-2.197c-0.602,-0 -1.725,0.512 -3.369,1.538c-1.562,0.944 -2.588,1.7 -3.076,2.27c-0.016,1.53 0.025,3.06 0.122,4.59l0.733,6.519c0.309,2.571 0.463,4.695 0.463,6.372c0,0.716 -0.223,1.306 -0.671,1.77c-0.448,0.463 -1.021,0.695 -1.721,0.695c-0.7,0 -1.274,-0.232 -1.721,-0.695c-0.448,-0.464 -0.672,-1.054 -0.672,-1.77c0,-1.97 -0.199,-4.879 -0.598,-8.728c-0.399,-3.85 -0.598,-6.759 -0.598,-8.728c0,-1.726 -0.244,-3.068 -0.732,-4.029c-1.14,0.521 -2.295,1.367 -3.467,2.539l-2.881,3.223c-0.26,0.391 -0.676,0.903 -1.245,1.538c-0,0.977 -0.09,2.417 -0.269,4.321c-0.179,1.905 -0.268,3.312 -0.268,4.224c-0,0.488 0.077,1.172 0.232,2.051c0.154,0.879 0.232,1.513 0.232,1.904c-0,0.667 -0.249,1.229 -0.745,1.685c-0.496,0.455 -1.078,0.683 -1.746,0.683c-1.839,0 -2.758,-2.091 -2.758,-6.274c-0,-0.977 0.089,-2.433 0.268,-4.37c0.179,-1.937 0.269,-3.394 0.269,-4.37c-0,-0.863 -0.078,-2.157 -0.232,-3.882c-0.155,-1.726 -0.232,-3.028 -0.232,-3.907c-0,-3.694 0.83,-5.542 2.49,-5.542c0.635,0 1.217,0.277 1.746,0.831c0.529,0.553 0.793,1.155 0.793,1.806c0,0.309 -0.041,0.79 -0.122,1.441c-0.081,0.651 -0.122,1.147 -0.122,1.489l0.049,2.563c0.846,-1.741 2.091,-3.316 3.735,-4.724c1.644,-1.408 3.044,-2.112 4.199,-2.112c2.556,0 4.313,1.27 5.274,3.809c0.895,-1.188 1.961,-2.079 3.198,-2.673c1.237,-0.594 2.653,-0.891 4.248,-0.891c2.718,-0 4.574,1.464 5.566,4.394c0.196,0.586 0.529,2.873 1.001,6.86c0.456,2.8 1.042,7.463 1.758,13.99c0.049,0.651 -0.171,1.204 -0.659,1.66c-0.488,0.456 -1.082,0.683 -1.782,0.683Z" style="fill-rule:nonzero;"/><path d="M2574.97,861.042c-1.839,0.863 -4.728,1.636 -8.667,2.32c-3.63,0.635 -6.592,0.952 -8.887,0.952c-1.644,-0 -2.824,-0.252 -3.54,-0.757c-0.976,-0.684 -1.465,-1.937 -1.465,-3.76l0.489,-8.081c0.423,-7.454 0.634,-15.722 0.634,-24.804c0,-0.7 0.232,-1.294 0.696,-1.783c0.464,-0.488 1.038,-0.732 1.721,-0.732c0.7,-0 1.282,0.244 1.746,0.732c0.464,0.489 0.696,1.083 0.696,1.783c-0,9.196 -0.22,17.561 -0.659,25.097l-0.318,3.711c-0.13,1.351 -0.179,2.547 -0.146,3.589c4.248,0.049 9.619,-0.952 16.113,-3.003c0.277,-0.081 0.537,-0.122 0.781,-0.122c0.7,0 1.286,0.277 1.758,0.83c0.407,0.505 0.61,1.082 0.61,1.734c0,1.041 -0.52,1.806 -1.562,2.294Z" style="fill-rule:nonzero;"/><path d="M2590.03,863.484c-2.734,-0 -5.086,-1.009 -7.055,-3.028c-2.198,-2.246 -3.353,-5.265 -3.467,-9.057c-0.098,-3.679 0.83,-6.917 2.783,-9.717c2.279,-3.304 5.453,-4.956 9.522,-4.956c3.255,0 5.721,1.489 7.397,4.468c1.335,2.409 1.978,5.306 1.929,8.691c-0.049,3.613 -0.993,6.698 -2.832,9.253c-2.084,2.897 -4.842,4.346 -8.277,4.346Zm1.465,-21.802c-2.392,-0.016 -4.256,1.123 -5.591,3.418c-1.058,1.839 -1.587,3.939 -1.587,6.299c0,2.36 0.643,4.199 1.929,5.517c1.074,1.091 2.336,1.636 3.784,1.636c1.693,0 3.15,-0.618 4.37,-1.855c1.384,-1.367 2.116,-3.215 2.198,-5.542c0.228,-6.299 -1.473,-9.457 -5.103,-9.473Z" style="fill-rule:nonzero;"/><path d="M2626.16,844.001c-0.114,2.035 -0.928,3.052 -2.441,3.052c-1.4,0 -2.1,-0.805 -2.1,-2.417c0,-0.309 -0.024,-0.879 -0.073,-1.709l-0.073,-2.051c-2.572,0.31 -4.631,1.034 -6.177,2.173c-1.449,1.058 -2.653,2.653 -3.613,4.785l0.048,13.379c0,1.644 -0.805,2.466 -2.417,2.466c-1.432,0 -2.148,-0.822 -2.148,-2.466l-0,-17.138c-0,-0.537 0.02,-1.343 0.061,-2.417c0.041,-1.075 0.061,-1.88 0.061,-2.417c0,-1.644 0.716,-2.466 2.148,-2.466c1.596,-0 2.401,1.351 2.417,4.053c3.125,-3.011 6.592,-4.517 10.401,-4.517c1.318,-0 2.303,0.496 2.954,1.489c0.651,0.993 0.977,2.49 0.977,4.492c-0,0.847 -0.009,1.416 -0.025,1.709Z" style="fill-rule:nonzero;"/><path d="M2642.6,863.166c-3.679,0 -6.657,-0.919 -8.936,-2.758c-2.49,-2.035 -3.735,-4.883 -3.735,-8.545c-0,-4.232 1.025,-7.78 3.076,-10.645c2.23,-3.125 5.208,-4.687 8.936,-4.687c2.701,-0 4.907,0.455 6.616,1.367c2.099,1.123 3.149,2.848 3.149,5.176c0,1.627 -0.919,3.108 -2.759,4.443c-0.813,0.586 -2.539,1.497 -5.175,2.734l-9.327,4.419c0.912,1.351 2.047,2.369 3.406,3.052c1.359,0.684 2.942,1.026 4.749,1.026c1.123,-0 2.441,-0.212 3.955,-0.635c1.92,-0.537 3.157,-1.241 3.711,-2.112c0.553,-0.871 1.147,-1.306 1.782,-1.306c0.57,-0 1.078,0.215 1.526,0.647c0.448,0.431 0.671,0.932 0.671,1.501c0,1.807 -1.456,3.361 -4.37,4.663c-2.49,1.107 -4.915,1.66 -7.275,1.66Zm-0.659,-22.241c-1.986,0 -3.638,0.769 -4.956,2.307c-1.319,1.538 -2.304,3.854 -2.955,6.946l7.496,-3.564c2.946,-1.433 5.045,-2.678 6.298,-3.736c-1.399,-1.302 -3.361,-1.953 -5.883,-1.953Z" style="fill-rule:nonzero;"/><path d="M2689.59,864.07c-1.335,-0 -2.116,-0.708 -2.344,-2.124c-0.293,-1.791 -0.586,-4.313 -0.879,-7.569l-0.83,-7.568c-0.163,-1.123 -0.439,-2.222 -0.83,-3.296c-0.553,-1.465 -1.156,-2.197 -1.807,-2.197c-0.602,-0 -1.725,0.513 -3.369,1.538c-1.562,0.944 -2.588,1.701 -3.076,2.27c-0.016,1.53 0.025,3.06 0.122,4.59l0.733,6.519c0.309,2.571 0.463,4.696 0.463,6.372c0,0.716 -0.223,1.306 -0.671,1.77c-0.448,0.464 -1.021,0.696 -1.721,0.696c-0.7,-0 -1.274,-0.232 -1.721,-0.696c-0.448,-0.464 -0.672,-1.054 -0.672,-1.77c0,-1.969 -0.199,-4.879 -0.598,-8.728c-0.399,-3.849 -0.598,-6.759 -0.598,-8.728c0,-1.725 -0.244,-3.068 -0.732,-4.028c-1.14,0.52 -2.295,1.367 -3.467,2.539l-2.881,3.222c-0.26,0.391 -0.676,0.904 -1.245,1.538c-0,0.977 -0.09,2.417 -0.269,4.322c-0.179,1.904 -0.268,3.312 -0.268,4.223c-0,0.489 0.077,1.172 0.232,2.051c0.154,0.879 0.232,1.514 0.232,1.904c-0,0.668 -0.249,1.229 -0.745,1.685c-0.496,0.456 -1.078,0.684 -1.746,0.684c-1.839,-0 -2.758,-2.092 -2.758,-6.275c-0,-0.976 0.089,-2.433 0.268,-4.37c0.179,-1.937 0.269,-3.394 0.269,-4.37c-0,-0.863 -0.078,-2.157 -0.232,-3.882c-0.155,-1.725 -0.232,-3.027 -0.232,-3.906c-0,-3.695 0.83,-5.542 2.49,-5.542c0.635,-0 1.217,0.276 1.746,0.83c0.529,0.553 0.793,1.155 0.793,1.807c0,0.309 -0.041,0.789 -0.122,1.44c-0.081,0.651 -0.122,1.147 -0.122,1.489l0.049,2.564c0.846,-1.742 2.091,-3.317 3.735,-4.724c1.644,-1.408 3.044,-2.112 4.199,-2.112c2.556,-0 4.313,1.269 5.274,3.808c0.895,-1.188 1.961,-2.079 3.198,-2.673c1.237,-0.594 2.653,-0.891 4.248,-0.891c2.718,-0 4.574,1.465 5.566,4.394c0.196,0.586 0.529,2.873 1.001,6.861c0.456,2.799 1.042,7.462 1.758,13.989c0.049,0.651 -0.171,1.204 -0.659,1.66c-0.488,0.456 -1.082,0.684 -1.782,0.684Z" style="fill-rule:nonzero;"/><path d="M1558.79,1702.15c-1.84,0.862 -4.729,1.635 -8.667,2.319c-3.63,0.635 -6.592,0.952 -8.887,0.952c-1.644,0 -2.824,-0.252 -3.54,-0.757c-0.977,-0.683 -1.465,-1.937 -1.465,-3.76l0.488,-8.081c0.423,-7.454 0.635,-15.722 0.635,-24.804c-0,-0.7 0.232,-1.294 0.696,-1.782c0.464,-0.489 1.037,-0.733 1.721,-0.733c0.7,0 1.282,0.244 1.746,0.733c0.463,0.488 0.695,1.082 0.695,1.782c0,9.196 -0.219,17.562 -0.659,25.097l-0.317,3.711c-0.13,1.351 -0.179,2.548 -0.147,3.589c4.248,0.049 9.619,-0.952 16.114,-3.003c0.276,-0.081 0.537,-0.122 0.781,-0.122c0.7,0 1.286,0.277 1.758,0.83c0.407,0.505 0.61,1.083 0.61,1.734c0,1.041 -0.521,1.806 -1.562,2.295Z" style="fill-rule:nonzero;"/><path d="M1573.85,1704.59c-2.734,0 -5.086,-1.009 -7.056,-3.027c-2.197,-2.246 -3.353,-5.266 -3.466,-9.058c-0.098,-3.678 0.83,-6.917 2.783,-9.717c2.278,-3.304 5.452,-4.956 9.521,-4.956c3.255,0 5.721,1.489 7.398,4.468c1.334,2.409 1.977,5.306 1.928,8.691c-0.048,3.614 -0.992,6.698 -2.832,9.253c-2.083,2.897 -4.842,4.346 -8.276,4.346Zm1.465,-21.802c-2.393,-0.016 -4.256,1.123 -5.591,3.418c-1.058,1.839 -1.587,3.939 -1.587,6.299c0,2.36 0.643,4.199 1.929,5.518c1.074,1.09 2.335,1.635 3.784,1.635c1.693,0 3.149,-0.618 4.37,-1.855c1.384,-1.367 2.116,-3.215 2.197,-5.542c0.228,-6.299 -1.473,-9.456 -5.102,-9.473Z" style="fill-rule:nonzero;"/><path d="M1609.98,1685.11c-0.114,2.034 -0.928,3.051 -2.442,3.051c-1.399,0 -2.099,-0.805 -2.099,-2.417c-0,-0.309 -0.025,-0.879 -0.073,-1.709l-0.074,-2.05c-2.571,0.309 -4.63,1.033 -6.176,2.172c-1.449,1.058 -2.653,2.653 -3.614,4.786l0.049,13.379c0,1.643 -0.806,2.465 -2.417,2.465c-1.432,0 -2.148,-0.822 -2.148,-2.465l-0,-17.139c-0,-0.537 0.02,-1.343 0.061,-2.417c0.04,-1.074 0.061,-1.88 0.061,-2.417c-0,-1.644 0.716,-2.466 2.148,-2.466c1.595,0 2.401,1.351 2.417,4.053c3.125,-3.011 6.592,-4.517 10.401,-4.517c1.318,0 2.303,0.497 2.954,1.489c0.651,0.993 0.976,2.491 0.976,4.493c0,0.846 -0.008,1.416 -0.024,1.709Z" style="fill-rule:nonzero;"/><path d="M1626.41,1704.27c-3.678,-0 -6.656,-0.92 -8.935,-2.759c-2.49,-2.035 -3.735,-4.883 -3.735,-8.545c-0,-4.232 1.025,-7.78 3.076,-10.645c2.23,-3.125 5.208,-4.687 8.935,-4.687c2.702,-0 4.908,0.456 6.617,1.367c2.099,1.123 3.149,2.848 3.149,5.176c-0,1.627 -0.92,3.109 -2.759,4.443c-0.814,0.586 -2.539,1.498 -5.176,2.735l-9.326,4.419c0.912,1.35 2.047,2.368 3.406,3.051c1.359,0.684 2.942,1.026 4.748,1.026c1.124,-0 2.442,-0.212 3.956,-0.635c1.92,-0.537 3.157,-1.241 3.711,-2.112c0.553,-0.871 1.147,-1.306 1.782,-1.306c0.569,-0 1.078,0.216 1.526,0.647c0.447,0.431 0.671,0.932 0.671,1.501c-0,1.807 -1.457,3.361 -4.37,4.663c-2.49,1.107 -4.915,1.661 -7.276,1.661Zm-0.659,-22.242c-1.985,0 -3.637,0.769 -4.956,2.308c-1.318,1.538 -2.303,3.853 -2.954,6.945l7.495,-3.564c2.946,-1.432 5.046,-2.678 6.299,-3.735c-1.4,-1.303 -3.361,-1.954 -5.884,-1.954Z" style="fill-rule:nonzero;"/><path d="M1673.41,1705.18c-1.335,-0 -2.116,-0.708 -2.344,-2.124c-0.293,-1.79 -0.586,-4.313 -0.879,-7.568l-0.83,-7.569c-0.163,-1.123 -0.44,-2.221 -0.83,-3.296c-0.554,-1.465 -1.156,-2.197 -1.807,-2.197c-0.602,0 -1.725,0.513 -3.369,1.538c-1.563,0.944 -2.588,1.701 -3.076,2.271c-0.016,1.53 0.024,3.06 0.122,4.589l0.732,6.519c0.31,2.572 0.464,4.696 0.464,6.372c0,0.716 -0.224,1.306 -0.671,1.77c-0.448,0.464 -1.022,0.696 -1.721,0.696c-0.7,-0 -1.274,-0.232 -1.722,-0.696c-0.447,-0.464 -0.671,-1.054 -0.671,-1.77c-0,-1.969 -0.199,-4.879 -0.598,-8.728c-0.399,-3.849 -0.598,-6.759 -0.598,-8.728c-0,-1.725 -0.244,-3.068 -0.733,-4.028c-1.139,0.521 -2.295,1.367 -3.467,2.539l-2.88,3.222c-0.261,0.391 -0.676,0.904 -1.245,1.539c-0,0.976 -0.09,2.417 -0.269,4.321c-0.179,1.904 -0.269,3.312 -0.269,4.223c0,0.489 0.078,1.172 0.232,2.051c0.155,0.879 0.232,1.514 0.232,1.905c0,0.667 -0.248,1.228 -0.744,1.684c-0.497,0.456 -1.079,0.684 -1.746,0.684c-1.839,-0 -2.759,-2.092 -2.759,-6.275c0,-0.976 0.09,-2.433 0.269,-4.37c0.179,-1.937 0.268,-3.393 0.268,-4.37c0,-0.863 -0.077,-2.157 -0.232,-3.882c-0.154,-1.725 -0.232,-3.027 -0.232,-3.906c0,-3.695 0.831,-5.542 2.491,-5.542c0.634,-0 1.216,0.277 1.745,0.83c0.529,0.553 0.794,1.156 0.794,1.807c-0,0.309 -0.041,0.789 -0.122,1.44c-0.082,0.651 -0.122,1.148 -0.122,1.489l0.048,2.564c0.847,-1.742 2.092,-3.316 3.736,-4.724c1.644,-1.408 3.043,-2.112 4.199,-2.112c2.555,-0 4.313,1.269 5.273,3.809c0.896,-1.189 1.962,-2.08 3.199,-2.674c1.237,-0.594 2.653,-0.891 4.248,-0.891c2.718,0 4.573,1.465 5.566,4.395c0.195,0.586 0.529,2.872 1.001,6.86c0.456,2.799 1.042,7.463 1.758,13.989c0.049,0.651 -0.171,1.205 -0.659,1.66c-0.488,0.456 -1.083,0.684 -1.782,0.684Z" style="fill-rule:nonzero;"/><g id="text"><path d="M1265.1,1562.95l307.878,0" style="fill:none;stroke:#000;stroke-width:8.33px;"/><path d="M1265.1,1527.52l255.96,0" style="fill:none;stroke:#000;stroke-width:8.33px;"/><path d="M1265.1,1492.08l354.33,0" style="fill:none;stroke:#000;stroke-width:8.33px;"/><path d="M1265.1,1456.65l328.371,0" style="fill:none;stroke:#000;stroke-width:8.33px;"/><path d="M1265.1,1421.22l354.33,0" style="fill:none;stroke:#000;stroke-width:8.33px;"/><path d="M1265.1,1385.78l354.33,0" style="fill:none;stroke:#000;stroke-width:8.33px;"/></g><g id="text1" serif:id="text"><path d="M2229.22,1246.3l307.878,0" style="fill:none;stroke:#000;stroke-width:8.33px;"/><path d="M2229.22,1210.87l255.961,0" style="fill:none;stroke:#000;stroke-width:8.33px;"/><path d="M2229.22,1175.43l354.331,-0" style="fill:none;stroke:#000;stroke-width:8.33px;"/><path d="M2229.22,1140l328.372,-0" style="fill:none;stroke:#000;stroke-width:8.33px;"/><path d="M2229.22,1104.57l354.331,-0" style="fill:none;stroke:#000;stroke-width:8.33px;"/><path d="M2229.22,1069.13l354.331,-0" style="fill:none;stroke:#000;stroke-width:8.33px;"/></g><g id="text2" serif:id="text"><path d="M2664.13,1231.11l287.953,-0" style="fill:none;stroke:#000;stroke-width:8.33px;"/><path d="M2664.13,1195.68l239.395,-0" style="fill:none;stroke:#000;stroke-width:8.33px;"/><path d="M2664.13,1160.24l331.399,-0" style="fill:none;stroke:#000;stroke-width:8.33px;"/><path d="M2664.13,1124.81l307.12,-0" style="fill:none;stroke:#000;stroke-width:8.33px;"/><path d="M2664.13,1089.38l331.399,-0" style="fill:none;stroke:#000;stroke-width:8.33px;"/><path d="M2664.13,1053.94l331.399,-0" style="fill:none;stroke:#000;stroke-width:8.33px;"/></g><g id="text3" serif:id="text"><path d="M1268.23,1958.41l587.041,0" style="fill:none;stroke:#000;stroke-width:8.33px;"/><path d="M1268.23,1922.98l488.048,0" style="fill:none;stroke:#000;stroke-width:8.33px;"/><path d="M1268.23,1887.55l675.614,0" style="fill:none;stroke:#000;stroke-width:8.33px;"/><path d="M1268.23,1852.11l626.118,0" style="fill:none;stroke:#000;stroke-width:8.33px;"/><path d="M1268.23,1816.68l675.614,0" style="fill:none;stroke:#000;stroke-width:8.33px;"/><path d="M1268.23,1781.25l675.614,-0" style="fill:none;stroke:#000;stroke-width:8.33px;"/></g><g id="text4" serif:id="text"><path d="M292.525,2088.69l628.138,-0" style="fill:none;stroke:#000;stroke-width:8.33px;"/><path d="M292.525,2053.26l522.215,-0" style="fill:none;stroke:#000;stroke-width:8.33px;"/><path d="M292.525,2017.82l722.912,-0" style="fill:none;stroke:#000;stroke-width:8.33px;"/><path d="M292.525,1982.39l669.95,-0" style="fill:none;stroke:#000;stroke-width:8.33px;"/><path d="M292.525,1946.96l722.912,0" style="fill:none;stroke:#000;stroke-width:8.33px;"/><path d="M292.525,1911.52l722.912,0" style="fill:none;stroke:#000;stroke-width:8.33px;"/></g></svg>