<?xml version="1.0" encoding="UTF-8" standalone="no"?><!DOCTYPE svg PUBLIC "-//W3C//DTD SVG 1.1//EN" "http://www.w3.org/Graphics/SVG/1.1/DTD/svg11.dtd"><svg width="100px" height="100px" version="1.1" xmlns="http://www.w3.org/2000/svg" xmlns:xlink="http://www.w3.org/1999/xlink" xml:space="preserve" xmlns:serif="http://www.serif.com/" style="fill-rule:evenodd;clip-rule:evenodd;stroke-linejoin:round;stroke-miterlimit:2;"><path d="M50,0c27.596,0 50,22.404 50,50c0,27.596 -22.404,50 -50,50c-27.596,0 -50,-22.404 -50,-50c0,-27.596 22.404,-50 50,-50Zm-31.859,52.574l20.408,20.409c1.288,1.288 3.376,1.288 4.664,0l38.646,-38.646c1.287,-1.287 1.287,-3.377 0,-4.664c-1.287,-1.287 -3.376,-1.287 -4.663,0l-36.315,36.315l-18.077,-18.077c-1.287,-1.287 -3.376,-1.287 -4.663,-0c-1.287,1.287 -1.287,3.376 -0,4.663Z" style="fill:#fff;"/></svg>